%TF.GenerationSoftware,KiCad,Pcbnew,8.0.8*%
%TF.CreationDate,2025-11-13T12:32:41+01:00*%
%TF.ProjectId,Smartwatch,536d6172-7477-4617-9463-682e6b696361,rev?*%
%TF.SameCoordinates,Original*%
%TF.FileFunction,Soldermask,Top*%
%TF.FilePolarity,Negative*%
%FSLAX46Y46*%
G04 Gerber Fmt 4.6, Leading zero omitted, Abs format (unit mm)*
G04 Created by KiCad (PCBNEW 8.0.8) date 2025-11-13 12:32:41*
%MOMM*%
%LPD*%
G01*
G04 APERTURE LIST*
G04 Aperture macros list*
%AMRoundRect*
0 Rectangle with rounded corners*
0 $1 Rounding radius*
0 $2 $3 $4 $5 $6 $7 $8 $9 X,Y pos of 4 corners*
0 Add a 4 corners polygon primitive as box body*
4,1,4,$2,$3,$4,$5,$6,$7,$8,$9,$2,$3,0*
0 Add four circle primitives for the rounded corners*
1,1,$1+$1,$2,$3*
1,1,$1+$1,$4,$5*
1,1,$1+$1,$6,$7*
1,1,$1+$1,$8,$9*
0 Add four rect primitives between the rounded corners*
20,1,$1+$1,$2,$3,$4,$5,0*
20,1,$1+$1,$4,$5,$6,$7,0*
20,1,$1+$1,$6,$7,$8,$9,0*
20,1,$1+$1,$8,$9,$2,$3,0*%
G04 Aperture macros list end*
%ADD10R,1.500000X0.900000*%
%ADD11R,0.900000X1.500000*%
%ADD12C,0.600000*%
%ADD13R,3.800000X3.800000*%
%ADD14R,1.800000X1.800000*%
%ADD15C,1.800000*%
%ADD16RoundRect,0.150000X-0.512500X-0.150000X0.512500X-0.150000X0.512500X0.150000X-0.512500X0.150000X0*%
%ADD17R,1.700000X1.700000*%
%ADD18O,1.700000X1.700000*%
%ADD19O,1.800000X1.800000*%
%ADD20R,1.500000X1.050000*%
%ADD21O,1.500000X1.050000*%
%ADD22R,1.192000X1.192000*%
%ADD23C,1.192000*%
%ADD24RoundRect,0.250000X0.262500X0.450000X-0.262500X0.450000X-0.262500X-0.450000X0.262500X-0.450000X0*%
%ADD25RoundRect,0.150000X-0.587500X-0.150000X0.587500X-0.150000X0.587500X0.150000X-0.587500X0.150000X0*%
%ADD26RoundRect,0.250000X-0.262500X-0.450000X0.262500X-0.450000X0.262500X0.450000X-0.262500X0.450000X0*%
%ADD27R,2.000000X2.000000*%
%ADD28C,2.000000*%
%ADD29RoundRect,0.250000X-0.750000X0.600000X-0.750000X-0.600000X0.750000X-0.600000X0.750000X0.600000X0*%
%ADD30O,2.000000X1.700000*%
%ADD31R,1.200000X1.200000*%
%ADD32C,1.200000*%
%ADD33C,0.900000*%
G04 APERTURE END LIST*
D10*
%TO.C,U2*%
X57705000Y-72650000D03*
X57705000Y-73920000D03*
X57705000Y-75190000D03*
X57705000Y-76460000D03*
X57705000Y-77730000D03*
X57705000Y-79000000D03*
X57705000Y-80270000D03*
X57705000Y-81540000D03*
X57705000Y-82810000D03*
X57705000Y-84080000D03*
X57705000Y-85350000D03*
X57705000Y-86620000D03*
X57705000Y-87890000D03*
X57705000Y-89160000D03*
D11*
X60745000Y-90410000D03*
X62015000Y-90410000D03*
X63285000Y-90410000D03*
X64555000Y-90410000D03*
X65825000Y-90410000D03*
X67095000Y-90410000D03*
X68365000Y-90410000D03*
X69635000Y-90410000D03*
X70905000Y-90410000D03*
X72175000Y-90410000D03*
D10*
X75205000Y-89160000D03*
X75205000Y-87890000D03*
X75205000Y-86620000D03*
X75205000Y-85350000D03*
X75205000Y-84080000D03*
X75205000Y-82810000D03*
X75205000Y-81540000D03*
X75205000Y-80270000D03*
X75205000Y-79000000D03*
X75205000Y-77730000D03*
X75205000Y-76460000D03*
X75205000Y-75190000D03*
X75205000Y-73920000D03*
X75205000Y-72650000D03*
D12*
X63555000Y-79670000D03*
X63555000Y-81070000D03*
X64255000Y-78970000D03*
X64255000Y-80370000D03*
X64255000Y-81770000D03*
X64930000Y-79670000D03*
X64930000Y-81070000D03*
D13*
X64955000Y-80370000D03*
D12*
X65655000Y-78970000D03*
X65655000Y-80370000D03*
X65655000Y-81770000D03*
X66355000Y-79670000D03*
X66355000Y-81070000D03*
%TD*%
D14*
%TO.C,D1*%
X82960000Y-103000000D03*
D15*
X85500000Y-103000000D03*
%TD*%
D14*
%TO.C,D4*%
X84140000Y-85190000D03*
D15*
X84140000Y-87730000D03*
%TD*%
D16*
%TO.C,U4*%
X58862500Y-99050000D03*
X58862500Y-100000000D03*
X58862500Y-100950000D03*
X61137500Y-100950000D03*
X61137500Y-99050000D03*
%TD*%
D17*
%TO.C,J2*%
X48500000Y-77840000D03*
D18*
X48500000Y-80380000D03*
X48500000Y-82920000D03*
X48500000Y-85460000D03*
X48500000Y-88000000D03*
X48500000Y-90540000D03*
X48500000Y-93080000D03*
%TD*%
D14*
%TO.C,Joystick1*%
X54925000Y-96500000D03*
D19*
X52125000Y-96500000D03*
X48425000Y-96500000D03*
X54925000Y-107000000D03*
X52125000Y-107000000D03*
X48425000Y-107000000D03*
%TD*%
D20*
%TO.C,Q6*%
X78640000Y-79500000D03*
D21*
X78640000Y-80770000D03*
X78640000Y-82040000D03*
%TD*%
D14*
%TO.C,D6*%
X84140000Y-74455000D03*
D15*
X84140000Y-76995000D03*
%TD*%
D14*
%TO.C,D2*%
X77960000Y-103000000D03*
D15*
X80500000Y-103000000D03*
%TD*%
D22*
%TO.C,IC1*%
X83500000Y-111000000D03*
D23*
X80960000Y-108460000D03*
X78420000Y-111000000D03*
X80960000Y-113540000D03*
%TD*%
D24*
%TO.C,R_pull_up1*%
X84825000Y-92000000D03*
X83000000Y-92000000D03*
%TD*%
D21*
%TO.C,Q7*%
X78510000Y-76410000D03*
X78510000Y-75140000D03*
D20*
X78510000Y-73870000D03*
%TD*%
D25*
%TO.C,Q5*%
X77562500Y-92550000D03*
X77562500Y-94450000D03*
X79437500Y-93500000D03*
%TD*%
D26*
%TO.C,R_pull_up(OFFalarrancar)1*%
X77587500Y-96500000D03*
X79412500Y-96500000D03*
%TD*%
D25*
%TO.C,Q8*%
X83125000Y-94550000D03*
X83125000Y-96450000D03*
X85000000Y-95500000D03*
%TD*%
D27*
%TO.C,BZ1*%
X63400000Y-108540000D03*
D28*
X71000000Y-108540000D03*
%TD*%
D21*
%TO.C,Q1*%
X78500000Y-87540000D03*
X78500000Y-86270000D03*
D20*
X78500000Y-85000000D03*
%TD*%
D14*
%TO.C,D5*%
X84140000Y-79955000D03*
D15*
X84140000Y-82495000D03*
%TD*%
D29*
%TO.C,J11*%
X56450000Y-111500000D03*
D30*
X56450000Y-114000000D03*
%TD*%
D31*
%TO.C,COUT1*%
X62000000Y-96000000D03*
D32*
X60000000Y-96000000D03*
%TD*%
D31*
%TO.C,CIN1*%
X66972600Y-96000000D03*
D32*
X64972600Y-96000000D03*
%TD*%
D33*
%TO.C,J1*%
X81010000Y-92370000D03*
X81010000Y-96770000D03*
%TD*%
D17*
%TO.C,J9*%
X54500000Y-92000000D03*
D18*
X54500000Y-89460000D03*
X54500000Y-86920000D03*
X54500000Y-84380000D03*
X54500000Y-81840000D03*
X54500000Y-79300000D03*
X54500000Y-76760000D03*
X54500000Y-74220000D03*
%TD*%
D17*
%TO.C,J10*%
X74540000Y-99500000D03*
D18*
X72000000Y-99500000D03*
X69460000Y-99500000D03*
%TD*%
D17*
%TO.C,JP1*%
X74510000Y-95000000D03*
D18*
X71970000Y-95000000D03*
%TD*%
M02*
