%TF.GenerationSoftware,KiCad,Pcbnew,8.0.8*%
%TF.CreationDate,2025-11-13T12:32:41+01:00*%
%TF.ProjectId,Smartwatch,536d6172-7477-4617-9463-682e6b696361,rev?*%
%TF.SameCoordinates,Original*%
%TF.FileFunction,Paste,Bot*%
%TF.FilePolarity,Positive*%
%FSLAX46Y46*%
G04 Gerber Fmt 4.6, Leading zero omitted, Abs format (unit mm)*
G04 Created by KiCad (PCBNEW 8.0.8) date 2025-11-13 12:32:41*
%MOMM*%
%LPD*%
G01*
G04 APERTURE LIST*
G04 Aperture macros list*
%AMRoundRect*
0 Rectangle with rounded corners*
0 $1 Rounding radius*
0 $2 $3 $4 $5 $6 $7 $8 $9 X,Y pos of 4 corners*
0 Add a 4 corners polygon primitive as box body*
4,1,4,$2,$3,$4,$5,$6,$7,$8,$9,$2,$3,0*
0 Add four circle primitives for the rounded corners*
1,1,$1+$1,$2,$3*
1,1,$1+$1,$4,$5*
1,1,$1+$1,$6,$7*
1,1,$1+$1,$8,$9*
0 Add four rect primitives between the rounded corners*
20,1,$1+$1,$2,$3,$4,$5,0*
20,1,$1+$1,$4,$5,$6,$7,0*
20,1,$1+$1,$6,$7,$8,$9,0*
20,1,$1+$1,$8,$9,$2,$3,0*%
G04 Aperture macros list end*
%ADD10RoundRect,0.250000X0.262500X0.450000X-0.262500X0.450000X-0.262500X-0.450000X0.262500X-0.450000X0*%
%ADD11RoundRect,0.250000X-0.450000X0.262500X-0.450000X-0.262500X0.450000X-0.262500X0.450000X0.262500X0*%
%ADD12RoundRect,0.250000X-0.262500X-0.450000X0.262500X-0.450000X0.262500X0.450000X-0.262500X0.450000X0*%
%ADD13RoundRect,0.250000X0.475000X-0.250000X0.475000X0.250000X-0.475000X0.250000X-0.475000X-0.250000X0*%
%ADD14RoundRect,0.250000X-0.475000X0.250000X-0.475000X-0.250000X0.475000X-0.250000X0.475000X0.250000X0*%
%ADD15RoundRect,0.150000X0.512500X0.150000X-0.512500X0.150000X-0.512500X-0.150000X0.512500X-0.150000X0*%
%ADD16RoundRect,0.375000X-0.375000X-0.375000X0.375000X-0.375000X0.375000X0.375000X-0.375000X0.375000X0*%
%ADD17RoundRect,0.125000X-0.250000X-0.125000X0.250000X-0.125000X0.250000X0.125000X-0.250000X0.125000X0*%
%ADD18RoundRect,0.100000X-0.275000X-0.100000X0.275000X-0.100000X0.275000X0.100000X-0.275000X0.100000X0*%
%ADD19R,2.500000X0.500000*%
%ADD20R,2.500000X2.000000*%
%ADD21RoundRect,0.250000X-0.250000X-0.475000X0.250000X-0.475000X0.250000X0.475000X-0.250000X0.475000X0*%
%ADD22RoundRect,0.250000X0.250000X0.475000X-0.250000X0.475000X-0.250000X-0.475000X0.250000X-0.475000X0*%
%ADD23RoundRect,0.250000X0.450000X-0.262500X0.450000X0.262500X-0.450000X0.262500X-0.450000X-0.262500X0*%
%ADD24RoundRect,0.375000X0.375000X-0.375000X0.375000X0.375000X-0.375000X0.375000X-0.375000X-0.375000X0*%
%ADD25RoundRect,0.125000X0.125000X-0.250000X0.125000X0.250000X-0.125000X0.250000X-0.125000X-0.250000X0*%
%ADD26RoundRect,0.100000X0.100000X-0.275000X0.100000X0.275000X-0.100000X0.275000X-0.100000X-0.275000X0*%
%ADD27R,1.327899X0.431000*%
%ADD28RoundRect,0.150000X-0.587500X-0.150000X0.587500X-0.150000X0.587500X0.150000X-0.587500X0.150000X0*%
G04 APERTURE END LIST*
D10*
%TO.C,R_G1*%
X65912500Y-88500000D03*
X64087500Y-88500000D03*
%TD*%
D11*
%TO.C,R14*%
X73500000Y-77500000D03*
X73500000Y-79325000D03*
%TD*%
%TO.C,R1*%
X52500000Y-98520000D03*
X52500000Y-100345000D03*
%TD*%
%TO.C,R16*%
X52500000Y-102020000D03*
X52500000Y-103845000D03*
%TD*%
%TO.C,R8*%
X67000000Y-109040000D03*
X67000000Y-110865000D03*
%TD*%
D12*
%TO.C,R20*%
X67397500Y-92677500D03*
X69222500Y-92677500D03*
%TD*%
D11*
%TO.C,R2*%
X68500000Y-77587500D03*
X68500000Y-79412500D03*
%TD*%
%TO.C,R15*%
X60500000Y-77087500D03*
X60500000Y-78912500D03*
%TD*%
%TO.C,R12*%
X65500000Y-104715000D03*
X65500000Y-106540000D03*
%TD*%
D13*
%TO.C,C9*%
X85000000Y-108990000D03*
X85000000Y-107090000D03*
%TD*%
D12*
%TO.C,R22*%
X83587500Y-114040000D03*
X85412500Y-114040000D03*
%TD*%
%TO.C,R3*%
X71587500Y-88500000D03*
X73412500Y-88500000D03*
%TD*%
D14*
%TO.C,C2*%
X48000000Y-110090000D03*
X48000000Y-111990000D03*
%TD*%
D11*
%TO.C,R19*%
X55000000Y-102020000D03*
X55000000Y-103845000D03*
%TD*%
D15*
%TO.C,U3*%
X53000000Y-110215000D03*
X53000000Y-111165000D03*
X53000000Y-112115000D03*
X50725000Y-112115000D03*
X50725000Y-111165000D03*
X50725000Y-110215000D03*
%TD*%
D11*
%TO.C,R10*%
X71000000Y-77587500D03*
X71000000Y-79412500D03*
%TD*%
D13*
%TO.C,C1*%
X49000000Y-100382500D03*
X49000000Y-98482500D03*
%TD*%
D12*
%TO.C,R4*%
X61087500Y-111040000D03*
X62912500Y-111040000D03*
%TD*%
%TO.C,R6*%
X73587500Y-103000000D03*
X75412500Y-103000000D03*
%TD*%
D10*
%TO.C,R_G2*%
X69825000Y-88500000D03*
X68000000Y-88500000D03*
%TD*%
D14*
%TO.C,C_out1*%
X73500000Y-90500000D03*
X73500000Y-92400000D03*
%TD*%
D13*
%TO.C,C6*%
X63500000Y-74950000D03*
X63500000Y-73050000D03*
%TD*%
D14*
%TO.C,C20*%
X60500000Y-85100000D03*
X60500000Y-87000000D03*
%TD*%
D13*
%TO.C,C5*%
X60500000Y-74950000D03*
X60500000Y-73050000D03*
%TD*%
D16*
%TO.C,Q2*%
X72300000Y-112055000D03*
X72300000Y-113755000D03*
X74000000Y-112055000D03*
X74000000Y-113755000D03*
D17*
X75405000Y-111000000D03*
X75405000Y-112270000D03*
X75405000Y-113540000D03*
X75405000Y-114810000D03*
D18*
X69600000Y-114810000D03*
X69600000Y-113540000D03*
X69600000Y-112270000D03*
X69600000Y-111000000D03*
%TD*%
D19*
%TO.C,J1*%
X78410000Y-92970000D03*
X78410000Y-93770000D03*
X78410000Y-94570000D03*
X78410000Y-95370000D03*
X78410000Y-96170000D03*
D20*
X83910000Y-90170000D03*
X78410000Y-90170000D03*
X83910000Y-98970000D03*
X78410000Y-98970000D03*
%TD*%
D21*
%TO.C,C10*%
X47550000Y-114040000D03*
X49450000Y-114040000D03*
%TD*%
D22*
%TO.C,C8*%
X79450000Y-115040000D03*
X77550000Y-115040000D03*
%TD*%
%TO.C,C22*%
X58750000Y-116000000D03*
X56850000Y-116000000D03*
%TD*%
D23*
%TO.C,R17*%
X49000000Y-103932500D03*
X49000000Y-102107500D03*
%TD*%
D10*
%TO.C,R13*%
X67912500Y-102540000D03*
X66087500Y-102540000D03*
%TD*%
%TO.C,R5*%
X53325000Y-114540000D03*
X51500000Y-114540000D03*
%TD*%
D14*
%TO.C,C4*%
X60500000Y-80550000D03*
X60500000Y-82450000D03*
%TD*%
D12*
%TO.C,R11*%
X71587500Y-82500000D03*
X73412500Y-82500000D03*
%TD*%
D24*
%TO.C,Q3*%
X60500000Y-103040000D03*
X62200000Y-103040000D03*
X60500000Y-101340000D03*
X62200000Y-101340000D03*
D25*
X59445000Y-99935000D03*
X60715000Y-99935000D03*
X61985000Y-99935000D03*
X63255000Y-99935000D03*
D26*
X63255000Y-105740000D03*
X61985000Y-105740000D03*
X60715000Y-105740000D03*
X59445000Y-105740000D03*
%TD*%
D14*
%TO.C,C_out2*%
X75500000Y-90000000D03*
X75500000Y-91900000D03*
%TD*%
D27*
%TO.C,TP4056*%
X65213348Y-113065001D03*
X65213348Y-113714999D03*
X65213348Y-114365001D03*
X65213348Y-115014999D03*
X60786652Y-115014999D03*
X60786652Y-114365001D03*
X60786652Y-113714999D03*
X60786652Y-113065001D03*
%TD*%
D28*
%TO.C,Q4*%
X68125000Y-106490000D03*
X68125000Y-104590000D03*
X70000000Y-105540000D03*
%TD*%
D23*
%TO.C,R18*%
X55000000Y-100345000D03*
X55000000Y-98520000D03*
%TD*%
D12*
%TO.C,R9*%
X71587500Y-85500000D03*
X73412500Y-85500000D03*
%TD*%
D10*
%TO.C,R7*%
X75500000Y-105000000D03*
X73675000Y-105000000D03*
%TD*%
D11*
%TO.C,R21*%
X78500000Y-106627500D03*
X78500000Y-108452500D03*
%TD*%
M02*
