%TF.GenerationSoftware,KiCad,Pcbnew,8.0.8*%
%TF.CreationDate,2025-11-13T12:32:41+01:00*%
%TF.ProjectId,Smartwatch,536d6172-7477-4617-9463-682e6b696361,rev?*%
%TF.SameCoordinates,Original*%
%TF.FileFunction,Paste,Top*%
%TF.FilePolarity,Positive*%
%FSLAX46Y46*%
G04 Gerber Fmt 4.6, Leading zero omitted, Abs format (unit mm)*
G04 Created by KiCad (PCBNEW 8.0.8) date 2025-11-13 12:32:41*
%MOMM*%
%LPD*%
G01*
G04 APERTURE LIST*
G04 Aperture macros list*
%AMRoundRect*
0 Rectangle with rounded corners*
0 $1 Rounding radius*
0 $2 $3 $4 $5 $6 $7 $8 $9 X,Y pos of 4 corners*
0 Add a 4 corners polygon primitive as box body*
4,1,4,$2,$3,$4,$5,$6,$7,$8,$9,$2,$3,0*
0 Add four circle primitives for the rounded corners*
1,1,$1+$1,$2,$3*
1,1,$1+$1,$4,$5*
1,1,$1+$1,$6,$7*
1,1,$1+$1,$8,$9*
0 Add four rect primitives between the rounded corners*
20,1,$1+$1,$2,$3,$4,$5,0*
20,1,$1+$1,$4,$5,$6,$7,0*
20,1,$1+$1,$6,$7,$8,$9,0*
20,1,$1+$1,$8,$9,$2,$3,0*%
G04 Aperture macros list end*
%ADD10R,1.500000X0.900000*%
%ADD11R,0.900000X1.500000*%
%ADD12R,0.900000X0.900000*%
%ADD13RoundRect,0.150000X-0.512500X-0.150000X0.512500X-0.150000X0.512500X0.150000X-0.512500X0.150000X0*%
%ADD14RoundRect,0.250000X0.262500X0.450000X-0.262500X0.450000X-0.262500X-0.450000X0.262500X-0.450000X0*%
%ADD15RoundRect,0.150000X-0.587500X-0.150000X0.587500X-0.150000X0.587500X0.150000X-0.587500X0.150000X0*%
%ADD16RoundRect,0.250000X-0.262500X-0.450000X0.262500X-0.450000X0.262500X0.450000X-0.262500X0.450000X0*%
G04 APERTURE END LIST*
D10*
%TO.C,U2*%
X57705000Y-72650000D03*
X57705000Y-73920000D03*
X57705000Y-75190000D03*
X57705000Y-76460000D03*
X57705000Y-77730000D03*
X57705000Y-79000000D03*
X57705000Y-80270000D03*
X57705000Y-81540000D03*
X57705000Y-82810000D03*
X57705000Y-84080000D03*
X57705000Y-85350000D03*
X57705000Y-86620000D03*
X57705000Y-87890000D03*
X57705000Y-89160000D03*
D11*
X60745000Y-90410000D03*
X62015000Y-90410000D03*
X63285000Y-90410000D03*
X64555000Y-90410000D03*
X65825000Y-90410000D03*
X67095000Y-90410000D03*
X68365000Y-90410000D03*
X69635000Y-90410000D03*
X70905000Y-90410000D03*
X72175000Y-90410000D03*
D10*
X75205000Y-89160000D03*
X75205000Y-87890000D03*
X75205000Y-86620000D03*
X75205000Y-85350000D03*
X75205000Y-84080000D03*
X75205000Y-82810000D03*
X75205000Y-81540000D03*
X75205000Y-80270000D03*
X75205000Y-79000000D03*
X75205000Y-77730000D03*
X75205000Y-76460000D03*
X75205000Y-75190000D03*
X75205000Y-73920000D03*
X75205000Y-72650000D03*
D12*
X63555000Y-78970000D03*
X63555000Y-80370000D03*
X63555000Y-81770000D03*
X64955000Y-78970000D03*
X64955000Y-80370000D03*
X64955000Y-81770000D03*
X66355000Y-78970000D03*
X66355000Y-80370000D03*
X66355000Y-81770000D03*
%TD*%
D13*
%TO.C,U4*%
X58862500Y-99050000D03*
X58862500Y-100000000D03*
X58862500Y-100950000D03*
X61137500Y-100950000D03*
X61137500Y-99050000D03*
%TD*%
D14*
%TO.C,R_pull_up1*%
X84825000Y-92000000D03*
X83000000Y-92000000D03*
%TD*%
D15*
%TO.C,Q5*%
X77562500Y-92550000D03*
X77562500Y-94450000D03*
X79437500Y-93500000D03*
%TD*%
D16*
%TO.C,R_pull_up(OFFalarrancar)1*%
X77587500Y-96500000D03*
X79412500Y-96500000D03*
%TD*%
D15*
%TO.C,Q8*%
X83125000Y-94550000D03*
X83125000Y-96450000D03*
X85000000Y-95500000D03*
%TD*%
M02*
