%TF.GenerationSoftware,KiCad,Pcbnew,8.0.8*%
%TF.CreationDate,2025-11-13T12:32:41+01:00*%
%TF.ProjectId,Smartwatch,536d6172-7477-4617-9463-682e6b696361,rev?*%
%TF.SameCoordinates,Original*%
%TF.FileFunction,Copper,L2,Bot*%
%TF.FilePolarity,Positive*%
%FSLAX46Y46*%
G04 Gerber Fmt 4.6, Leading zero omitted, Abs format (unit mm)*
G04 Created by KiCad (PCBNEW 8.0.8) date 2025-11-13 12:32:41*
%MOMM*%
%LPD*%
G01*
G04 APERTURE LIST*
G04 Aperture macros list*
%AMRoundRect*
0 Rectangle with rounded corners*
0 $1 Rounding radius*
0 $2 $3 $4 $5 $6 $7 $8 $9 X,Y pos of 4 corners*
0 Add a 4 corners polygon primitive as box body*
4,1,4,$2,$3,$4,$5,$6,$7,$8,$9,$2,$3,0*
0 Add four circle primitives for the rounded corners*
1,1,$1+$1,$2,$3*
1,1,$1+$1,$4,$5*
1,1,$1+$1,$6,$7*
1,1,$1+$1,$8,$9*
0 Add four rect primitives between the rounded corners*
20,1,$1+$1,$2,$3,$4,$5,0*
20,1,$1+$1,$4,$5,$6,$7,0*
20,1,$1+$1,$6,$7,$8,$9,0*
20,1,$1+$1,$8,$9,$2,$3,0*%
G04 Aperture macros list end*
%TA.AperFunction,HeatsinkPad*%
%ADD10C,0.600000*%
%TD*%
%TA.AperFunction,ComponentPad*%
%ADD11R,1.800000X1.800000*%
%TD*%
%TA.AperFunction,ComponentPad*%
%ADD12C,1.800000*%
%TD*%
%TA.AperFunction,ComponentPad*%
%ADD13R,1.700000X1.700000*%
%TD*%
%TA.AperFunction,ComponentPad*%
%ADD14O,1.700000X1.700000*%
%TD*%
%TA.AperFunction,ComponentPad*%
%ADD15O,1.800000X1.800000*%
%TD*%
%TA.AperFunction,ComponentPad*%
%ADD16R,1.500000X1.050000*%
%TD*%
%TA.AperFunction,ComponentPad*%
%ADD17O,1.500000X1.050000*%
%TD*%
%TA.AperFunction,ComponentPad*%
%ADD18R,1.192000X1.192000*%
%TD*%
%TA.AperFunction,ComponentPad*%
%ADD19C,1.192000*%
%TD*%
%TA.AperFunction,ComponentPad*%
%ADD20R,2.000000X2.000000*%
%TD*%
%TA.AperFunction,ComponentPad*%
%ADD21C,2.000000*%
%TD*%
%TA.AperFunction,ComponentPad*%
%ADD22RoundRect,0.250000X-0.750000X0.600000X-0.750000X-0.600000X0.750000X-0.600000X0.750000X0.600000X0*%
%TD*%
%TA.AperFunction,ComponentPad*%
%ADD23O,2.000000X1.700000*%
%TD*%
%TA.AperFunction,SMDPad,CuDef*%
%ADD24RoundRect,0.250000X0.262500X0.450000X-0.262500X0.450000X-0.262500X-0.450000X0.262500X-0.450000X0*%
%TD*%
%TA.AperFunction,SMDPad,CuDef*%
%ADD25RoundRect,0.250000X-0.450000X0.262500X-0.450000X-0.262500X0.450000X-0.262500X0.450000X0.262500X0*%
%TD*%
%TA.AperFunction,ComponentPad*%
%ADD26R,1.200000X1.200000*%
%TD*%
%TA.AperFunction,ComponentPad*%
%ADD27C,1.200000*%
%TD*%
%TA.AperFunction,SMDPad,CuDef*%
%ADD28RoundRect,0.250000X-0.262500X-0.450000X0.262500X-0.450000X0.262500X0.450000X-0.262500X0.450000X0*%
%TD*%
%TA.AperFunction,SMDPad,CuDef*%
%ADD29RoundRect,0.250000X0.475000X-0.250000X0.475000X0.250000X-0.475000X0.250000X-0.475000X-0.250000X0*%
%TD*%
%TA.AperFunction,SMDPad,CuDef*%
%ADD30RoundRect,0.250000X-0.475000X0.250000X-0.475000X-0.250000X0.475000X-0.250000X0.475000X0.250000X0*%
%TD*%
%TA.AperFunction,SMDPad,CuDef*%
%ADD31RoundRect,0.150000X0.512500X0.150000X-0.512500X0.150000X-0.512500X-0.150000X0.512500X-0.150000X0*%
%TD*%
%TA.AperFunction,SMDPad,CuDef*%
%ADD32RoundRect,0.125000X-0.300000X-0.125000X0.300000X-0.125000X0.300000X0.125000X-0.300000X0.125000X0*%
%TD*%
%TA.AperFunction,SMDPad,CuDef*%
%ADD33R,4.550000X4.410000*%
%TD*%
%TA.AperFunction,SMDPad,CuDef*%
%ADD34R,2.500000X0.500000*%
%TD*%
%TA.AperFunction,SMDPad,CuDef*%
%ADD35R,2.500000X2.000000*%
%TD*%
%TA.AperFunction,SMDPad,CuDef*%
%ADD36RoundRect,0.250000X-0.250000X-0.475000X0.250000X-0.475000X0.250000X0.475000X-0.250000X0.475000X0*%
%TD*%
%TA.AperFunction,SMDPad,CuDef*%
%ADD37RoundRect,0.250000X0.250000X0.475000X-0.250000X0.475000X-0.250000X-0.475000X0.250000X-0.475000X0*%
%TD*%
%TA.AperFunction,SMDPad,CuDef*%
%ADD38RoundRect,0.250000X0.450000X-0.262500X0.450000X0.262500X-0.450000X0.262500X-0.450000X-0.262500X0*%
%TD*%
%TA.AperFunction,SMDPad,CuDef*%
%ADD39RoundRect,0.125000X0.125000X-0.300000X0.125000X0.300000X-0.125000X0.300000X-0.125000X-0.300000X0*%
%TD*%
%TA.AperFunction,SMDPad,CuDef*%
%ADD40R,4.410000X4.550000*%
%TD*%
%TA.AperFunction,SMDPad,CuDef*%
%ADD41R,1.327899X0.431000*%
%TD*%
%TA.AperFunction,SMDPad,CuDef*%
%ADD42RoundRect,0.150000X-0.587500X-0.150000X0.587500X-0.150000X0.587500X0.150000X-0.587500X0.150000X0*%
%TD*%
%TA.AperFunction,ViaPad*%
%ADD43C,0.600000*%
%TD*%
%TA.AperFunction,Conductor*%
%ADD44C,0.200000*%
%TD*%
G04 APERTURE END LIST*
D10*
%TO.P,U2,39,GND*%
%TO.N,GND*%
X63555000Y-79670000D03*
X63555000Y-81070000D03*
X64255000Y-78970000D03*
X64255000Y-80370000D03*
X64255000Y-81770000D03*
X64930000Y-79670000D03*
X64930000Y-81070000D03*
X65655000Y-78970000D03*
X65655000Y-80370000D03*
X65655000Y-81770000D03*
X66355000Y-79670000D03*
X66355000Y-81070000D03*
%TD*%
D11*
%TO.P,D1,1,K*%
%TO.N,Net-(D1-K)*%
X82960000Y-103000000D03*
D12*
%TO.P,D1,2,A*%
%TO.N,+5V*%
X85500000Y-103000000D03*
%TD*%
D11*
%TO.P,D4,1,K*%
%TO.N,Net-(D4-K)*%
X84140000Y-85190000D03*
D12*
%TO.P,D4,2,A*%
%TO.N,Net-(D4-A)*%
X84140000Y-87730000D03*
%TD*%
D13*
%TO.P,J2,1,Pin_1*%
%TO.N,/RST*%
X48500000Y-77840000D03*
D14*
%TO.P,J2,2,Pin_2*%
%TO.N,/CS*%
X48500000Y-80380000D03*
%TO.P,J2,3,Pin_3*%
%TO.N,/DC*%
X48500000Y-82920000D03*
%TO.P,J2,4,Pin_4*%
%TO.N,/SDA_MOSI*%
X48500000Y-85460000D03*
%TO.P,J2,5,Pin_5*%
%TO.N,/SCL_SCK*%
X48500000Y-88000000D03*
%TO.P,J2,6,Pin_6*%
%TO.N,GND*%
X48500000Y-90540000D03*
%TO.P,J2,7,Pin_7*%
%TO.N,/3V3_PERIF_LOW*%
X48500000Y-93080000D03*
%TD*%
D11*
%TO.P,Joystick1,1,P1*%
%TO.N,Net-(Joystick1-P1)*%
X54925000Y-96500000D03*
D15*
%TO.P,Joystick1,2,P2*%
%TO.N,Net-(Joystick1-P2)*%
X52125000Y-96500000D03*
%TO.P,Joystick1,3,P3*%
%TO.N,/JOYSTICK*%
X48425000Y-96500000D03*
%TO.P,Joystick1,4,P4*%
%TO.N,Net-(Joystick1-P4)*%
X54925000Y-107000000D03*
%TO.P,Joystick1,5,P5*%
%TO.N,Net-(Joystick1-P5)*%
X52125000Y-107000000D03*
%TO.P,Joystick1,6,P6*%
%TO.N,GND*%
X48425000Y-107000000D03*
%TD*%
D16*
%TO.P,Q6,1,C*%
%TO.N,Net-(D5-K)*%
X78640000Y-79500000D03*
D17*
%TO.P,Q6,2,B*%
%TO.N,Net-(Q6-B)*%
X78640000Y-80770000D03*
%TO.P,Q6,3,E*%
%TO.N,GND*%
X78640000Y-82040000D03*
%TD*%
D11*
%TO.P,D6,1,K*%
%TO.N,Net-(D6-K)*%
X84140000Y-74455000D03*
D12*
%TO.P,D6,2,A*%
%TO.N,Net-(D6-A)*%
X84140000Y-76995000D03*
%TD*%
D11*
%TO.P,D2,1,K*%
%TO.N,Net-(D2-K)*%
X77960000Y-103000000D03*
D12*
%TO.P,D2,2,A*%
%TO.N,+5V*%
X80500000Y-103000000D03*
%TD*%
D18*
%TO.P,IC1,1,SCL_/_VZ*%
%TO.N,/SCL*%
X83500000Y-111000000D03*
D19*
%TO.P,IC1,2,SDA_/_PWM*%
%TO.N,/SDA*%
X80960000Y-108460000D03*
%TO.P,IC1,3,VDD*%
%TO.N,Net-(IC1-VDD)*%
X78420000Y-111000000D03*
%TO.P,IC1,4,VSS*%
%TO.N,GND*%
X80960000Y-113540000D03*
%TD*%
D17*
%TO.P,Q7,3,E*%
%TO.N,GND*%
X78510000Y-76410000D03*
%TO.P,Q7,2,B*%
%TO.N,Net-(Q7-B)*%
X78510000Y-75140000D03*
D16*
%TO.P,Q7,1,C*%
%TO.N,Net-(D6-K)*%
X78510000Y-73870000D03*
%TD*%
D20*
%TO.P,BZ1,1,+*%
%TO.N,/3V3_PERIF_LOW*%
X63400000Y-108540000D03*
D21*
%TO.P,BZ1,2,-*%
%TO.N,Net-(BZ1--)*%
X71000000Y-108540000D03*
%TD*%
D17*
%TO.P,Q1,3,E*%
%TO.N,GND*%
X78500000Y-87540000D03*
%TO.P,Q1,2,B*%
%TO.N,Net-(Q1-B)*%
X78500000Y-86270000D03*
D16*
%TO.P,Q1,1,C*%
%TO.N,Net-(D4-K)*%
X78500000Y-85000000D03*
%TD*%
D11*
%TO.P,D5,1,K*%
%TO.N,Net-(D5-K)*%
X84140000Y-79955000D03*
D12*
%TO.P,D5,2,A*%
%TO.N,Net-(D5-A)*%
X84140000Y-82495000D03*
%TD*%
D22*
%TO.P,J11,1,Puente1*%
%TO.N,/4V2*%
X56450000Y-111500000D03*
D23*
%TO.P,J11,2,Puente2*%
%TO.N,/B-*%
X56450000Y-114000000D03*
%TD*%
D24*
%TO.P,R_G1,1*%
%TO.N,Net-(Q8-G)*%
X65912500Y-88500000D03*
%TO.P,R_G1,2*%
%TO.N,/CONT_PERIF*%
X64087500Y-88500000D03*
%TD*%
D25*
%TO.P,R14,1*%
%TO.N,Net-(R10-Pad1)*%
X73500000Y-77500000D03*
%TO.P,R14,2*%
%TO.N,Net-(D6-A)*%
X73500000Y-79325000D03*
%TD*%
%TO.P,R1,1*%
%TO.N,/JOYSTICK*%
X52500000Y-98520000D03*
%TO.P,R1,2*%
%TO.N,Net-(Joystick1-P1)*%
X52500000Y-100345000D03*
%TD*%
D26*
%TO.P,COUT1,1*%
%TO.N,/3V3*%
X62000000Y-96000000D03*
D27*
%TO.P,COUT1,2*%
%TO.N,GND*%
X60000000Y-96000000D03*
%TD*%
D25*
%TO.P,R16,1*%
%TO.N,Net-(Joystick1-P2)*%
X52500000Y-102020000D03*
%TO.P,R16,2*%
%TO.N,/JOYSTICK*%
X52500000Y-103845000D03*
%TD*%
%TO.P,R8,1*%
%TO.N,GND*%
X67000000Y-109040000D03*
%TO.P,R8,2*%
%TO.N,Net-(TP4056A-PROG)*%
X67000000Y-110865000D03*
%TD*%
D28*
%TO.P,R20,1*%
%TO.N,/3V3*%
X67397500Y-92677500D03*
%TO.P,R20,2*%
%TO.N,/BOOT*%
X69222500Y-92677500D03*
%TD*%
D25*
%TO.P,R2,1*%
%TO.N,Net-(R10-Pad1)*%
X68500000Y-77587500D03*
%TO.P,R2,2*%
%TO.N,Net-(D4-A)*%
X68500000Y-79412500D03*
%TD*%
%TO.P,R15,1*%
%TO.N,/3V3*%
X60500000Y-77087500D03*
%TO.P,R15,2*%
%TO.N,Net-(U2-EN)*%
X60500000Y-78912500D03*
%TD*%
%TO.P,R12,1*%
%TO.N,GND*%
X65500000Y-104715000D03*
%TO.P,R12,2*%
%TO.N,Net-(Q4-G)*%
X65500000Y-106540000D03*
%TD*%
D29*
%TO.P,C9,1*%
%TO.N,+5V*%
X85000000Y-108990000D03*
%TO.P,C9,2*%
%TO.N,GND*%
X85000000Y-107090000D03*
%TD*%
D28*
%TO.P,R22,1*%
%TO.N,Net-(IC1-VDD)*%
X83587500Y-114040000D03*
%TO.P,R22,2*%
%TO.N,/SCL*%
X85412500Y-114040000D03*
%TD*%
%TO.P,R3,1*%
%TO.N,/LEDs*%
X71587500Y-88500000D03*
%TO.P,R3,2*%
%TO.N,Net-(Q1-B)*%
X73412500Y-88500000D03*
%TD*%
D30*
%TO.P,C2,1*%
%TO.N,/B-*%
X48000000Y-110090000D03*
%TO.P,C2,2*%
%TO.N,Net-(U3-VCC)*%
X48000000Y-111990000D03*
%TD*%
D25*
%TO.P,R19,1*%
%TO.N,Net-(Joystick1-P5)*%
X55000000Y-102020000D03*
%TO.P,R19,2*%
%TO.N,/JOYSTICK*%
X55000000Y-103845000D03*
%TD*%
D31*
%TO.P,U3,1,OD*%
%TO.N,Net-(Q3-G)*%
X53000000Y-110215000D03*
%TO.P,U3,2,CS*%
%TO.N,Net-(U3-CS)*%
X53000000Y-111165000D03*
%TO.P,U3,3,OC*%
%TO.N,Net-(Q2-G)*%
X53000000Y-112115000D03*
%TO.P,U3,4,TD*%
%TO.N,unconnected-(U3-TD-Pad4)*%
X50725000Y-112115000D03*
%TO.P,U3,5,VCC*%
%TO.N,Net-(U3-VCC)*%
X50725000Y-111165000D03*
%TO.P,U3,6,GND*%
%TO.N,/B-*%
X50725000Y-110215000D03*
%TD*%
D25*
%TO.P,R10,1*%
%TO.N,Net-(R10-Pad1)*%
X71000000Y-77587500D03*
%TO.P,R10,2*%
%TO.N,Net-(D5-A)*%
X71000000Y-79412500D03*
%TD*%
D29*
%TO.P,C1,1*%
%TO.N,Net-(C1-Pad1)*%
X49000000Y-100382500D03*
%TO.P,C1,2*%
%TO.N,GND*%
X49000000Y-98482500D03*
%TD*%
D28*
%TO.P,R4,1*%
%TO.N,Net-(U3-CS)*%
X61087500Y-111040000D03*
%TO.P,R4,2*%
%TO.N,GND*%
X62912500Y-111040000D03*
%TD*%
%TO.P,R6,1*%
%TO.N,/STDBY_LED*%
X73587500Y-103000000D03*
%TO.P,R6,2*%
%TO.N,Net-(D2-K)*%
X75412500Y-103000000D03*
%TD*%
D24*
%TO.P,R_G2,1*%
%TO.N,Net-(Q5-G)*%
X69825000Y-88500000D03*
%TO.P,R_G2,2*%
%TO.N,/CONT_PERIF_LOW*%
X68000000Y-88500000D03*
%TD*%
D30*
%TO.P,C_out1,1*%
%TO.N,/3V3_PERIF*%
X73500000Y-90500000D03*
%TO.P,C_out1,2*%
%TO.N,GND*%
X73500000Y-92400000D03*
%TD*%
D29*
%TO.P,C6,1*%
%TO.N,/3V3*%
X63500000Y-74950000D03*
%TO.P,C6,2*%
%TO.N,GND*%
X63500000Y-73050000D03*
%TD*%
D30*
%TO.P,C20,1*%
%TO.N,/3V3*%
X60500000Y-85100000D03*
%TO.P,C20,2*%
%TO.N,GND*%
X60500000Y-87000000D03*
%TD*%
D29*
%TO.P,C5,1*%
%TO.N,/3V3*%
X60500000Y-74950000D03*
%TO.P,C5,2*%
%TO.N,GND*%
X60500000Y-73050000D03*
%TD*%
D32*
%TO.P,Q2,1,S*%
%TO.N,GND*%
X69600000Y-114810000D03*
%TO.P,Q2,2,S*%
X69600000Y-113540000D03*
%TO.P,Q2,3,S*%
X69600000Y-112270000D03*
%TO.P,Q2,4,G*%
%TO.N,Net-(Q2-G)*%
X69600000Y-111000000D03*
D33*
%TO.P,Q2,5,D*%
%TO.N,unconnected-(Q2-D-Pad5)*%
X73550000Y-112905000D03*
%TD*%
D26*
%TO.P,CIN1,1*%
%TO.N,/4V2*%
X66972600Y-96000000D03*
D27*
%TO.P,CIN1,2*%
%TO.N,GND*%
X64972600Y-96000000D03*
%TD*%
D34*
%TO.P,J1,1,VBUS*%
%TO.N,+5V*%
X78410000Y-92970000D03*
%TO.P,J1,2,D-*%
%TO.N,unconnected-(J1-D--Pad2)*%
X78410000Y-93770000D03*
%TO.P,J1,3,D+*%
%TO.N,unconnected-(J1-D+-Pad3)*%
X78410000Y-94570000D03*
%TO.P,J1,4,ID*%
%TO.N,unconnected-(J1-ID-Pad4)*%
X78410000Y-95370000D03*
%TO.P,J1,5,GND*%
%TO.N,GND*%
X78410000Y-96170000D03*
D35*
%TO.P,J1,6,Shield*%
X83910000Y-90170000D03*
X78410000Y-90170000D03*
X83910000Y-98970000D03*
X78410000Y-98970000D03*
%TD*%
D36*
%TO.P,C10,1*%
%TO.N,/4V2*%
X47550000Y-114040000D03*
%TO.P,C10,2*%
%TO.N,GND*%
X49450000Y-114040000D03*
%TD*%
D37*
%TO.P,C8,1*%
%TO.N,Net-(IC1-VDD)*%
X79450000Y-115040000D03*
%TO.P,C8,2*%
%TO.N,GND*%
X77550000Y-115040000D03*
%TD*%
%TO.P,C22,1*%
%TO.N,+5V*%
X58750000Y-116000000D03*
%TO.P,C22,2*%
%TO.N,GND*%
X56850000Y-116000000D03*
%TD*%
D38*
%TO.P,R17,1*%
%TO.N,/JOYSTICK*%
X49000000Y-103932500D03*
%TO.P,R17,2*%
%TO.N,Net-(C1-Pad1)*%
X49000000Y-102107500D03*
%TD*%
D24*
%TO.P,R13,1*%
%TO.N,Net-(Q4-G)*%
X67912500Y-102540000D03*
%TO.P,R13,2*%
%TO.N,/BUZZ*%
X66087500Y-102540000D03*
%TD*%
D13*
%TO.P,J9,1,Pin_1*%
%TO.N,/3V3_PERIF*%
X54500000Y-92000000D03*
D14*
%TO.P,J9,2,Pin_2*%
%TO.N,GND*%
X54500000Y-89460000D03*
%TO.P,J9,3,Pin_3*%
%TO.N,/SCL*%
X54500000Y-86920000D03*
%TO.P,J9,4,Pin_4*%
%TO.N,/SDA*%
X54500000Y-84380000D03*
%TO.P,J9,5,Pin_5*%
%TO.N,/XDA*%
X54500000Y-81840000D03*
%TO.P,J9,6,Pin_6*%
%TO.N,/XCL*%
X54500000Y-79300000D03*
%TO.P,J9,7,Pin_7*%
%TO.N,GND*%
X54500000Y-76760000D03*
%TO.P,J9,8,Pin_8*%
%TO.N,/INT*%
X54500000Y-74220000D03*
%TD*%
D13*
%TO.P,J10,1,Pin_1*%
%TO.N,GND*%
X74540000Y-99500000D03*
D14*
%TO.P,J10,2,Pin_2*%
%TO.N,/TXD0*%
X72000000Y-99500000D03*
%TO.P,J10,3,Pin_3*%
%TO.N,/RXD0*%
X69460000Y-99500000D03*
%TD*%
D13*
%TO.P,JP1,1,A*%
%TO.N,GND*%
X74510000Y-95000000D03*
D14*
%TO.P,JP1,2,B*%
%TO.N,/BOOT*%
X71970000Y-95000000D03*
%TD*%
D24*
%TO.P,R5,1*%
%TO.N,Net-(U3-VCC)*%
X53325000Y-114540000D03*
%TO.P,R5,2*%
%TO.N,/4V2*%
X51500000Y-114540000D03*
%TD*%
D30*
%TO.P,C4,1*%
%TO.N,Net-(U2-EN)*%
X60500000Y-80550000D03*
%TO.P,C4,2*%
%TO.N,GND*%
X60500000Y-82450000D03*
%TD*%
D28*
%TO.P,R11,1*%
%TO.N,/LEDs*%
X71587500Y-82500000D03*
%TO.P,R11,2*%
%TO.N,Net-(Q7-B)*%
X73412500Y-82500000D03*
%TD*%
D39*
%TO.P,Q3,1,S*%
%TO.N,/B-*%
X63255000Y-105740000D03*
%TO.P,Q3,2,S*%
X61985000Y-105740000D03*
%TO.P,Q3,3,S*%
X60715000Y-105740000D03*
%TO.P,Q3,4,G*%
%TO.N,Net-(Q3-G)*%
X59445000Y-105740000D03*
D40*
%TO.P,Q3,5,D*%
%TO.N,unconnected-(Q2-D-Pad5)*%
X61350000Y-101790000D03*
%TD*%
D30*
%TO.P,C_out2,1*%
%TO.N,/3V3_PERIF_LOW*%
X75500000Y-90000000D03*
%TO.P,C_out2,2*%
%TO.N,GND*%
X75500000Y-91900000D03*
%TD*%
D41*
%TO.P,TP4056,1,TEMP*%
%TO.N,GND*%
X65213348Y-113065001D03*
%TO.P,TP4056,2,PROG*%
%TO.N,Net-(TP4056A-PROG)*%
X65213348Y-113714999D03*
%TO.P,TP4056,3,GND*%
%TO.N,GND*%
X65213348Y-114365001D03*
%TO.P,TP4056,4,VCC*%
%TO.N,+5V*%
X65213348Y-115014999D03*
%TO.P,TP4056,5,BAT*%
%TO.N,/4V2*%
X60786652Y-115014999D03*
%TO.P,TP4056,6,/STDBY*%
%TO.N,/STDBY_LED*%
X60786652Y-114365001D03*
%TO.P,TP4056,7,/CHRG*%
%TO.N,/CHRG_LED*%
X60786652Y-113714999D03*
%TO.P,TP4056,8,CE*%
%TO.N,+5V*%
X60786652Y-113065001D03*
%TD*%
D42*
%TO.P,Q4,1,G*%
%TO.N,Net-(Q4-G)*%
X68125000Y-106490000D03*
%TO.P,Q4,2,S*%
%TO.N,GND*%
X68125000Y-104590000D03*
%TO.P,Q4,3,D*%
%TO.N,Net-(BZ1--)*%
X70000000Y-105540000D03*
%TD*%
D38*
%TO.P,R18,1*%
%TO.N,Net-(Joystick1-P4)*%
X55000000Y-100345000D03*
%TO.P,R18,2*%
%TO.N,/JOYSTICK*%
X55000000Y-98520000D03*
%TD*%
D28*
%TO.P,R9,1*%
%TO.N,/LEDs*%
X71587500Y-85500000D03*
%TO.P,R9,2*%
%TO.N,Net-(Q6-B)*%
X73412500Y-85500000D03*
%TD*%
D24*
%TO.P,R7,1*%
%TO.N,Net-(D1-K)*%
X75500000Y-105000000D03*
%TO.P,R7,2*%
%TO.N,/CHRG_LED*%
X73675000Y-105000000D03*
%TD*%
D25*
%TO.P,R21,1*%
%TO.N,/SDA*%
X78500000Y-106627500D03*
%TO.P,R21,2*%
%TO.N,Net-(IC1-VDD)*%
X78500000Y-108452500D03*
%TD*%
D43*
%TO.N,/3V3_PERIF_LOW*%
X63170800Y-95154800D03*
X77023900Y-91685000D03*
%TO.N,GND*%
X65073600Y-109231500D03*
X61830000Y-87170800D03*
%TO.N,Net-(U2-EN)*%
X59119500Y-79006500D03*
%TO.N,/3V3*%
X51180000Y-83660000D03*
X51247800Y-94803900D03*
X59765100Y-75981200D03*
%TO.N,/4V2*%
X55341200Y-115361800D03*
X58827200Y-98037600D03*
%TO.N,/3V3_PERIF*%
X80500200Y-89405000D03*
%TO.N,Net-(D4-A)*%
X80576600Y-72146600D03*
X69289000Y-76261700D03*
X71450000Y-74360000D03*
%TO.N,/INT*%
X59244200Y-92797700D03*
X53794400Y-93476100D03*
%TO.N,/SCL*%
X69319300Y-86296100D03*
X73928100Y-74801100D03*
X86725000Y-74799000D03*
%TO.N,/SDA*%
X75178000Y-96799500D03*
X55556600Y-90454300D03*
X73239800Y-80795900D03*
X59743400Y-90566900D03*
X56721800Y-98821100D03*
X82201700Y-79292600D03*
%TO.N,Net-(Joystick1-P2)*%
X54020900Y-99487700D03*
%TO.N,Net-(Q5-G)*%
X81314500Y-93637000D03*
%TO.N,Net-(Q8-G)*%
X68519200Y-85069500D03*
%TO.N,/LEDs*%
X62087000Y-84064300D03*
%TO.N,/STDBY_LED*%
X72050800Y-102397900D03*
X63226300Y-114561100D03*
%TO.N,/CHRG_LED*%
X62720800Y-113784800D03*
X71812200Y-104365000D03*
%TO.N,/BUZZ*%
X76307900Y-98301200D03*
%TO.N,/CONT_PERIF*%
X59601300Y-87960900D03*
%TO.N,/CONT_PERIF_LOW*%
X66472400Y-77394500D03*
X66190000Y-75390000D03*
X68409000Y-87234800D03*
%TO.N,/CS*%
X76628300Y-79424400D03*
X71987600Y-76794500D03*
X59108600Y-83077400D03*
X73920000Y-81274600D03*
X77431700Y-77252000D03*
%TO.N,/DC*%
X71261400Y-84002800D03*
%TO.N,/SCL_SCK*%
X76442900Y-85179800D03*
%TO.N,/RST*%
X72464900Y-83431300D03*
%TO.N,/SDA_MOSI*%
X52194300Y-72323500D03*
X73759200Y-73276500D03*
%TD*%
D44*
%TO.N,/3V3_PERIF_LOW*%
X74668900Y-90161100D02*
X75500000Y-90161100D01*
X50773900Y-94202200D02*
X49651700Y-93080000D01*
X62218200Y-94202200D02*
X50773900Y-94202200D01*
X77023900Y-91470000D02*
X76860000Y-91306100D01*
X74525000Y-90305000D02*
X74668900Y-90161100D01*
X76441100Y-90161100D02*
X75500000Y-90161100D01*
X76860000Y-90580000D02*
X76441100Y-90161100D01*
X63170800Y-95154800D02*
X62218200Y-94202200D01*
X48500000Y-93080000D02*
X49651700Y-93080000D01*
X77023900Y-91685000D02*
X77023900Y-91470000D01*
X63170800Y-95154800D02*
X66825800Y-91499800D01*
X66825800Y-91499800D02*
X74009944Y-91499800D01*
X74009944Y-91499800D02*
X74525000Y-90984744D01*
X75500000Y-90161100D02*
X75500000Y-90000000D01*
X74525000Y-90984744D02*
X74525000Y-90305000D01*
X76860000Y-91306100D02*
X76860000Y-90580000D01*
%TO.N,Net-(BZ1--)*%
X70000000Y-107540000D02*
X71000000Y-108540000D01*
X70000000Y-105540000D02*
X70000000Y-107540000D01*
%TO.N,GND*%
X50480000Y-89460000D02*
X54500000Y-89460000D01*
X54500000Y-76760000D02*
X54500000Y-76090000D01*
X79961700Y-90170000D02*
X81122000Y-90170000D01*
X69600000Y-114810000D02*
X69155000Y-114365000D01*
X75713100Y-96170000D02*
X78410000Y-96170000D01*
X69039900Y-95051300D02*
X70161800Y-96173200D01*
X76328300Y-99500000D02*
X74540000Y-99500000D01*
X83910000Y-90170000D02*
X82358300Y-90170000D01*
X67093100Y-104590000D02*
X65625000Y-104590000D01*
X65073600Y-109231500D02*
X65110300Y-109268100D01*
X60500000Y-81770000D02*
X60080000Y-81350000D01*
X83716700Y-105806700D02*
X85000000Y-107090000D01*
X71210500Y-101537300D02*
X67367300Y-101537300D01*
X65213300Y-113065000D02*
X69125000Y-113065000D01*
X60500000Y-87000000D02*
X61659200Y-87000000D01*
X51397600Y-95505000D02*
X51604300Y-95298300D01*
X60080000Y-81350000D02*
X59790256Y-81350000D01*
X78410000Y-91860000D02*
X78410000Y-90170000D01*
X49450000Y-114040000D02*
X49250000Y-114040000D01*
X77414800Y-105806700D02*
X83716700Y-105806700D01*
X75886700Y-92286700D02*
X77983300Y-92286700D01*
X47130000Y-93440000D02*
X49986400Y-96296400D01*
X61659200Y-87000000D02*
X61830000Y-87170800D01*
X60500000Y-82450000D02*
X60500000Y-81770000D01*
X48425000Y-108077200D02*
X48425000Y-107000000D01*
X49075900Y-90540000D02*
X48420000Y-90540000D01*
X49195000Y-95505000D02*
X51397600Y-95505000D01*
X65110300Y-109268100D02*
X63338400Y-111040000D01*
X63500000Y-73050000D02*
X60500000Y-73050000D01*
X83910000Y-98970000D02*
X78410000Y-98970000D01*
X74540000Y-101130000D02*
X74132700Y-101537300D01*
X69125000Y-112745000D02*
X69600000Y-112270000D01*
X70810000Y-104213600D02*
X73376400Y-106780000D01*
X54500000Y-77640000D02*
X54500000Y-76760000D01*
X69125000Y-113065000D02*
X69600000Y-113540000D01*
X73500000Y-92400000D02*
X73540000Y-92360000D01*
X74510000Y-95000000D02*
X75085900Y-95000000D01*
X59790256Y-81350000D02*
X58830000Y-80389744D01*
X54500000Y-76090000D02*
X57540000Y-73050000D01*
X69155000Y-113985000D02*
X69155000Y-114365000D01*
X71210500Y-101537300D02*
X71210500Y-102019500D01*
X75085900Y-95000000D02*
X75085900Y-93985900D01*
X64070900Y-96901700D02*
X64972600Y-96000000D01*
X57249744Y-80389744D02*
X54500000Y-77640000D01*
X78410000Y-98970000D02*
X76858300Y-98970000D01*
X49450000Y-114710000D02*
X49450000Y-114040000D01*
X75085900Y-95000000D02*
X75661700Y-95000000D01*
X57540000Y-73050000D02*
X60500000Y-73050000D01*
X77983300Y-92286700D02*
X78410000Y-91860000D01*
X76441500Y-106780000D02*
X77414800Y-105806700D01*
X74540000Y-99500000D02*
X74540000Y-101130000D01*
X77178300Y-115411700D02*
X70201700Y-115411700D01*
X81122000Y-90170000D02*
X82358300Y-90170000D01*
X75607100Y-96173200D02*
X75661700Y-96118600D01*
X48121400Y-112911400D02*
X47405300Y-112911400D01*
X70201700Y-115411700D02*
X69600000Y-114810000D01*
X48420000Y-90540000D02*
X47130000Y-91830000D01*
X68125000Y-104590000D02*
X67093100Y-104590000D01*
X65110300Y-109268200D02*
X65110300Y-109268100D01*
X67000000Y-109040000D02*
X65558300Y-109040000D01*
X69155000Y-114365000D02*
X65213300Y-114365000D01*
X50740000Y-116000000D02*
X49450000Y-114710000D01*
X67093100Y-101811500D02*
X67093100Y-104590000D01*
X56850000Y-116000000D02*
X50740000Y-116000000D01*
X47130000Y-91830000D02*
X47130000Y-93440000D01*
X77550000Y-115040000D02*
X77178300Y-115411700D01*
X47405300Y-112911400D02*
X46955000Y-112461100D01*
X59298300Y-95298300D02*
X60000000Y-96000000D01*
X73376400Y-106780000D02*
X76441500Y-106780000D01*
X70161800Y-96173200D02*
X75607100Y-96173200D01*
X49250000Y-114040000D02*
X48121400Y-112911400D01*
X63338400Y-111040000D02*
X62912500Y-111040000D01*
X81122000Y-89110300D02*
X79551700Y-87540000D01*
X69125000Y-113065000D02*
X69125000Y-112745000D01*
X81122000Y-90170000D02*
X81122000Y-89110300D01*
X58830000Y-80389744D02*
X57249744Y-80389744D01*
X75500000Y-91900000D02*
X75886700Y-92286700D01*
X49075900Y-90540000D02*
X49400000Y-90540000D01*
X65921300Y-95051300D02*
X69039900Y-95051300D01*
X65558300Y-109040000D02*
X65330100Y-109268200D01*
X60901700Y-96901700D02*
X64070900Y-96901700D01*
X74132700Y-101537300D02*
X71210500Y-101537300D01*
X69600000Y-113540000D02*
X69155000Y-113985000D01*
X51604300Y-95298300D02*
X59298300Y-95298300D01*
X78500000Y-87540000D02*
X79551700Y-87540000D01*
X79185900Y-90170000D02*
X79961700Y-90170000D01*
X79185900Y-90170000D02*
X78410000Y-90170000D01*
X48500000Y-90540000D02*
X49075900Y-90540000D01*
X60000000Y-96000000D02*
X60901700Y-96901700D01*
X76858300Y-98970000D02*
X76328300Y-99500000D01*
X49400000Y-90540000D02*
X50480000Y-89460000D01*
X75085900Y-93985900D02*
X73500000Y-92400000D01*
X75661700Y-95000000D02*
X75661700Y-96118600D01*
X79050000Y-113540000D02*
X77550000Y-115040000D01*
X46955000Y-109547200D02*
X48425000Y-108077200D01*
X65625000Y-104590000D02*
X65500000Y-104715000D01*
X49986400Y-97496100D02*
X49986400Y-96296400D01*
X49000000Y-98482500D02*
X49986400Y-97496100D01*
X70810000Y-102420000D02*
X70810000Y-104213600D01*
X46955000Y-112461100D02*
X46955000Y-109547200D01*
X73540000Y-92360000D02*
X75040000Y-92360000D01*
X64255000Y-81790000D02*
X64240000Y-81775000D01*
X64972600Y-96000000D02*
X65921300Y-95051300D01*
X65640000Y-81775000D02*
X65625000Y-81790000D01*
X75040000Y-92360000D02*
X75500000Y-91900000D01*
X71210500Y-102019500D02*
X70810000Y-102420000D01*
X65330100Y-109268200D02*
X65110300Y-109268200D01*
X75661700Y-96118600D02*
X75713100Y-96170000D01*
X67367300Y-101537300D02*
X67093100Y-101811500D01*
X80960000Y-113540000D02*
X79050000Y-113540000D01*
%TO.N,/JOYSTICK*%
X53420900Y-99738500D02*
X53532400Y-99850000D01*
X53419200Y-98520000D02*
X52500000Y-98520000D01*
X55000000Y-98520000D02*
X54820000Y-98700000D01*
X52412500Y-103932500D02*
X52500000Y-103845000D01*
X47420000Y-99005300D02*
X47956600Y-99541900D01*
X53590000Y-99070071D02*
X53420900Y-99239171D01*
X48425000Y-96500000D02*
X47420000Y-97505000D01*
X53420900Y-99239171D02*
X53420900Y-99738500D01*
X53599200Y-98700000D02*
X53419200Y-98520000D01*
X47956600Y-99541900D02*
X47500000Y-99998500D01*
X47500000Y-103150000D02*
X48282500Y-103932500D01*
X51491900Y-101182500D02*
X49779400Y-99470000D01*
X47420000Y-97505000D02*
X47420000Y-99005300D01*
X55000000Y-103845000D02*
X52500000Y-103845000D01*
X47500000Y-99998500D02*
X47500000Y-103150000D01*
X48028500Y-99470000D02*
X47956600Y-99541900D01*
X53590000Y-98690800D02*
X53590000Y-99070071D01*
X54820000Y-98700000D02*
X53599200Y-98700000D01*
X49779400Y-99470000D02*
X48028500Y-99470000D01*
X53532400Y-100819800D02*
X53169700Y-101182500D01*
X53169700Y-101182500D02*
X51491900Y-101182500D01*
X48282500Y-103932500D02*
X49000000Y-103932500D01*
X53532400Y-99850000D02*
X53532400Y-100819800D01*
X53419200Y-98520000D02*
X53590000Y-98690800D01*
X49000000Y-103932500D02*
X52412500Y-103932500D01*
%TO.N,Net-(U3-VCC)*%
X51695000Y-112910000D02*
X53325000Y-114540000D01*
X48000000Y-111990000D02*
X48000000Y-111430000D01*
X48000000Y-111990000D02*
X48920000Y-112910000D01*
X48920000Y-112910000D02*
X51695000Y-112910000D01*
X48265000Y-111165000D02*
X50725000Y-111165000D01*
X48000000Y-111430000D02*
X48265000Y-111165000D01*
%TO.N,/B-*%
X55626700Y-108201700D02*
X58830600Y-104997800D01*
X51520000Y-109614200D02*
X52932500Y-108201700D01*
X51826100Y-110646100D02*
X51395000Y-110215000D01*
X51395000Y-110215000D02*
X50725000Y-110215000D01*
X63255000Y-105740000D02*
X61985000Y-105740000D01*
X51826100Y-112266700D02*
X51826100Y-110646100D01*
X48000000Y-110090000D02*
X49300000Y-110090000D01*
X52932500Y-108201700D02*
X55626700Y-108201700D01*
X56450000Y-114000000D02*
X55298300Y-112848300D01*
X55298300Y-112848300D02*
X52407700Y-112848300D01*
X59972800Y-104997800D02*
X60715000Y-105740000D01*
X49585800Y-109614200D02*
X51520000Y-109614200D01*
X52407700Y-112848300D02*
X51826100Y-112266700D01*
X60715000Y-105740000D02*
X61985000Y-105740000D01*
X50600000Y-110090000D02*
X50725000Y-110215000D01*
X49300000Y-109900000D02*
X49585800Y-109614200D01*
X49300000Y-110090000D02*
X49300000Y-109900000D01*
X58830600Y-104997800D02*
X59972800Y-104997800D01*
X49300000Y-110090000D02*
X50600000Y-110090000D01*
%TO.N,Net-(U2-EN)*%
X60406000Y-79006500D02*
X60500000Y-78912500D01*
X59119500Y-79006500D02*
X60406000Y-79006500D01*
X60500000Y-80550000D02*
X60500000Y-78912500D01*
%TO.N,/3V3*%
X60500000Y-77087500D02*
X60500000Y-75981200D01*
X60500000Y-75981200D02*
X60500000Y-74950000D01*
X60500000Y-77087500D02*
X61680000Y-78267500D01*
X66586500Y-92677500D02*
X63264000Y-96000000D01*
X60851700Y-83679100D02*
X60500000Y-83679100D01*
X60500000Y-75981200D02*
X59765100Y-75981200D01*
X51180000Y-83660000D02*
X51620800Y-83219200D01*
X61680000Y-78267500D02*
X61680000Y-82850800D01*
X61098300Y-95774600D02*
X60127600Y-94803900D01*
X61680000Y-82850800D02*
X60851700Y-83679100D01*
X60127600Y-94803900D02*
X51247800Y-94803900D01*
X62000000Y-96000000D02*
X61098300Y-96000000D01*
X60500000Y-85100000D02*
X60500000Y-83679100D01*
X58859500Y-83679100D02*
X60500000Y-83679100D01*
X63500000Y-74950000D02*
X60500000Y-74950000D01*
X67397500Y-92677500D02*
X66586500Y-92677500D01*
X61098300Y-96000000D02*
X61098300Y-95774600D01*
X58399600Y-83219200D02*
X58859500Y-83679100D01*
X51620800Y-83219200D02*
X58399600Y-83219200D01*
X63264000Y-96000000D02*
X62000000Y-96000000D01*
%TO.N,Net-(IC1-VDD)*%
X79750000Y-111000000D02*
X82790000Y-114040000D01*
X83587500Y-114622500D02*
X83587500Y-114040000D01*
X78420000Y-111000000D02*
X79750000Y-111000000D01*
X82790000Y-114040000D02*
X83587500Y-114040000D01*
X78500000Y-110920000D02*
X78500000Y-108452500D01*
X78420000Y-111000000D02*
X78500000Y-110920000D01*
X79450000Y-115040000D02*
X83170000Y-115040000D01*
X83170000Y-115040000D02*
X83587500Y-114622500D01*
%TO.N,+5V*%
X64249200Y-115015000D02*
X64249200Y-114733100D01*
X86066400Y-103566400D02*
X85500000Y-103000000D01*
X82578200Y-94910200D02*
X85461700Y-97793700D01*
X86227800Y-111157800D02*
X85000000Y-109930000D01*
X85000000Y-109930000D02*
X85000000Y-108990000D01*
X80714500Y-93885529D02*
X81739171Y-94910200D01*
X63262700Y-116000000D02*
X58750000Y-116000000D01*
X64247700Y-115015000D02*
X63262700Y-116000000D01*
X66178900Y-115015000D02*
X67237100Y-116073200D01*
X67237100Y-116073200D02*
X84901800Y-116073200D01*
X62699200Y-113183100D02*
X62581100Y-113065000D01*
X64249200Y-114733100D02*
X63322500Y-113806400D01*
X85500000Y-103000000D02*
X84298300Y-101798300D01*
X80060000Y-92970000D02*
X80714500Y-93624500D01*
X84298300Y-101798300D02*
X81701700Y-101798300D01*
X64249200Y-115015000D02*
X64247700Y-115015000D01*
X85750000Y-108990000D02*
X86066400Y-108673600D01*
X63322500Y-113535600D02*
X62970000Y-113183100D01*
X81701700Y-101798300D02*
X80500000Y-103000000D01*
X80714500Y-93624500D02*
X80714500Y-93885529D01*
X85461700Y-97793700D02*
X85461700Y-100634900D01*
X85461700Y-100634900D02*
X84298300Y-101798300D01*
X63322500Y-113806400D02*
X63322500Y-113535600D01*
X81739171Y-94910200D02*
X82578200Y-94910200D01*
X78410000Y-92970000D02*
X80060000Y-92970000D01*
X85000000Y-108990000D02*
X85750000Y-108990000D01*
X84901800Y-116073200D02*
X86227800Y-114747200D01*
X64249200Y-115015000D02*
X66178900Y-115015000D01*
X86066400Y-108673600D02*
X86066400Y-103566400D01*
X62581100Y-113065000D02*
X60786600Y-113065000D01*
X62970000Y-113183100D02*
X62699200Y-113183100D01*
X86227800Y-114747200D02*
X86227800Y-111157800D01*
%TO.N,/4V2*%
X66972600Y-96000000D02*
X66070900Y-96000000D01*
X59821000Y-115015000D02*
X59555800Y-114749800D01*
X58455900Y-112355900D02*
X57600000Y-111500000D01*
X49610400Y-117030400D02*
X47550000Y-114970000D01*
X66070900Y-96223300D02*
X64256700Y-98037500D01*
X55341200Y-115361800D02*
X55132500Y-115570500D01*
X52530500Y-115570500D02*
X51500000Y-114540000D01*
X59555800Y-114749800D02*
X58455900Y-114749800D01*
X64256700Y-98037500D02*
X58827200Y-98037500D01*
X58827200Y-98037500D02*
X58827200Y-98037600D01*
X47550000Y-114970000D02*
X47550000Y-114040000D01*
X57391700Y-117030400D02*
X49610400Y-117030400D01*
X58455900Y-114749800D02*
X58455900Y-112355900D01*
X58455900Y-114749800D02*
X57875500Y-115330200D01*
X57600000Y-111500000D02*
X56450000Y-111500000D01*
X66070900Y-96000000D02*
X66070900Y-96223300D01*
X57875500Y-115330200D02*
X57875500Y-116546600D01*
X60786600Y-115015000D02*
X59821000Y-115015000D01*
X57875500Y-116546600D02*
X57391700Y-117030400D01*
X55132500Y-115570500D02*
X52530500Y-115570500D01*
%TO.N,/3V3_PERIF*%
X80500200Y-89405000D02*
X79933300Y-88838100D01*
X54500000Y-92000000D02*
X55651700Y-92000000D01*
X71142100Y-90767800D02*
X71242100Y-90667800D01*
X71242100Y-90667800D02*
X71408400Y-90501500D01*
X75074200Y-88838100D02*
X73500000Y-90412300D01*
X71408400Y-90501500D02*
X73498500Y-90501500D01*
X60393400Y-90767800D02*
X71142100Y-90767800D01*
X55651700Y-92000000D02*
X59161200Y-92000000D01*
X59161200Y-92000000D02*
X60393400Y-90767800D01*
X73500000Y-90412300D02*
X73500000Y-90500000D01*
X73498500Y-90501500D02*
X73500000Y-90500000D01*
X79933300Y-88838100D02*
X75074200Y-88838100D01*
X71242100Y-90667800D02*
X71408400Y-90501500D01*
%TO.N,Net-(C1-Pad1)*%
X49000000Y-100382500D02*
X49000000Y-102107500D01*
%TO.N,Net-(D1-K)*%
X82960000Y-104320000D02*
X82960000Y-103000000D01*
X75500000Y-105000000D02*
X82280000Y-105000000D01*
X82280000Y-105000000D02*
X82960000Y-104320000D01*
%TO.N,Net-(D2-K)*%
X77960000Y-103000000D02*
X75412500Y-103000000D01*
%TO.N,Net-(D4-K)*%
X84140000Y-85190000D02*
X83104600Y-85190000D01*
X79551700Y-85000000D02*
X79741700Y-85190000D01*
X78500000Y-85000000D02*
X79551700Y-85000000D01*
X79741700Y-85190000D02*
X83104600Y-85190000D01*
%TO.N,Net-(D4-A)*%
X69218700Y-76332000D02*
X68246000Y-76332000D01*
X71771200Y-74038800D02*
X74124500Y-74038800D01*
X71450000Y-74360000D02*
X71771200Y-74038800D01*
X67474100Y-78055600D02*
X68500000Y-79081500D01*
X76016700Y-72146600D02*
X80576600Y-72146600D01*
X67474100Y-77103900D02*
X67474100Y-78055600D01*
X69289000Y-76261700D02*
X69218700Y-76332000D01*
X68246000Y-76332000D02*
X67474100Y-77103900D01*
X74124500Y-74038800D02*
X76016700Y-72146600D01*
X68500000Y-79081500D02*
X68500000Y-79412500D01*
%TO.N,Net-(D5-K)*%
X80146700Y-79955000D02*
X82938300Y-79955000D01*
X84140000Y-79955000D02*
X82938300Y-79955000D01*
X79691700Y-79500000D02*
X80146700Y-79955000D01*
X78640000Y-79500000D02*
X79691700Y-79500000D01*
%TO.N,Net-(D5-A)*%
X84140000Y-82495000D02*
X85348200Y-81286800D01*
X85348200Y-78902600D02*
X84701100Y-78255500D01*
X84701100Y-78255500D02*
X76298300Y-78255500D01*
X71767600Y-80180100D02*
X71000000Y-79412500D01*
X85348200Y-81286800D02*
X85348200Y-78902600D01*
X74373700Y-80180100D02*
X71767600Y-80180100D01*
X76298300Y-78255500D02*
X74373700Y-80180100D01*
%TO.N,Net-(D6-A)*%
X83281200Y-77853800D02*
X74971200Y-77853800D01*
X84140000Y-76995000D02*
X83281200Y-77853800D01*
X74971200Y-77853800D02*
X73500000Y-79325000D01*
%TO.N,Net-(D6-K)*%
X79561700Y-73870000D02*
X80146700Y-74455000D01*
X78510000Y-73870000D02*
X79561700Y-73870000D01*
X80146700Y-74455000D02*
X82938300Y-74455000D01*
X84140000Y-74455000D02*
X82938300Y-74455000D01*
%TO.N,/INT*%
X58565800Y-93476100D02*
X53794400Y-93476100D01*
X59244200Y-92797700D02*
X58565800Y-93476100D01*
%TO.N,/SCL*%
X60158900Y-89563500D02*
X58806000Y-89563500D01*
X60559800Y-89964400D02*
X60158900Y-89563500D01*
X68496900Y-86296100D02*
X66727700Y-88065300D01*
X66727700Y-88065300D02*
X66727700Y-89228100D01*
X85412500Y-114040000D02*
X85412500Y-113232500D01*
X83500000Y-112240000D02*
X83500000Y-111000000D01*
X65991400Y-89964400D02*
X60559800Y-89964400D01*
X85412500Y-113232500D02*
X85120000Y-112940000D01*
X56162500Y-86920000D02*
X54500000Y-86920000D01*
X73930200Y-74801100D02*
X75693000Y-73038300D01*
X75693000Y-73038300D02*
X84964300Y-73038300D01*
X84200000Y-112940000D02*
X83500000Y-112240000D01*
X58806000Y-89563500D02*
X56162500Y-86920000D01*
X66727700Y-89228100D02*
X65991400Y-89964400D01*
X84964300Y-73038300D02*
X86725000Y-74799000D01*
X85120000Y-112940000D02*
X84200000Y-112940000D01*
X73928100Y-74801100D02*
X73930200Y-74801100D01*
X69319300Y-86296100D02*
X68496900Y-86296100D01*
%TO.N,/SDA*%
X79857500Y-106627500D02*
X78500000Y-106627500D01*
X76535300Y-78657200D02*
X74532200Y-80660300D01*
X55556600Y-90454300D02*
X55375700Y-90635200D01*
X74532200Y-80660300D02*
X73375400Y-80660300D01*
X56721800Y-98821100D02*
X66283900Y-98821100D01*
X59743400Y-90566900D02*
X55669200Y-90566900D01*
X55375700Y-90635200D02*
X55556600Y-90454300D01*
X81566300Y-78657200D02*
X76535300Y-78657200D01*
X73375400Y-80660300D02*
X73239800Y-80795900D01*
X80960000Y-107730000D02*
X79857500Y-106627500D01*
X80960000Y-108460000D02*
X80960000Y-107730000D01*
X68305500Y-96799500D02*
X75178000Y-96799500D01*
X55669200Y-90566900D02*
X55556600Y-90454300D01*
X82201700Y-79292600D02*
X81566300Y-78657200D01*
X66283900Y-98821100D02*
X68305500Y-96799500D01*
%TO.N,Net-(Joystick1-P5)*%
X55134700Y-105277600D02*
X56003800Y-104408500D01*
X53326700Y-106774700D02*
X54823800Y-105277600D01*
X56003800Y-104408500D02*
X56003800Y-103354800D01*
X54823800Y-105277600D02*
X55134700Y-105277600D01*
X52125000Y-107000000D02*
X53326700Y-107000000D01*
X56003800Y-103354800D02*
X55000000Y-102351000D01*
X53326700Y-107000000D02*
X53326700Y-106774700D01*
X55000000Y-102351000D02*
X55000000Y-102020000D01*
%TO.N,Net-(Joystick1-P2)*%
X54020900Y-99487700D02*
X53965700Y-99542900D01*
X53965700Y-101394300D02*
X53340000Y-102020000D01*
X53965700Y-99542900D02*
X53965700Y-101394300D01*
X53340000Y-102020000D02*
X52500000Y-102020000D01*
%TO.N,Net-(Joystick1-P1)*%
X54925000Y-96500000D02*
X54795000Y-96630000D01*
X54795000Y-96630000D02*
X53743600Y-96630000D01*
X52671900Y-97701700D02*
X51779200Y-97701700D01*
X51467900Y-98013000D02*
X51467900Y-99877900D01*
X53743600Y-96630000D02*
X52671900Y-97701700D01*
X51935000Y-100345000D02*
X52500000Y-100345000D01*
X51467900Y-99877900D02*
X51935000Y-100345000D01*
X51779200Y-97701700D02*
X51467900Y-98013000D01*
%TO.N,Net-(Joystick1-P4)*%
X54925000Y-107000000D02*
X54925000Y-105798300D01*
X55209000Y-105798300D02*
X56405500Y-104601800D01*
X56003800Y-101348800D02*
X55000000Y-100345000D01*
X56170100Y-102829600D02*
X56003800Y-102663300D01*
X56003800Y-102663300D02*
X56003800Y-101348800D01*
X56405500Y-103065000D02*
X56170100Y-102829600D01*
X56405500Y-104601800D02*
X56405500Y-103065000D01*
X56170100Y-102829600D02*
X56003800Y-102663300D01*
X54925000Y-105798300D02*
X55209000Y-105798300D01*
%TO.N,Net-(Q1-B)*%
X75642500Y-86270000D02*
X78500000Y-86270000D01*
X73412500Y-88500000D02*
X75642500Y-86270000D01*
%TO.N,Net-(Q2-G)*%
X63417200Y-112080600D02*
X59910600Y-112080600D01*
X68632300Y-110032300D02*
X65465500Y-110032300D01*
X58175400Y-110345400D02*
X55465300Y-110345400D01*
X69600000Y-111000000D02*
X68632300Y-110032300D01*
X53695700Y-112115000D02*
X53000000Y-112115000D01*
X55465300Y-110345400D02*
X53695700Y-112115000D01*
X59910600Y-112080600D02*
X58175400Y-110345400D01*
X65465500Y-110032300D02*
X63417200Y-112080600D01*
%TO.N,unconnected-(Q2-D-Pad5)*%
X64500000Y-102420000D02*
X64500000Y-107082800D01*
X63870000Y-101790000D02*
X64500000Y-102420000D01*
X67387800Y-107733200D02*
X70973300Y-111318700D01*
X64500000Y-107082800D02*
X65150400Y-107733200D01*
X61350000Y-101790000D02*
X63870000Y-101790000D01*
X70973300Y-111318700D02*
X70973300Y-112905000D01*
X65150400Y-107733200D02*
X67387800Y-107733200D01*
X70973300Y-112905000D02*
X73550000Y-112905000D01*
%TO.N,Net-(Q3-G)*%
X53725000Y-110215000D02*
X54720000Y-109220000D01*
X53000000Y-110215000D02*
X53725000Y-110215000D01*
X57250000Y-109220000D02*
X59445000Y-107025000D01*
X59445000Y-107025000D02*
X59445000Y-105740000D01*
X54720000Y-109220000D02*
X57250000Y-109220000D01*
%TO.N,Net-(Q4-G)*%
X68125000Y-106037800D02*
X68125000Y-106490000D01*
X65550000Y-106490000D02*
X65500000Y-106540000D01*
X69211300Y-104951500D02*
X68125000Y-106037800D01*
X68125000Y-106490000D02*
X65550000Y-106490000D01*
X69211300Y-103838800D02*
X69211300Y-104951500D01*
X67912500Y-102540000D02*
X69211300Y-103838800D01*
%TO.N,Net-(Q5-G)*%
X73518400Y-86897300D02*
X76472600Y-83943100D01*
X76472600Y-83943100D02*
X85228800Y-83943100D01*
X85466900Y-91332000D02*
X83161900Y-93637000D01*
X69825000Y-88500000D02*
X71427700Y-86897300D01*
X85466900Y-84181200D02*
X85466900Y-91332000D01*
X71427700Y-86897300D02*
X73518400Y-86897300D01*
X83161900Y-93637000D02*
X81314500Y-93637000D01*
X85228800Y-83943100D02*
X85466900Y-84181200D01*
%TO.N,Net-(Q6-B)*%
X73412500Y-84587500D02*
X77230000Y-80770000D01*
X73412500Y-85500000D02*
X73412500Y-84587500D01*
X77230000Y-80770000D02*
X78640000Y-80770000D01*
%TO.N,Net-(Q7-B)*%
X70531100Y-80761100D02*
X70489200Y-80719200D01*
X72134600Y-75694800D02*
X76903500Y-75694800D01*
X72121200Y-75708200D02*
X72134600Y-75694800D01*
X72134600Y-75694800D02*
X72121200Y-75708200D01*
X72073000Y-75660000D02*
X72121200Y-75708200D01*
X68257200Y-80719200D02*
X67474100Y-79936100D01*
X73412500Y-82216000D02*
X71957600Y-80761100D01*
X73412500Y-82500000D02*
X73412500Y-82216000D01*
X70489200Y-80719200D02*
X68257200Y-80719200D01*
X67072400Y-78367500D02*
X67072400Y-76937600D01*
X71957600Y-80761100D02*
X70531100Y-80761100D01*
X67307800Y-78602900D02*
X67474100Y-78769200D01*
X76903500Y-75694800D02*
X77458300Y-75140000D01*
X67072400Y-76937600D02*
X68350000Y-75660000D01*
X77458300Y-75140000D02*
X78510000Y-75140000D01*
X67474100Y-79936100D02*
X67474100Y-78769200D01*
X68350000Y-75660000D02*
X72073000Y-75660000D01*
X67474100Y-78769200D02*
X67072400Y-78367500D01*
%TO.N,Net-(Q8-G)*%
X65912500Y-88500000D02*
X65912500Y-87676200D01*
X65912500Y-87676200D02*
X68519200Y-85069500D01*
%TO.N,Net-(R10-Pad1)*%
X71000000Y-77587500D02*
X73412500Y-77587500D01*
X73412500Y-77587500D02*
X73500000Y-77500000D01*
X68500000Y-77587500D02*
X71000000Y-77587500D01*
%TO.N,/LEDs*%
X70533300Y-89554200D02*
X69370900Y-89554200D01*
X71268700Y-85500000D02*
X71587500Y-85500000D01*
X67456200Y-84002000D02*
X68958200Y-82500000D01*
X69009800Y-87758900D02*
X71268700Y-85500000D01*
X68958200Y-82500000D02*
X71587500Y-82500000D01*
X62399800Y-84002000D02*
X67456200Y-84002000D01*
X71863100Y-82775600D02*
X71587500Y-82500000D01*
X71587500Y-88500000D02*
X70533300Y-89554200D01*
X69009800Y-89193100D02*
X69009800Y-87758900D01*
X62087000Y-84064300D02*
X62337500Y-84064300D01*
X71587500Y-85500000D02*
X71863100Y-85224400D01*
X69370900Y-89554200D02*
X69009800Y-89193100D01*
X71863100Y-85224400D02*
X71863100Y-82775600D01*
X62337500Y-84064300D02*
X62399800Y-84002000D01*
%TO.N,Net-(U3-CS)*%
X58790500Y-109890500D02*
X55045300Y-109890500D01*
X55045300Y-109890500D02*
X53770800Y-111165000D01*
X59940000Y-111040000D02*
X58790500Y-109890500D01*
X53770800Y-111165000D02*
X53000000Y-111165000D01*
X61087500Y-111040000D02*
X59940000Y-111040000D01*
%TO.N,/STDBY_LED*%
X60786600Y-114365000D02*
X62450200Y-114365000D01*
X62450200Y-114365000D02*
X62471700Y-114386500D01*
X73587500Y-103000000D02*
X72652900Y-103000000D01*
X62991500Y-114365000D02*
X63030200Y-114365000D01*
X63030200Y-114365000D02*
X63226300Y-114561100D01*
X72652900Y-103000000D02*
X72050800Y-102397900D01*
X62970000Y-114386500D02*
X62991500Y-114365000D01*
X62471700Y-114386500D02*
X62970000Y-114386500D01*
%TO.N,/CHRG_LED*%
X73675000Y-105000000D02*
X73040000Y-104365000D01*
X60856400Y-113784800D02*
X60786600Y-113715000D01*
X62720800Y-113784800D02*
X60856400Y-113784800D01*
X73040000Y-104365000D02*
X71812200Y-104365000D01*
%TO.N,Net-(TP4056A-PROG)*%
X65213300Y-113715000D02*
X64135000Y-113715000D01*
X65645000Y-110865000D02*
X67000000Y-110865000D01*
X64135000Y-113715000D02*
X63770000Y-113350000D01*
X63770000Y-112740000D02*
X65645000Y-110865000D01*
X63770000Y-113350000D02*
X63770000Y-112740000D01*
%TO.N,/BUZZ*%
X70730000Y-99917900D02*
X69994400Y-100653500D01*
X76307900Y-98301200D02*
X71551900Y-98301200D01*
X71551900Y-98301200D02*
X70730000Y-99123100D01*
X66846500Y-100653500D02*
X66087500Y-101412500D01*
X70730000Y-99123100D02*
X70730000Y-99917900D01*
X69994400Y-100653500D02*
X66846500Y-100653500D01*
X66087500Y-101412500D02*
X66087500Y-102540000D01*
%TO.N,/BOOT*%
X71970000Y-95000000D02*
X70818300Y-95000000D01*
X70818300Y-94273300D02*
X70818300Y-95000000D01*
X69222500Y-92677500D02*
X70818300Y-94273300D01*
%TO.N,/CONT_PERIF*%
X63548400Y-87960900D02*
X59601300Y-87960900D01*
X64087500Y-88500000D02*
X63548400Y-87960900D01*
%TO.N,/CONT_PERIF_LOW*%
X68000000Y-88500000D02*
X68409000Y-88091000D01*
X66472400Y-75672400D02*
X66472400Y-77394500D01*
X66190000Y-75390000D02*
X66472400Y-75672400D01*
X68409000Y-88091000D02*
X68409000Y-87234800D01*
%TO.N,/CS*%
X59108600Y-83077400D02*
X56721200Y-80690000D01*
X59108600Y-83077400D02*
X59268700Y-82917300D01*
X72129100Y-76653000D02*
X71987600Y-76794500D01*
X76628300Y-79424400D02*
X74778100Y-81274600D01*
X76832700Y-76653000D02*
X72129100Y-76653000D01*
X56721200Y-80690000D02*
X54023654Y-80690000D01*
X54023654Y-80690000D02*
X53813654Y-80900000D01*
X49020000Y-80900000D02*
X48500000Y-80380000D01*
X59268700Y-82917300D02*
X59108600Y-83077400D01*
X74778100Y-81274600D02*
X73920000Y-81274600D01*
X77431700Y-77252000D02*
X76832700Y-76653000D01*
X53813654Y-80900000D02*
X49020000Y-80900000D01*
%TO.N,/DC*%
X59540300Y-89161800D02*
X55933300Y-85554800D01*
X65000000Y-89088900D02*
X64582300Y-89506600D01*
X64582300Y-89506600D02*
X60670000Y-89506600D01*
X71261400Y-84002800D02*
X68735100Y-84002800D01*
X55933300Y-85554800D02*
X50524800Y-85554800D01*
X60325200Y-89161800D02*
X59540300Y-89161800D01*
X50524800Y-85554800D02*
X48500000Y-83530000D01*
X60670000Y-89506600D02*
X60325200Y-89161800D01*
X48500000Y-83530000D02*
X48500000Y-82920000D01*
X68735100Y-84002800D02*
X65000000Y-87737900D01*
X65000000Y-87737900D02*
X65000000Y-89088900D01*
%TO.N,/SCL_SCK*%
X73014100Y-87401700D02*
X72500000Y-87915800D01*
X60345100Y-90317700D02*
X59992600Y-89965200D01*
X70956100Y-90366100D02*
X60393400Y-90366100D01*
X58609100Y-89965200D02*
X56833900Y-88190000D01*
X71634500Y-89687700D02*
X70956100Y-90366100D01*
X60393400Y-90366100D02*
X60345100Y-90317800D01*
X49841700Y-88190000D02*
X49651700Y-88000000D01*
X72500000Y-89104900D02*
X71917200Y-89687700D01*
X59992600Y-89965200D02*
X58609100Y-89965200D01*
X73864900Y-87401700D02*
X73014100Y-87401700D01*
X56833900Y-88190000D02*
X49841700Y-88190000D01*
X60345100Y-90317800D02*
X60345100Y-90317700D01*
X76442900Y-85179800D02*
X76086800Y-85179800D01*
X76086800Y-85179800D02*
X73864900Y-87401700D01*
X71917200Y-89687700D02*
X71634500Y-89687700D01*
X72500000Y-87915800D02*
X72500000Y-89104900D01*
X48500000Y-88000000D02*
X49651700Y-88000000D01*
%TO.N,/RST*%
X65590000Y-77590000D02*
X65140000Y-78040000D01*
X65640000Y-75091471D02*
X65590000Y-75141471D01*
X62170000Y-82560000D02*
X63030000Y-83420000D01*
X65140000Y-78040000D02*
X63150000Y-78040000D01*
X63150000Y-78040000D02*
X62170000Y-79020000D01*
X64781800Y-72211800D02*
X65640000Y-73070000D01*
X48500000Y-76710000D02*
X51466346Y-73743654D01*
X62170000Y-79020000D02*
X62170000Y-82560000D01*
X52806346Y-73743654D02*
X54338200Y-72211800D01*
X63030000Y-83420000D02*
X67076500Y-83420000D01*
X65590000Y-75141471D02*
X65590000Y-77590000D01*
X72464900Y-81869100D02*
X72464900Y-83431300D01*
X69011700Y-81484800D02*
X72080600Y-81484800D01*
X51466346Y-73743654D02*
X52806346Y-73743654D01*
X72080600Y-81484800D02*
X72464900Y-81869100D01*
X48500000Y-77840000D02*
X48500000Y-76710000D01*
X67076500Y-83420000D02*
X69011700Y-81484800D01*
X54338200Y-72211800D02*
X64781800Y-72211800D01*
X65640000Y-73070000D02*
X65640000Y-75091471D01*
%TO.N,/SDA_MOSI*%
X52194300Y-72323500D02*
X52721400Y-71796400D01*
X72279100Y-71796400D02*
X73759200Y-73276500D01*
X52721400Y-71796400D02*
X72279100Y-71796400D01*
%TD*%
%TA.AperFunction,Conductor*%
%TO.N,GND*%
G36*
X49643039Y-114059685D02*
G01*
X49688794Y-114112489D01*
X49700000Y-114164000D01*
X49700000Y-115264999D01*
X49749972Y-115264999D01*
X49749986Y-115264998D01*
X49852697Y-115254505D01*
X50019119Y-115199358D01*
X50019124Y-115199356D01*
X50168342Y-115107317D01*
X50279183Y-114996476D01*
X50340506Y-114962991D01*
X50410198Y-114967975D01*
X50466132Y-115009846D01*
X50490223Y-115071555D01*
X50497501Y-115142797D01*
X50497501Y-115142799D01*
X50552685Y-115309331D01*
X50552687Y-115309336D01*
X50561341Y-115323366D01*
X50644788Y-115458656D01*
X50768844Y-115582712D01*
X50918166Y-115674814D01*
X51084703Y-115729999D01*
X51187491Y-115740500D01*
X51799902Y-115740499D01*
X51866941Y-115760183D01*
X51887583Y-115776818D01*
X52045639Y-115934874D01*
X52045649Y-115934885D01*
X52049979Y-115939215D01*
X52049980Y-115939216D01*
X52161784Y-116051020D01*
X52225124Y-116087589D01*
X52298715Y-116130077D01*
X52451443Y-116171000D01*
X55045831Y-116171000D01*
X55045847Y-116171001D01*
X55053443Y-116171001D01*
X55211554Y-116171001D01*
X55211557Y-116171001D01*
X55236826Y-116164229D01*
X55282801Y-116160785D01*
X55300074Y-116162731D01*
X55341198Y-116167365D01*
X55341200Y-116167365D01*
X55341204Y-116167365D01*
X55520449Y-116147169D01*
X55520451Y-116147168D01*
X55520455Y-116147168D01*
X55520458Y-116147166D01*
X55520462Y-116147166D01*
X55685045Y-116089576D01*
X55754824Y-116086014D01*
X55815451Y-116120742D01*
X55847679Y-116182736D01*
X55850000Y-116206616D01*
X55850001Y-116305899D01*
X55830317Y-116372938D01*
X55777514Y-116418694D01*
X55726001Y-116429900D01*
X49910498Y-116429900D01*
X49843459Y-116410215D01*
X49822817Y-116393581D01*
X49364110Y-115934874D01*
X48873520Y-115444285D01*
X48840036Y-115382963D01*
X48845020Y-115313272D01*
X48886892Y-115257338D01*
X48952356Y-115232921D01*
X49000206Y-115238899D01*
X49047302Y-115254505D01*
X49047309Y-115254506D01*
X49150019Y-115264999D01*
X49199999Y-115264998D01*
X49200000Y-115264998D01*
X49200000Y-114164000D01*
X49219685Y-114096961D01*
X49272489Y-114051206D01*
X49324000Y-114040000D01*
X49576000Y-114040000D01*
X49643039Y-114059685D01*
G37*
%TD.AperFunction*%
%TA.AperFunction,Conductor*%
G36*
X68399242Y-110652485D02*
G01*
X68419884Y-110669119D01*
X68638181Y-110887416D01*
X68671666Y-110948739D01*
X68674500Y-110975096D01*
X68674500Y-111188149D01*
X68674501Y-111188175D01*
X68677291Y-111223627D01*
X68721380Y-111375385D01*
X68721382Y-111375390D01*
X68801827Y-111511416D01*
X68801834Y-111511425D01*
X68838081Y-111547672D01*
X68871566Y-111608995D01*
X68866582Y-111678687D01*
X68838082Y-111723033D01*
X68802233Y-111758882D01*
X68802226Y-111758891D01*
X68721845Y-111894808D01*
X68721843Y-111894814D01*
X68685474Y-112019999D01*
X68685474Y-112020000D01*
X69476000Y-112020000D01*
X69543039Y-112039685D01*
X69588794Y-112092489D01*
X69600000Y-112144000D01*
X69600000Y-112270000D01*
X69726000Y-112270000D01*
X69793039Y-112289685D01*
X69838794Y-112342489D01*
X69850000Y-112394000D01*
X69850000Y-113290000D01*
X70457702Y-113290000D01*
X70524741Y-113309685D01*
X70545383Y-113326319D01*
X70604584Y-113385520D01*
X70712501Y-113447825D01*
X70760715Y-113498390D01*
X70774500Y-113555211D01*
X70774500Y-113764579D01*
X70774278Y-113765332D01*
X70774499Y-113766075D01*
X70774500Y-113766430D01*
X70774500Y-114583570D01*
X70774355Y-114584063D01*
X70774500Y-114585419D01*
X70774500Y-115034580D01*
X70774279Y-115035332D01*
X70774499Y-115036073D01*
X70774500Y-115036427D01*
X70774500Y-115157869D01*
X70774501Y-115157876D01*
X70780908Y-115217483D01*
X70813687Y-115305367D01*
X70818671Y-115375059D01*
X70785186Y-115436382D01*
X70723862Y-115469866D01*
X70697505Y-115472700D01*
X70525518Y-115472700D01*
X70458479Y-115453015D01*
X70412724Y-115400211D01*
X70402780Y-115331053D01*
X70418785Y-115285580D01*
X70478154Y-115185189D01*
X70514525Y-115060000D01*
X68685474Y-115060000D01*
X68721843Y-115185185D01*
X68721844Y-115185188D01*
X68781215Y-115285580D01*
X68798397Y-115353304D01*
X68776237Y-115419566D01*
X68721770Y-115463329D01*
X68674482Y-115472700D01*
X67537198Y-115472700D01*
X67470159Y-115453015D01*
X67449517Y-115436381D01*
X66666490Y-114653355D01*
X66666488Y-114653352D01*
X66573135Y-114559999D01*
X68685474Y-114559999D01*
X68685474Y-114560000D01*
X69350000Y-114560000D01*
X69850000Y-114560000D01*
X70514525Y-114560000D01*
X70514524Y-114559999D01*
X70478154Y-114434809D01*
X70478154Y-114434808D01*
X70397773Y-114298891D01*
X70397767Y-114298883D01*
X70361565Y-114262681D01*
X70328080Y-114201358D01*
X70333064Y-114131666D01*
X70361565Y-114087319D01*
X70397767Y-114051116D01*
X70397773Y-114051108D01*
X70478154Y-113915191D01*
X70478154Y-113915190D01*
X70514525Y-113790000D01*
X69850000Y-113790000D01*
X69850000Y-114560000D01*
X69350000Y-114560000D01*
X69350000Y-113790000D01*
X68685474Y-113790000D01*
X68721843Y-113915185D01*
X68721845Y-113915191D01*
X68802226Y-114051108D01*
X68802232Y-114051116D01*
X68838435Y-114087319D01*
X68871920Y-114148642D01*
X68866936Y-114218334D01*
X68838435Y-114262681D01*
X68802232Y-114298883D01*
X68802226Y-114298891D01*
X68721845Y-114434808D01*
X68721843Y-114434814D01*
X68685474Y-114559999D01*
X66573135Y-114559999D01*
X66547617Y-114534481D01*
X66547609Y-114534475D01*
X66442713Y-114473914D01*
X66410688Y-114455424D01*
X66410687Y-114455423D01*
X66336825Y-114435632D01*
X66277164Y-114399266D01*
X66246636Y-114336419D01*
X66254931Y-114267044D01*
X66269651Y-114241547D01*
X66299738Y-114201358D01*
X66301363Y-114199188D01*
X66357297Y-114157318D01*
X66372162Y-114154636D01*
X66377298Y-114149501D01*
X66377298Y-114101673D01*
X66377297Y-114101656D01*
X66372345Y-114055600D01*
X66372345Y-114029088D01*
X66377798Y-113978372D01*
X66377797Y-113451627D01*
X66377796Y-113451625D01*
X66377796Y-113451611D01*
X66372345Y-113400912D01*
X66372345Y-113374399D01*
X66377297Y-113328342D01*
X66377298Y-113328328D01*
X66377298Y-113289999D01*
X68685474Y-113289999D01*
X68685474Y-113290000D01*
X69350000Y-113290000D01*
X69350000Y-112520000D01*
X68685474Y-112520000D01*
X68721843Y-112645185D01*
X68721845Y-112645191D01*
X68802226Y-112781108D01*
X68802232Y-112781116D01*
X68838435Y-112817319D01*
X68871920Y-112878642D01*
X68866936Y-112948334D01*
X68838435Y-112992681D01*
X68802232Y-113028883D01*
X68802226Y-113028891D01*
X68721845Y-113164808D01*
X68721843Y-113164814D01*
X68685474Y-113289999D01*
X66377298Y-113289999D01*
X66377298Y-113280501D01*
X66367598Y-113270801D01*
X66333591Y-113260816D01*
X66301365Y-113230814D01*
X66234844Y-113141953D01*
X66207314Y-113121344D01*
X66142424Y-113072767D01*
X66100554Y-113016833D01*
X66095570Y-112947142D01*
X66129056Y-112885819D01*
X66190379Y-112852334D01*
X66216736Y-112849501D01*
X66377298Y-112849501D01*
X66377298Y-112801673D01*
X66377297Y-112801656D01*
X66370896Y-112742128D01*
X66370894Y-112742121D01*
X66320652Y-112607414D01*
X66320648Y-112607407D01*
X66234488Y-112492313D01*
X66234485Y-112492310D01*
X66119391Y-112406150D01*
X66119384Y-112406146D01*
X65984677Y-112355904D01*
X65984670Y-112355902D01*
X65925142Y-112349501D01*
X65428848Y-112349501D01*
X65428848Y-112874999D01*
X65409163Y-112942038D01*
X65356359Y-112987793D01*
X65304848Y-112998999D01*
X65121848Y-112998999D01*
X65054809Y-112979314D01*
X65009054Y-112926510D01*
X64997848Y-112874999D01*
X64997848Y-112412748D01*
X65017533Y-112345709D01*
X65034164Y-112325069D01*
X65773008Y-111586225D01*
X65834329Y-111552742D01*
X65904020Y-111557726D01*
X65951171Y-111592058D01*
X65952181Y-111591049D01*
X65957288Y-111596156D01*
X66081344Y-111720212D01*
X66230666Y-111812314D01*
X66397203Y-111867499D01*
X66499991Y-111878000D01*
X67500008Y-111877999D01*
X67500016Y-111877998D01*
X67500019Y-111877998D01*
X67556302Y-111872248D01*
X67602797Y-111867499D01*
X67769334Y-111812314D01*
X67918656Y-111720212D01*
X68042712Y-111596156D01*
X68134814Y-111446834D01*
X68189999Y-111280297D01*
X68200500Y-111177509D01*
X68200499Y-110756799D01*
X68220183Y-110689761D01*
X68272987Y-110644006D01*
X68324499Y-110632800D01*
X68332203Y-110632800D01*
X68399242Y-110652485D01*
G37*
%TD.AperFunction*%
%TA.AperFunction,Conductor*%
G36*
X72605039Y-104985185D02*
G01*
X72650794Y-105037989D01*
X72662000Y-105089500D01*
X72662000Y-105500001D01*
X72662001Y-105500019D01*
X72672500Y-105602796D01*
X72672501Y-105602799D01*
X72702193Y-105692401D01*
X72727686Y-105769334D01*
X72819788Y-105918656D01*
X72943844Y-106042712D01*
X73093166Y-106134814D01*
X73259703Y-106189999D01*
X73362491Y-106200500D01*
X73987508Y-106200499D01*
X73987516Y-106200498D01*
X73987519Y-106200498D01*
X74043802Y-106194748D01*
X74090297Y-106189999D01*
X74256834Y-106134814D01*
X74406156Y-106042712D01*
X74499819Y-105949049D01*
X74561142Y-105915564D01*
X74630834Y-105920548D01*
X74675181Y-105949049D01*
X74768844Y-106042712D01*
X74918166Y-106134814D01*
X75084703Y-106189999D01*
X75187491Y-106200500D01*
X75812508Y-106200499D01*
X75812516Y-106200498D01*
X75812519Y-106200498D01*
X75868802Y-106194748D01*
X75915297Y-106189999D01*
X76081834Y-106134814D01*
X76231156Y-106042712D01*
X76355212Y-105918656D01*
X76447314Y-105769334D01*
X76475095Y-105685495D01*
X76514868Y-105628051D01*
X76579384Y-105601228D01*
X76592801Y-105600500D01*
X77453770Y-105600500D01*
X77520809Y-105620185D01*
X77566564Y-105672989D01*
X77576508Y-105742147D01*
X77547483Y-105805703D01*
X77541451Y-105812181D01*
X77457289Y-105896342D01*
X77365187Y-106045663D01*
X77365185Y-106045668D01*
X77355445Y-106075062D01*
X77310001Y-106212203D01*
X77310001Y-106212204D01*
X77310000Y-106212204D01*
X77299500Y-106314983D01*
X77299500Y-106940001D01*
X77299501Y-106940019D01*
X77310000Y-107042796D01*
X77310001Y-107042799D01*
X77365185Y-107209331D01*
X77365187Y-107209336D01*
X77387277Y-107245149D01*
X77456946Y-107358102D01*
X77457289Y-107358657D01*
X77550951Y-107452319D01*
X77584436Y-107513642D01*
X77579452Y-107583334D01*
X77550951Y-107627681D01*
X77457289Y-107721342D01*
X77365187Y-107870663D01*
X77365185Y-107870668D01*
X77361995Y-107880296D01*
X77310001Y-108037203D01*
X77310001Y-108037204D01*
X77310000Y-108037204D01*
X77299500Y-108139983D01*
X77299500Y-108765001D01*
X77299501Y-108765019D01*
X77310000Y-108867796D01*
X77310001Y-108867799D01*
X77365185Y-109034331D01*
X77365187Y-109034336D01*
X77370109Y-109042316D01*
X77457288Y-109183656D01*
X77581344Y-109307712D01*
X77730666Y-109399814D01*
X77814505Y-109427595D01*
X77871948Y-109467366D01*
X77898772Y-109531882D01*
X77899500Y-109545300D01*
X77899500Y-109963540D01*
X77879815Y-110030579D01*
X77840779Y-110068966D01*
X77756380Y-110121224D01*
X77756379Y-110121225D01*
X77606206Y-110258125D01*
X77483744Y-110420291D01*
X77483739Y-110420299D01*
X77393162Y-110602202D01*
X77337551Y-110797659D01*
X77318802Y-110999999D01*
X77318802Y-111000000D01*
X77337551Y-111202340D01*
X77337551Y-111202342D01*
X77337552Y-111202345D01*
X77357183Y-111271342D01*
X77393162Y-111397797D01*
X77483739Y-111579700D01*
X77483744Y-111579708D01*
X77606206Y-111741874D01*
X77756379Y-111878774D01*
X77756381Y-111878776D01*
X77929150Y-111985750D01*
X77929156Y-111985753D01*
X77932850Y-111987184D01*
X78118643Y-112059160D01*
X78318394Y-112096500D01*
X78318396Y-112096500D01*
X78521604Y-112096500D01*
X78521606Y-112096500D01*
X78721357Y-112059160D01*
X78910846Y-111985752D01*
X79083620Y-111878775D01*
X79233795Y-111741872D01*
X79303345Y-111649773D01*
X79359454Y-111608137D01*
X79402299Y-111600500D01*
X79449903Y-111600500D01*
X79516942Y-111620185D01*
X79537584Y-111636819D01*
X80353038Y-112452273D01*
X80386523Y-112513596D01*
X80388531Y-112554244D01*
X80382217Y-112608664D01*
X80968554Y-113195000D01*
X80914580Y-113195000D01*
X80826835Y-113218511D01*
X80748165Y-113263931D01*
X80683931Y-113328165D01*
X80638511Y-113406835D01*
X80615000Y-113494580D01*
X80615000Y-113548554D01*
X80025389Y-112958943D01*
X80025388Y-112958943D01*
X80024170Y-112960558D01*
X79933633Y-113142379D01*
X79878045Y-113337751D01*
X79859305Y-113539999D01*
X79859305Y-113540001D01*
X79872190Y-113679059D01*
X79858775Y-113747629D01*
X79810418Y-113798061D01*
X79748719Y-113814500D01*
X79149998Y-113814500D01*
X79149980Y-113814501D01*
X79047203Y-113825000D01*
X79047200Y-113825001D01*
X78880668Y-113880185D01*
X78880663Y-113880187D01*
X78731342Y-113972289D01*
X78607288Y-114096343D01*
X78607283Y-114096349D01*
X78605241Y-114099661D01*
X78603247Y-114101453D01*
X78602807Y-114102011D01*
X78602711Y-114101935D01*
X78553291Y-114146383D01*
X78484328Y-114157602D01*
X78420247Y-114129755D01*
X78394168Y-114099656D01*
X78392319Y-114096659D01*
X78392316Y-114096655D01*
X78268345Y-113972684D01*
X78119124Y-113880643D01*
X78119119Y-113880641D01*
X77952697Y-113825494D01*
X77952690Y-113825493D01*
X77849986Y-113815000D01*
X77800000Y-113815000D01*
X77800000Y-114916000D01*
X77780315Y-114983039D01*
X77727511Y-115028794D01*
X77676000Y-115040000D01*
X77424000Y-115040000D01*
X77356961Y-115020315D01*
X77311206Y-114967511D01*
X77300000Y-114916000D01*
X77300000Y-113815000D01*
X77299999Y-113814999D01*
X77250029Y-113815000D01*
X77250011Y-113815001D01*
X77147302Y-113825494D01*
X76980880Y-113880641D01*
X76980875Y-113880643D01*
X76831654Y-113972684D01*
X76707684Y-114096654D01*
X76615643Y-114245875D01*
X76615642Y-114245878D01*
X76567205Y-114392051D01*
X76527432Y-114449495D01*
X76462916Y-114476318D01*
X76394140Y-114464003D01*
X76342940Y-114416460D01*
X76325499Y-114353048D01*
X76325499Y-110652128D01*
X76319091Y-110592517D01*
X76314938Y-110581383D01*
X76268797Y-110457671D01*
X76268793Y-110457664D01*
X76182547Y-110342455D01*
X76182544Y-110342452D01*
X76067335Y-110256206D01*
X76067328Y-110256202D01*
X75932482Y-110205908D01*
X75932483Y-110205908D01*
X75872883Y-110199501D01*
X75872881Y-110199500D01*
X75872873Y-110199500D01*
X75872865Y-110199500D01*
X71530329Y-110199500D01*
X71463290Y-110179815D01*
X71417535Y-110127011D01*
X71407591Y-110057853D01*
X71436616Y-109994297D01*
X71490062Y-109958220D01*
X71604810Y-109918828D01*
X71823509Y-109800474D01*
X72019744Y-109647738D01*
X72188164Y-109464785D01*
X72324173Y-109256607D01*
X72424063Y-109028881D01*
X72485108Y-108787821D01*
X72486898Y-108766218D01*
X72505643Y-108540005D01*
X72505643Y-108539994D01*
X72485109Y-108292187D01*
X72485107Y-108292175D01*
X72424063Y-108051118D01*
X72324173Y-107823393D01*
X72188166Y-107615217D01*
X72143188Y-107566358D01*
X72019744Y-107432262D01*
X71823509Y-107279526D01*
X71823507Y-107279525D01*
X71823506Y-107279524D01*
X71604811Y-107161172D01*
X71604802Y-107161169D01*
X71369616Y-107080429D01*
X71124335Y-107039500D01*
X70875665Y-107039500D01*
X70744909Y-107061318D01*
X70675544Y-107052936D01*
X70621722Y-107008382D01*
X70600531Y-106941803D01*
X70600500Y-106939009D01*
X70600500Y-106456722D01*
X70620185Y-106389683D01*
X70672989Y-106343928D01*
X70689905Y-106337646D01*
X70767882Y-106314991D01*
X70847898Y-106291744D01*
X70989365Y-106208081D01*
X71105581Y-106091865D01*
X71189244Y-105950398D01*
X71225981Y-105823949D01*
X71235097Y-105792573D01*
X71235098Y-105792567D01*
X71236926Y-105769336D01*
X71238000Y-105755694D01*
X71238000Y-105324306D01*
X71235098Y-105287431D01*
X71226454Y-105257678D01*
X71205323Y-105184944D01*
X71205522Y-105115075D01*
X71243464Y-105056405D01*
X71307102Y-105027561D01*
X71376232Y-105037702D01*
X71390372Y-105045356D01*
X71462675Y-105090788D01*
X71632945Y-105150368D01*
X71632950Y-105150369D01*
X71812196Y-105170565D01*
X71812200Y-105170565D01*
X71812204Y-105170565D01*
X71991449Y-105150369D01*
X71991452Y-105150368D01*
X71991455Y-105150368D01*
X72161722Y-105090789D01*
X72314462Y-104994816D01*
X72314467Y-104994810D01*
X72317297Y-104992555D01*
X72319475Y-104991665D01*
X72320358Y-104991111D01*
X72320455Y-104991265D01*
X72381983Y-104966145D01*
X72394612Y-104965500D01*
X72538000Y-104965500D01*
X72605039Y-104985185D01*
G37*
%TD.AperFunction*%
%TA.AperFunction,Conductor*%
G36*
X81894610Y-114121056D02*
G01*
X81950942Y-114117151D01*
X81951037Y-114118533D01*
X81989287Y-114115960D01*
X82050098Y-114149333D01*
X82128584Y-114227819D01*
X82162069Y-114289142D01*
X82157085Y-114358834D01*
X82115213Y-114414767D01*
X82049749Y-114439184D01*
X82040903Y-114439500D01*
X81557308Y-114439500D01*
X81490269Y-114419815D01*
X81469627Y-114403181D01*
X80951446Y-113885000D01*
X81005420Y-113885000D01*
X81093165Y-113861489D01*
X81171835Y-113816069D01*
X81236069Y-113751835D01*
X81281489Y-113673165D01*
X81305000Y-113585420D01*
X81305000Y-113531446D01*
X81894610Y-114121056D01*
G37*
%TD.AperFunction*%
%TA.AperFunction,Conductor*%
G36*
X51495593Y-71700185D02*
G01*
X51541348Y-71752989D01*
X51551292Y-71822147D01*
X51533548Y-71870472D01*
X51468511Y-71973976D01*
X51408931Y-72144245D01*
X51408930Y-72144250D01*
X51388735Y-72323496D01*
X51388735Y-72323503D01*
X51408930Y-72502749D01*
X51408931Y-72502754D01*
X51468511Y-72673023D01*
X51564484Y-72825762D01*
X51670195Y-72931473D01*
X51703680Y-72992796D01*
X51698696Y-73062488D01*
X51656824Y-73118421D01*
X51591360Y-73142838D01*
X51582514Y-73143154D01*
X51553016Y-73143154D01*
X51553000Y-73143153D01*
X51545404Y-73143153D01*
X51387289Y-73143153D01*
X51310925Y-73163615D01*
X51234560Y-73184077D01*
X51234555Y-73184080D01*
X51097636Y-73263129D01*
X51097628Y-73263135D01*
X48019481Y-76341282D01*
X48019479Y-76341285D01*
X48002545Y-76370616D01*
X47979193Y-76411065D01*
X47976500Y-76415729D01*
X47976497Y-76415734D01*
X47969701Y-76427504D01*
X47919132Y-76475718D01*
X47862316Y-76489500D01*
X47602130Y-76489500D01*
X47602123Y-76489501D01*
X47542516Y-76495908D01*
X47407671Y-76546202D01*
X47407664Y-76546206D01*
X47292455Y-76632452D01*
X47292452Y-76632455D01*
X47206206Y-76747664D01*
X47206202Y-76747671D01*
X47155908Y-76882517D01*
X47149501Y-76942116D01*
X47149501Y-76942123D01*
X47149500Y-76942135D01*
X47149500Y-78737870D01*
X47149501Y-78737876D01*
X47155908Y-78797483D01*
X47206202Y-78932328D01*
X47206206Y-78932335D01*
X47292452Y-79047544D01*
X47292455Y-79047547D01*
X47407664Y-79133793D01*
X47407671Y-79133797D01*
X47539081Y-79182810D01*
X47595015Y-79224681D01*
X47619432Y-79290145D01*
X47604580Y-79358418D01*
X47583430Y-79386673D01*
X47461503Y-79508600D01*
X47325965Y-79702169D01*
X47325964Y-79702171D01*
X47226098Y-79916335D01*
X47226094Y-79916344D01*
X47164938Y-80144586D01*
X47164936Y-80144596D01*
X47144341Y-80379999D01*
X47144341Y-80380000D01*
X47164936Y-80615403D01*
X47164938Y-80615413D01*
X47226094Y-80843655D01*
X47226096Y-80843659D01*
X47226097Y-80843663D01*
X47253707Y-80902872D01*
X47325965Y-81057830D01*
X47325967Y-81057834D01*
X47430935Y-81207743D01*
X47459920Y-81249138D01*
X47461501Y-81251395D01*
X47461506Y-81251402D01*
X47628597Y-81418493D01*
X47628603Y-81418498D01*
X47814158Y-81548425D01*
X47857783Y-81603002D01*
X47864977Y-81672500D01*
X47833454Y-81734855D01*
X47814158Y-81751575D01*
X47628597Y-81881505D01*
X47461505Y-82048597D01*
X47325965Y-82242169D01*
X47325964Y-82242171D01*
X47226098Y-82456335D01*
X47226094Y-82456344D01*
X47164938Y-82684586D01*
X47164936Y-82684596D01*
X47144341Y-82919999D01*
X47144341Y-82920000D01*
X47164936Y-83155403D01*
X47164938Y-83155413D01*
X47226094Y-83383655D01*
X47226096Y-83383659D01*
X47226097Y-83383663D01*
X47271370Y-83480750D01*
X47325965Y-83597830D01*
X47325967Y-83597834D01*
X47397980Y-83700678D01*
X47454097Y-83780822D01*
X47461501Y-83791395D01*
X47461506Y-83791402D01*
X47628597Y-83958493D01*
X47628603Y-83958498D01*
X47814158Y-84088425D01*
X47857783Y-84143002D01*
X47864977Y-84212500D01*
X47833454Y-84274855D01*
X47814158Y-84291575D01*
X47628597Y-84421505D01*
X47461505Y-84588597D01*
X47325965Y-84782169D01*
X47325964Y-84782171D01*
X47246108Y-84953423D01*
X47226617Y-84995223D01*
X47226098Y-84996335D01*
X47226094Y-84996344D01*
X47164938Y-85224586D01*
X47164936Y-85224596D01*
X47144341Y-85459999D01*
X47144341Y-85460000D01*
X47164936Y-85695403D01*
X47164938Y-85695413D01*
X47226094Y-85923655D01*
X47226096Y-85923659D01*
X47226097Y-85923663D01*
X47277928Y-86034814D01*
X47325965Y-86137830D01*
X47325967Y-86137834D01*
X47461501Y-86331395D01*
X47461506Y-86331402D01*
X47628597Y-86498493D01*
X47628603Y-86498498D01*
X47814158Y-86628425D01*
X47857783Y-86683002D01*
X47864977Y-86752500D01*
X47833454Y-86814855D01*
X47814158Y-86831575D01*
X47628597Y-86961505D01*
X47461505Y-87128597D01*
X47325965Y-87322169D01*
X47325964Y-87322171D01*
X47226098Y-87536335D01*
X47226094Y-87536344D01*
X47164938Y-87764586D01*
X47164936Y-87764596D01*
X47144341Y-87999999D01*
X47144341Y-88000000D01*
X47164936Y-88235403D01*
X47164938Y-88235413D01*
X47226094Y-88463655D01*
X47226096Y-88463659D01*
X47226097Y-88463663D01*
X47322314Y-88670000D01*
X47325965Y-88677830D01*
X47325967Y-88677834D01*
X47461501Y-88871395D01*
X47461506Y-88871402D01*
X47628597Y-89038493D01*
X47628603Y-89038498D01*
X47814594Y-89168730D01*
X47858219Y-89223307D01*
X47865413Y-89292805D01*
X47833890Y-89355160D01*
X47814595Y-89371880D01*
X47628922Y-89501890D01*
X47628920Y-89501891D01*
X47461891Y-89668920D01*
X47461886Y-89668926D01*
X47326400Y-89862420D01*
X47326399Y-89862422D01*
X47226570Y-90076507D01*
X47226567Y-90076513D01*
X47169364Y-90289999D01*
X47169364Y-90290000D01*
X48066988Y-90290000D01*
X48034075Y-90347007D01*
X48000000Y-90474174D01*
X48000000Y-90605826D01*
X48034075Y-90732993D01*
X48066988Y-90790000D01*
X47169364Y-90790000D01*
X47226567Y-91003486D01*
X47226570Y-91003492D01*
X47326399Y-91217578D01*
X47461894Y-91411082D01*
X47628917Y-91578105D01*
X47814595Y-91708119D01*
X47858219Y-91762696D01*
X47865412Y-91832195D01*
X47833890Y-91894549D01*
X47814595Y-91911269D01*
X47628594Y-92041508D01*
X47461505Y-92208597D01*
X47325965Y-92402169D01*
X47325964Y-92402171D01*
X47257329Y-92549360D01*
X47228257Y-92611706D01*
X47226098Y-92616335D01*
X47226094Y-92616344D01*
X47164938Y-92844586D01*
X47164936Y-92844596D01*
X47144341Y-93079999D01*
X47144341Y-93080000D01*
X47164936Y-93315403D01*
X47164938Y-93315413D01*
X47226094Y-93543655D01*
X47226096Y-93543659D01*
X47226097Y-93543663D01*
X47309108Y-93721680D01*
X47325965Y-93757830D01*
X47325967Y-93757834D01*
X47410108Y-93877999D01*
X47461505Y-93951401D01*
X47628599Y-94118495D01*
X47678450Y-94153401D01*
X47822165Y-94254032D01*
X47822167Y-94254033D01*
X47822170Y-94254035D01*
X48036337Y-94353903D01*
X48036343Y-94353904D01*
X48036344Y-94353905D01*
X48081667Y-94366049D01*
X48264592Y-94415063D01*
X48452918Y-94431539D01*
X48499999Y-94435659D01*
X48500000Y-94435659D01*
X48500001Y-94435659D01*
X48539234Y-94432226D01*
X48735408Y-94415063D01*
X48963663Y-94353903D01*
X49177830Y-94254035D01*
X49371401Y-94118495D01*
X49518502Y-93971393D01*
X49579822Y-93937911D01*
X49649513Y-93942895D01*
X49693861Y-93971396D01*
X50289039Y-94566574D01*
X50289049Y-94566585D01*
X50293379Y-94570915D01*
X50293380Y-94570916D01*
X50405184Y-94682720D01*
X50405186Y-94682721D01*
X50408528Y-94686063D01*
X50442013Y-94747386D01*
X50444068Y-94787623D01*
X50442235Y-94803898D01*
X50442235Y-94803903D01*
X50462430Y-94983149D01*
X50462431Y-94983154D01*
X50522011Y-95153423D01*
X50571249Y-95231784D01*
X50617984Y-95306162D01*
X50745538Y-95433716D01*
X50782871Y-95457174D01*
X50898277Y-95529689D01*
X50898280Y-95529690D01*
X50901629Y-95530862D01*
X50903500Y-95532203D01*
X50904551Y-95532710D01*
X50904462Y-95532894D01*
X50958406Y-95571582D01*
X50984155Y-95636534D01*
X50970700Y-95705096D01*
X50964486Y-95715725D01*
X50889075Y-95831151D01*
X50795842Y-96043699D01*
X50738866Y-96268691D01*
X50738864Y-96268702D01*
X50719700Y-96499993D01*
X50719700Y-96500006D01*
X50738864Y-96731297D01*
X50738866Y-96731308D01*
X50795842Y-96956300D01*
X50889075Y-97168848D01*
X51016020Y-97363153D01*
X51016022Y-97363155D01*
X51056463Y-97407086D01*
X51087385Y-97469740D01*
X51079525Y-97539166D01*
X51052915Y-97578749D01*
X50987380Y-97644284D01*
X50968798Y-97676470D01*
X50908323Y-97781215D01*
X50867399Y-97933943D01*
X50867399Y-97933945D01*
X50867399Y-98102046D01*
X50867400Y-98102059D01*
X50867400Y-99409402D01*
X50847715Y-99476441D01*
X50794911Y-99522196D01*
X50725753Y-99532140D01*
X50662197Y-99503115D01*
X50655719Y-99497083D01*
X50266990Y-99108355D01*
X50266988Y-99108352D01*
X50226109Y-99067473D01*
X50192624Y-99006150D01*
X50196084Y-98940788D01*
X50214505Y-98885197D01*
X50214506Y-98885190D01*
X50224999Y-98782486D01*
X50225000Y-98782473D01*
X50225000Y-98732500D01*
X49124000Y-98732500D01*
X49056961Y-98712815D01*
X49011206Y-98660011D01*
X49000000Y-98608500D01*
X49000000Y-98356500D01*
X49019685Y-98289461D01*
X49072489Y-98243706D01*
X49124000Y-98232500D01*
X50224999Y-98232500D01*
X50224999Y-98182528D01*
X50224998Y-98182513D01*
X50214505Y-98079802D01*
X50159358Y-97913380D01*
X50159356Y-97913375D01*
X50067315Y-97764154D01*
X49943345Y-97640184D01*
X49794124Y-97548143D01*
X49794119Y-97548141D01*
X49633836Y-97495029D01*
X49576391Y-97455256D01*
X49549568Y-97390741D01*
X49561883Y-97321965D01*
X49569026Y-97309508D01*
X49660924Y-97168849D01*
X49754157Y-96956300D01*
X49811134Y-96731305D01*
X49813733Y-96699938D01*
X49830300Y-96500006D01*
X49830300Y-96499993D01*
X49811135Y-96268702D01*
X49811133Y-96268691D01*
X49754157Y-96043699D01*
X49660924Y-95831151D01*
X49533983Y-95636852D01*
X49533980Y-95636849D01*
X49533979Y-95636847D01*
X49376784Y-95466087D01*
X49376779Y-95466083D01*
X49376777Y-95466081D01*
X49193634Y-95323535D01*
X49193628Y-95323531D01*
X48989504Y-95213064D01*
X48989495Y-95213061D01*
X48769984Y-95137702D01*
X48598282Y-95109050D01*
X48541049Y-95099500D01*
X48308951Y-95099500D01*
X48263164Y-95107140D01*
X48080015Y-95137702D01*
X47860504Y-95213061D01*
X47860495Y-95213064D01*
X47656371Y-95323531D01*
X47656365Y-95323535D01*
X47473222Y-95466081D01*
X47473219Y-95466084D01*
X47473216Y-95466086D01*
X47473216Y-95466087D01*
X47424064Y-95519481D01*
X47316016Y-95636852D01*
X47189075Y-95831151D01*
X47095842Y-96043699D01*
X47038866Y-96268691D01*
X47038864Y-96268702D01*
X47019700Y-96499993D01*
X47019700Y-96500006D01*
X47038864Y-96731297D01*
X47038866Y-96731309D01*
X47083319Y-96906848D01*
X47080694Y-96976668D01*
X47050795Y-97024969D01*
X46939477Y-97136287D01*
X46890466Y-97221179D01*
X46890465Y-97221178D01*
X46860424Y-97273211D01*
X46860423Y-97273215D01*
X46819499Y-97425943D01*
X46819499Y-97425945D01*
X46819499Y-97594046D01*
X46819500Y-97594059D01*
X46819500Y-98918630D01*
X46819499Y-98918648D01*
X46819499Y-99084354D01*
X46819498Y-99084354D01*
X46825929Y-99108355D01*
X46860423Y-99237085D01*
X46880968Y-99272669D01*
X46900793Y-99307007D01*
X46939479Y-99374015D01*
X47019682Y-99454218D01*
X47053167Y-99515541D01*
X47048183Y-99585233D01*
X47023939Y-99622959D01*
X47024428Y-99623334D01*
X47019943Y-99629178D01*
X47019690Y-99629573D01*
X47019481Y-99629781D01*
X46998862Y-99665494D01*
X46986957Y-99686116D01*
X46940423Y-99766715D01*
X46899499Y-99919443D01*
X46899499Y-99919445D01*
X46899499Y-100087546D01*
X46899500Y-100087559D01*
X46899500Y-103063330D01*
X46899499Y-103063348D01*
X46899499Y-103229054D01*
X46899498Y-103229054D01*
X46940423Y-103381787D01*
X46944689Y-103389174D01*
X46944692Y-103389179D01*
X47019477Y-103518712D01*
X47019481Y-103518717D01*
X47138349Y-103637585D01*
X47138355Y-103637590D01*
X47774419Y-104273654D01*
X47807904Y-104334977D01*
X47809789Y-104346807D01*
X47810001Y-104347798D01*
X47865185Y-104514331D01*
X47865187Y-104514336D01*
X47870372Y-104522742D01*
X47957288Y-104663656D01*
X48081344Y-104787712D01*
X48230666Y-104879814D01*
X48397203Y-104934999D01*
X48499991Y-104945500D01*
X49500008Y-104945499D01*
X49500016Y-104945498D01*
X49500019Y-104945498D01*
X49556302Y-104939748D01*
X49602797Y-104934999D01*
X49769334Y-104879814D01*
X49918656Y-104787712D01*
X50042712Y-104663656D01*
X50086970Y-104591902D01*
X50138917Y-104545179D01*
X50192508Y-104533000D01*
X51363132Y-104533000D01*
X51430171Y-104552685D01*
X51451346Y-104571883D01*
X51452181Y-104571049D01*
X51457288Y-104576156D01*
X51581344Y-104700212D01*
X51730666Y-104792314D01*
X51897203Y-104847499D01*
X51999991Y-104858000D01*
X53000008Y-104857999D01*
X53000016Y-104857998D01*
X53000019Y-104857998D01*
X53056302Y-104852248D01*
X53102797Y-104847499D01*
X53269334Y-104792314D01*
X53418656Y-104700212D01*
X53542712Y-104576156D01*
X53586970Y-104504402D01*
X53638917Y-104457679D01*
X53692508Y-104445500D01*
X53807492Y-104445500D01*
X53874531Y-104465185D01*
X53913029Y-104504401D01*
X53957288Y-104576156D01*
X54081344Y-104700212D01*
X54230666Y-104792314D01*
X54230667Y-104792314D01*
X54236813Y-104796105D01*
X54235468Y-104798285D01*
X54278897Y-104836513D01*
X54298059Y-104903703D01*
X54277853Y-104970588D01*
X54261744Y-104990419D01*
X53268484Y-105983679D01*
X53207161Y-106017164D01*
X53137469Y-106012180D01*
X53089572Y-105979979D01*
X53076785Y-105966088D01*
X53076777Y-105966081D01*
X52893634Y-105823535D01*
X52893628Y-105823531D01*
X52689504Y-105713064D01*
X52689495Y-105713061D01*
X52469984Y-105637702D01*
X52298282Y-105609050D01*
X52241049Y-105599500D01*
X52008951Y-105599500D01*
X51963164Y-105607140D01*
X51780015Y-105637702D01*
X51560504Y-105713061D01*
X51560495Y-105713064D01*
X51356371Y-105823531D01*
X51356365Y-105823535D01*
X51173222Y-105966081D01*
X51173219Y-105966084D01*
X51173216Y-105966086D01*
X51173216Y-105966087D01*
X51135263Y-106007315D01*
X51016016Y-106136852D01*
X50889075Y-106331151D01*
X50795842Y-106543699D01*
X50738866Y-106768691D01*
X50738864Y-106768702D01*
X50719700Y-106999993D01*
X50719700Y-107000006D01*
X50738864Y-107231297D01*
X50738866Y-107231308D01*
X50795842Y-107456300D01*
X50889075Y-107668848D01*
X51016016Y-107863147D01*
X51016019Y-107863151D01*
X51016021Y-107863153D01*
X51173216Y-108033913D01*
X51173219Y-108033915D01*
X51173222Y-108033918D01*
X51356365Y-108176464D01*
X51356371Y-108176468D01*
X51356374Y-108176470D01*
X51506391Y-108257655D01*
X51559652Y-108286479D01*
X51560497Y-108286936D01*
X51650644Y-108317883D01*
X51698329Y-108334254D01*
X51755344Y-108374639D01*
X51781475Y-108439439D01*
X51768424Y-108508079D01*
X51745747Y-108539216D01*
X51307584Y-108977381D01*
X51246261Y-109010866D01*
X51219903Y-109013700D01*
X49506742Y-109013700D01*
X49354014Y-109054623D01*
X49329015Y-109069057D01*
X49329014Y-109069057D01*
X49217087Y-109133677D01*
X49110935Y-109239829D01*
X49049612Y-109273313D01*
X48979920Y-109268329D01*
X48946341Y-109249412D01*
X48943657Y-109247289D01*
X48943656Y-109247288D01*
X48840493Y-109183657D01*
X48794336Y-109155187D01*
X48794331Y-109155185D01*
X48729433Y-109133680D01*
X48627797Y-109100001D01*
X48627795Y-109100000D01*
X48525010Y-109089500D01*
X47474998Y-109089500D01*
X47474980Y-109089501D01*
X47372203Y-109100000D01*
X47372200Y-109100001D01*
X47205668Y-109155185D01*
X47205663Y-109155187D01*
X47056342Y-109247289D01*
X46932289Y-109371342D01*
X46840187Y-109520663D01*
X46840185Y-109520668D01*
X46826999Y-109560461D01*
X46785001Y-109687203D01*
X46785001Y-109687204D01*
X46785000Y-109687204D01*
X46774500Y-109789983D01*
X46774500Y-110390001D01*
X46774501Y-110390019D01*
X46785000Y-110492796D01*
X46785001Y-110492799D01*
X46840185Y-110659331D01*
X46840187Y-110659336D01*
X46848584Y-110672949D01*
X46920217Y-110789086D01*
X46932289Y-110808657D01*
X47056346Y-110932714D01*
X47059182Y-110934463D01*
X47060717Y-110936170D01*
X47062011Y-110937193D01*
X47061836Y-110937414D01*
X47105905Y-110986411D01*
X47117126Y-111055374D01*
X47089282Y-111119456D01*
X47059182Y-111145537D01*
X47056346Y-111147285D01*
X46932289Y-111271342D01*
X46840187Y-111420663D01*
X46840186Y-111420666D01*
X46785001Y-111587203D01*
X46785001Y-111587204D01*
X46785000Y-111587204D01*
X46774500Y-111689983D01*
X46774500Y-112290001D01*
X46774501Y-112290019D01*
X46785000Y-112392796D01*
X46785001Y-112392798D01*
X46840185Y-112559331D01*
X46840187Y-112559336D01*
X46841288Y-112561121D01*
X46927627Y-112701100D01*
X46932289Y-112708657D01*
X46945944Y-112722312D01*
X46979429Y-112783635D01*
X46974445Y-112853327D01*
X46932573Y-112909260D01*
X46923360Y-112915531D01*
X46831347Y-112972285D01*
X46831343Y-112972288D01*
X46707289Y-113096342D01*
X46707288Y-113096344D01*
X46631936Y-113218511D01*
X46611395Y-113251813D01*
X46609368Y-113250562D01*
X46570710Y-113294468D01*
X46503517Y-113313620D01*
X46436636Y-113293405D01*
X46391301Y-113240240D01*
X46380500Y-113189624D01*
X46380500Y-106750000D01*
X47044117Y-106750000D01*
X47852058Y-106750000D01*
X47824019Y-106817694D01*
X47800000Y-106938443D01*
X47800000Y-107061557D01*
X47824019Y-107182306D01*
X47852058Y-107250000D01*
X47044117Y-107250000D01*
X47096317Y-107456135D01*
X47189516Y-107668609D01*
X47316414Y-107862842D01*
X47473558Y-108033545D01*
X47473562Y-108033548D01*
X47656644Y-108176047D01*
X47656648Y-108176050D01*
X47860697Y-108286476D01*
X47860706Y-108286479D01*
X48080139Y-108361811D01*
X48174999Y-108377640D01*
X48175000Y-108377639D01*
X48175000Y-107572941D01*
X48242694Y-107600981D01*
X48363443Y-107625000D01*
X48486557Y-107625000D01*
X48607306Y-107600981D01*
X48675000Y-107572941D01*
X48675000Y-108377640D01*
X48769860Y-108361811D01*
X48989293Y-108286479D01*
X48989302Y-108286476D01*
X49193351Y-108176050D01*
X49193355Y-108176047D01*
X49376437Y-108033548D01*
X49376441Y-108033545D01*
X49533585Y-107862842D01*
X49660483Y-107668609D01*
X49753682Y-107456135D01*
X49805883Y-107250000D01*
X48997942Y-107250000D01*
X49025981Y-107182306D01*
X49050000Y-107061557D01*
X49050000Y-106938443D01*
X49025981Y-106817694D01*
X48997942Y-106750000D01*
X49805883Y-106750000D01*
X49753682Y-106543864D01*
X49660483Y-106331390D01*
X49533585Y-106137157D01*
X49376441Y-105966454D01*
X49376437Y-105966451D01*
X49193355Y-105823952D01*
X49193351Y-105823949D01*
X48989302Y-105713523D01*
X48989293Y-105713520D01*
X48769861Y-105638188D01*
X48675000Y-105622359D01*
X48675000Y-106427058D01*
X48607306Y-106399019D01*
X48486557Y-106375000D01*
X48363443Y-106375000D01*
X48242694Y-106399019D01*
X48175000Y-106427058D01*
X48175000Y-105622359D01*
X48174999Y-105622359D01*
X48080138Y-105638188D01*
X47860706Y-105713520D01*
X47860697Y-105713523D01*
X47656648Y-105823949D01*
X47656644Y-105823952D01*
X47473562Y-105966451D01*
X47473558Y-105966454D01*
X47316414Y-106137157D01*
X47189516Y-106331390D01*
X47096317Y-106543864D01*
X47044117Y-106750000D01*
X46380500Y-106750000D01*
X46380500Y-71804500D01*
X46400185Y-71737461D01*
X46452989Y-71691706D01*
X46504500Y-71680500D01*
X51428554Y-71680500D01*
X51495593Y-71700185D01*
G37*
%TD.AperFunction*%
%TA.AperFunction,Conductor*%
G36*
X84508063Y-103999992D02*
G01*
X84539866Y-104024843D01*
X84547302Y-104032920D01*
X84548215Y-104033912D01*
X84548222Y-104033918D01*
X84731365Y-104176464D01*
X84731371Y-104176468D01*
X84731374Y-104176470D01*
X84935497Y-104286936D01*
X85155019Y-104362298D01*
X85362310Y-104396888D01*
X85425195Y-104427338D01*
X85461634Y-104486953D01*
X85465900Y-104519197D01*
X85465900Y-105966000D01*
X85446215Y-106033039D01*
X85393411Y-106078794D01*
X85341900Y-106090000D01*
X85250000Y-106090000D01*
X85250000Y-106966000D01*
X85230315Y-107033039D01*
X85177511Y-107078794D01*
X85126000Y-107090000D01*
X85000000Y-107090000D01*
X85000000Y-107216000D01*
X84980315Y-107283039D01*
X84927511Y-107328794D01*
X84876000Y-107340000D01*
X83775001Y-107340000D01*
X83775001Y-107389986D01*
X83785494Y-107492697D01*
X83840641Y-107659119D01*
X83840643Y-107659124D01*
X83932684Y-107808345D01*
X84056655Y-107932316D01*
X84056659Y-107932319D01*
X84059656Y-107934168D01*
X84061279Y-107935972D01*
X84062323Y-107936798D01*
X84062181Y-107936976D01*
X84106381Y-107986116D01*
X84117602Y-108055079D01*
X84089759Y-108119161D01*
X84059661Y-108145241D01*
X84056349Y-108147283D01*
X84056343Y-108147288D01*
X83932289Y-108271342D01*
X83840187Y-108420663D01*
X83840185Y-108420668D01*
X83827152Y-108459999D01*
X83785001Y-108587203D01*
X83785001Y-108587204D01*
X83785000Y-108587204D01*
X83774500Y-108689983D01*
X83774500Y-108689996D01*
X83774501Y-109289999D01*
X83774501Y-109290019D01*
X83785000Y-109392796D01*
X83785001Y-109392799D01*
X83840185Y-109559331D01*
X83840189Y-109559340D01*
X83935833Y-109714404D01*
X83954273Y-109781796D01*
X83933350Y-109848460D01*
X83879708Y-109893229D01*
X83830294Y-109903500D01*
X82856129Y-109903500D01*
X82856123Y-109903501D01*
X82796516Y-109909908D01*
X82661671Y-109960202D01*
X82661664Y-109960206D01*
X82546455Y-110046452D01*
X82546452Y-110046455D01*
X82460206Y-110161664D01*
X82460202Y-110161671D01*
X82409908Y-110296517D01*
X82403501Y-110356116D01*
X82403500Y-110356135D01*
X82403500Y-111643870D01*
X82403501Y-111643876D01*
X82409908Y-111703483D01*
X82460202Y-111838328D01*
X82460206Y-111838335D01*
X82546452Y-111953544D01*
X82546455Y-111953547D01*
X82661664Y-112039793D01*
X82661671Y-112039797D01*
X82706618Y-112056561D01*
X82796517Y-112090091D01*
X82796525Y-112090091D01*
X82804010Y-112091861D01*
X82864728Y-112126433D01*
X82897115Y-112188342D01*
X82899499Y-112212539D01*
X82899499Y-112319054D01*
X82899498Y-112319054D01*
X82937125Y-112459480D01*
X82940423Y-112471785D01*
X82957002Y-112500500D01*
X82996352Y-112568656D01*
X83019479Y-112608714D01*
X83019481Y-112608717D01*
X83096570Y-112685806D01*
X83130055Y-112747129D01*
X83125071Y-112816821D01*
X83083199Y-112872754D01*
X83047895Y-112891192D01*
X83005672Y-112905184D01*
X83005663Y-112905187D01*
X82856342Y-112997289D01*
X82814113Y-113039518D01*
X82752790Y-113073002D01*
X82683098Y-113068017D01*
X82638752Y-113039517D01*
X80237590Y-110638355D01*
X80237588Y-110638352D01*
X80118717Y-110519481D01*
X80118709Y-110519475D01*
X80013470Y-110458716D01*
X80013469Y-110458715D01*
X80013469Y-110458716D01*
X79981785Y-110440423D01*
X79969768Y-110437203D01*
X79829057Y-110399499D01*
X79670943Y-110399499D01*
X79663347Y-110399499D01*
X79663331Y-110399500D01*
X79402299Y-110399500D01*
X79335260Y-110379815D01*
X79303345Y-110350227D01*
X79233795Y-110258128D01*
X79140961Y-110173498D01*
X79104680Y-110113786D01*
X79100500Y-110081861D01*
X79100500Y-109545300D01*
X79120185Y-109478261D01*
X79172989Y-109432506D01*
X79185482Y-109427599D01*
X79269334Y-109399814D01*
X79418656Y-109307712D01*
X79542712Y-109183656D01*
X79634814Y-109034334D01*
X79689999Y-108867797D01*
X79689999Y-108867791D01*
X79691382Y-108861337D01*
X79724665Y-108799904D01*
X79785878Y-108766218D01*
X79855586Y-108770974D01*
X79911657Y-108812661D01*
X79931900Y-108853363D01*
X79933160Y-108857792D01*
X79933162Y-108857796D01*
X79933163Y-108857799D01*
X79956858Y-108905384D01*
X80023739Y-109039700D01*
X80023744Y-109039708D01*
X80146206Y-109201874D01*
X80296379Y-109338774D01*
X80296381Y-109338776D01*
X80469150Y-109445750D01*
X80469156Y-109445753D01*
X80482561Y-109450946D01*
X80658643Y-109519160D01*
X80858394Y-109556500D01*
X80858396Y-109556500D01*
X81061604Y-109556500D01*
X81061606Y-109556500D01*
X81261357Y-109519160D01*
X81450846Y-109445752D01*
X81623620Y-109338775D01*
X81773795Y-109201872D01*
X81896257Y-109039706D01*
X81986837Y-108857799D01*
X82042448Y-108662345D01*
X82061198Y-108460000D01*
X82042448Y-108257655D01*
X81986837Y-108062201D01*
X81923982Y-107935972D01*
X81896260Y-107880299D01*
X81896255Y-107880291D01*
X81773793Y-107718125D01*
X81623621Y-107581226D01*
X81623620Y-107581225D01*
X81562793Y-107543562D01*
X81520684Y-107500135D01*
X81519577Y-107498218D01*
X81519577Y-107498216D01*
X81459245Y-107393717D01*
X81440521Y-107361285D01*
X81324385Y-107245149D01*
X81324374Y-107245139D01*
X80869248Y-106790013D01*
X83775000Y-106790013D01*
X83775000Y-106840000D01*
X84750000Y-106840000D01*
X84750000Y-106090000D01*
X84475029Y-106090000D01*
X84475012Y-106090001D01*
X84372302Y-106100494D01*
X84205880Y-106155641D01*
X84205875Y-106155643D01*
X84056654Y-106247684D01*
X83932684Y-106371654D01*
X83840643Y-106520875D01*
X83840641Y-106520880D01*
X83785494Y-106687302D01*
X83785493Y-106687309D01*
X83775000Y-106790013D01*
X80869248Y-106790013D01*
X80345090Y-106265855D01*
X80345088Y-106265852D01*
X80226217Y-106146981D01*
X80226209Y-106146975D01*
X80109514Y-106079602D01*
X80109514Y-106079601D01*
X80109509Y-106079600D01*
X80101650Y-106075062D01*
X80089286Y-106067923D01*
X80051103Y-106057692D01*
X79936557Y-106026999D01*
X79778443Y-106026999D01*
X79770847Y-106026999D01*
X79770831Y-106027000D01*
X79692508Y-106027000D01*
X79625469Y-106007315D01*
X79586969Y-105968097D01*
X79585730Y-105966088D01*
X79542712Y-105896344D01*
X79458549Y-105812181D01*
X79425064Y-105750858D01*
X79430048Y-105681166D01*
X79471920Y-105625233D01*
X79537384Y-105600816D01*
X79546230Y-105600500D01*
X82193331Y-105600500D01*
X82193347Y-105600501D01*
X82200943Y-105600501D01*
X82359054Y-105600501D01*
X82359057Y-105600501D01*
X82511785Y-105559577D01*
X82568208Y-105527001D01*
X82648716Y-105480520D01*
X82760520Y-105368716D01*
X82760520Y-105368714D01*
X82770724Y-105358511D01*
X82770728Y-105358506D01*
X83318506Y-104810728D01*
X83318511Y-104810724D01*
X83328714Y-104800520D01*
X83328716Y-104800520D01*
X83440520Y-104688716D01*
X83493596Y-104596785D01*
X83497380Y-104590232D01*
X83519574Y-104551790D01*
X83519573Y-104551790D01*
X83519577Y-104551785D01*
X83535487Y-104492405D01*
X83571852Y-104432745D01*
X83634699Y-104402216D01*
X83655262Y-104400499D01*
X83907871Y-104400499D01*
X83907872Y-104400499D01*
X83967483Y-104394091D01*
X84102331Y-104343796D01*
X84217546Y-104257546D01*
X84303796Y-104142331D01*
X84307135Y-104133380D01*
X84332455Y-104065493D01*
X84374326Y-104009559D01*
X84439790Y-103985141D01*
X84508063Y-103999992D01*
G37*
%TD.AperFunction*%
%TA.AperFunction,Conductor*%
G36*
X64375742Y-110060184D02*
G01*
X64421497Y-110112988D01*
X64431441Y-110182146D01*
X64402416Y-110245702D01*
X64396384Y-110252180D01*
X64126530Y-110522033D01*
X64065207Y-110555518D01*
X63995515Y-110550534D01*
X63939582Y-110508662D01*
X63915490Y-110446948D01*
X63914504Y-110437299D01*
X63859358Y-110270880D01*
X63859354Y-110270871D01*
X63833895Y-110229595D01*
X63815455Y-110162203D01*
X63836378Y-110095539D01*
X63890020Y-110050770D01*
X63939432Y-110040499D01*
X64308703Y-110040499D01*
X64375742Y-110060184D01*
G37*
%TD.AperFunction*%
%TA.AperFunction,Conductor*%
G36*
X65056595Y-108329749D02*
G01*
X65071343Y-108333701D01*
X65071344Y-108333701D01*
X65237054Y-108333701D01*
X65237070Y-108333700D01*
X65735236Y-108333700D01*
X65802275Y-108353385D01*
X65848030Y-108406189D01*
X65857974Y-108475347D01*
X65852942Y-108496704D01*
X65810494Y-108624802D01*
X65810493Y-108624809D01*
X65800000Y-108727513D01*
X65800000Y-108790000D01*
X66876000Y-108790000D01*
X66943039Y-108809685D01*
X66988794Y-108862489D01*
X67000000Y-108914000D01*
X67000000Y-109166000D01*
X66980315Y-109233039D01*
X66927511Y-109278794D01*
X66876000Y-109290000D01*
X65800001Y-109290000D01*
X65800001Y-109307800D01*
X65780316Y-109374839D01*
X65727512Y-109420594D01*
X65676001Y-109431800D01*
X65552170Y-109431800D01*
X65552154Y-109431799D01*
X65544558Y-109431799D01*
X65386443Y-109431799D01*
X65314987Y-109450946D01*
X65233714Y-109472723D01*
X65233709Y-109472726D01*
X65089745Y-109555843D01*
X65088539Y-109553754D01*
X65034780Y-109574519D01*
X64966339Y-109560461D01*
X64916364Y-109511632D01*
X64900499Y-109450949D01*
X64900499Y-108449522D01*
X64920184Y-108382484D01*
X64972988Y-108336729D01*
X65042146Y-108326785D01*
X65056595Y-108329749D01*
G37*
%TD.AperFunction*%
%TA.AperFunction,Conductor*%
G36*
X67043334Y-103460548D02*
G01*
X67087681Y-103489049D01*
X67181344Y-103582712D01*
X67265480Y-103634607D01*
X67312204Y-103686555D01*
X67323427Y-103755518D01*
X67295583Y-103819600D01*
X67263504Y-103846878D01*
X67135947Y-103922314D01*
X67135938Y-103922321D01*
X67019821Y-104038438D01*
X67019814Y-104038447D01*
X66936217Y-104179803D01*
X66936216Y-104179804D01*
X66913684Y-104257361D01*
X66876077Y-104316246D01*
X66845761Y-104330195D01*
X66867230Y-104340000D01*
X68001000Y-104340000D01*
X68068039Y-104359685D01*
X68113794Y-104412489D01*
X68125000Y-104464000D01*
X68125000Y-104716000D01*
X68105315Y-104783039D01*
X68052511Y-104828794D01*
X68001000Y-104840000D01*
X66890205Y-104840000D01*
X66890203Y-104840001D01*
X66890758Y-104847054D01*
X66876391Y-104915431D01*
X66859071Y-104932997D01*
X66912710Y-104964441D01*
X66931932Y-104993669D01*
X66932247Y-104993483D01*
X66936148Y-105000080D01*
X66936203Y-105000163D01*
X66936217Y-105000197D01*
X67019814Y-105141552D01*
X67019821Y-105141561D01*
X67135938Y-105257678D01*
X67135947Y-105257685D01*
X67277303Y-105341282D01*
X67277306Y-105341283D01*
X67435004Y-105387099D01*
X67435010Y-105387100D01*
X67471850Y-105389999D01*
X67471866Y-105390000D01*
X67624202Y-105390000D01*
X67691241Y-105409685D01*
X67736996Y-105462489D01*
X67746940Y-105531647D01*
X67717915Y-105595203D01*
X67711883Y-105601681D01*
X67660383Y-105653181D01*
X67599060Y-105686666D01*
X67572702Y-105689500D01*
X67471798Y-105689500D01*
X67434932Y-105692401D01*
X67434926Y-105692402D01*
X67277106Y-105738254D01*
X67277103Y-105738255D01*
X67135637Y-105821917D01*
X67135629Y-105821923D01*
X67104374Y-105853180D01*
X67043052Y-105886666D01*
X67016692Y-105889500D01*
X66661668Y-105889500D01*
X66594629Y-105869815D01*
X66556130Y-105830597D01*
X66542714Y-105808847D01*
X66542711Y-105808843D01*
X66448695Y-105714827D01*
X66415210Y-105653504D01*
X66420194Y-105583812D01*
X66448695Y-105539464D01*
X66542317Y-105445842D01*
X66634356Y-105296624D01*
X66634358Y-105296619D01*
X66689505Y-105130197D01*
X66689506Y-105130189D01*
X66699046Y-105036814D01*
X66725442Y-104972122D01*
X66729105Y-104969549D01*
X66716637Y-104965000D01*
X65624000Y-104965000D01*
X65556961Y-104945315D01*
X65511206Y-104892511D01*
X65500000Y-104841000D01*
X65500000Y-104589000D01*
X65519685Y-104521961D01*
X65572489Y-104476206D01*
X65624000Y-104465000D01*
X66699999Y-104465000D01*
X66699999Y-104451054D01*
X66719684Y-104384015D01*
X66770958Y-104339585D01*
X66743418Y-104335706D01*
X66690484Y-104290101D01*
X66676902Y-104261769D01*
X66634358Y-104133380D01*
X66634356Y-104133375D01*
X66542315Y-103984154D01*
X66483734Y-103925573D01*
X66450249Y-103864250D01*
X66455233Y-103794558D01*
X66497105Y-103738625D01*
X66532411Y-103720186D01*
X66547829Y-103715076D01*
X66669334Y-103674814D01*
X66818656Y-103582712D01*
X66912319Y-103489049D01*
X66973642Y-103455564D01*
X67043334Y-103460548D01*
G37*
%TD.AperFunction*%
%TA.AperFunction,Conductor*%
G36*
X75693039Y-91919685D02*
G01*
X75738794Y-91972489D01*
X75750000Y-92024000D01*
X75750000Y-92899999D01*
X76024972Y-92899999D01*
X76024986Y-92899998D01*
X76127697Y-92889505D01*
X76294119Y-92834358D01*
X76294124Y-92834356D01*
X76443341Y-92742318D01*
X76447814Y-92737845D01*
X76509136Y-92704357D01*
X76578827Y-92709338D01*
X76634763Y-92751206D01*
X76659184Y-92816669D01*
X76659500Y-92825522D01*
X76659500Y-93267870D01*
X76659501Y-93267876D01*
X76665908Y-93327479D01*
X76667692Y-93335026D01*
X76666229Y-93335371D01*
X76670585Y-93396371D01*
X76666173Y-93411396D01*
X76665908Y-93412517D01*
X76659501Y-93472117D01*
X76659500Y-93472136D01*
X76659500Y-94067870D01*
X76659501Y-94067876D01*
X76665908Y-94127479D01*
X76667692Y-94135026D01*
X76666229Y-94135371D01*
X76670585Y-94196371D01*
X76666173Y-94211396D01*
X76665908Y-94212517D01*
X76659501Y-94272117D01*
X76659500Y-94272136D01*
X76659500Y-94867870D01*
X76659501Y-94867876D01*
X76665908Y-94927479D01*
X76667692Y-94935026D01*
X76666229Y-94935371D01*
X76670585Y-94996371D01*
X76666173Y-95011396D01*
X76665908Y-95012517D01*
X76662690Y-95042454D01*
X76659501Y-95072123D01*
X76659500Y-95072136D01*
X76659500Y-95667870D01*
X76659501Y-95667876D01*
X76665909Y-95727487D01*
X76667692Y-95735031D01*
X76666438Y-95735327D01*
X76670856Y-95797069D01*
X76666864Y-95810664D01*
X76666401Y-95812624D01*
X76660000Y-95872155D01*
X76660000Y-95920000D01*
X76697306Y-95920000D01*
X76764345Y-95939685D01*
X76796570Y-95969686D01*
X76802454Y-95977546D01*
X76802455Y-95977546D01*
X76802456Y-95977548D01*
X76917664Y-96063793D01*
X76917671Y-96063797D01*
X77052517Y-96114091D01*
X77052516Y-96114091D01*
X77059444Y-96114835D01*
X77112127Y-96120500D01*
X79707872Y-96120499D01*
X79767483Y-96114091D01*
X79902331Y-96063796D01*
X80017546Y-95977546D01*
X80023428Y-95969687D01*
X80079361Y-95927818D01*
X80122694Y-95920000D01*
X80160000Y-95920000D01*
X80160000Y-95872172D01*
X80159999Y-95872155D01*
X80153598Y-95812627D01*
X80151814Y-95805076D01*
X80153459Y-95804687D01*
X80149143Y-95744361D01*
X80154058Y-95727619D01*
X80154089Y-95727489D01*
X80154089Y-95727488D01*
X80154091Y-95727483D01*
X80160500Y-95667873D01*
X80160499Y-95072128D01*
X80154091Y-95012517D01*
X80154090Y-95012515D01*
X80154090Y-95012512D01*
X80152308Y-95004969D01*
X80153773Y-95004622D01*
X80149409Y-94943651D01*
X80153819Y-94928633D01*
X80154089Y-94927488D01*
X80154088Y-94927488D01*
X80154091Y-94927483D01*
X80160500Y-94867873D01*
X80160499Y-94480123D01*
X80180183Y-94413086D01*
X80232987Y-94367331D01*
X80302146Y-94357387D01*
X80365701Y-94386412D01*
X80372179Y-94392443D01*
X81370455Y-95390720D01*
X81370457Y-95390721D01*
X81370461Y-95390724D01*
X81456544Y-95440423D01*
X81507387Y-95469777D01*
X81660114Y-95510701D01*
X81660116Y-95510701D01*
X81825825Y-95510701D01*
X81825841Y-95510700D01*
X82278103Y-95510700D01*
X82345142Y-95530385D01*
X82365784Y-95547019D01*
X84136701Y-97317936D01*
X84170186Y-97379259D01*
X84165202Y-97448951D01*
X84160000Y-97457045D01*
X84160000Y-100470000D01*
X84478003Y-100470000D01*
X84545042Y-100489685D01*
X84590797Y-100542489D01*
X84600741Y-100611647D01*
X84571716Y-100675203D01*
X84565684Y-100681681D01*
X84085884Y-101161481D01*
X84024561Y-101194966D01*
X83998203Y-101197800D01*
X81622640Y-101197800D01*
X81581719Y-101208764D01*
X81581719Y-101208765D01*
X81565627Y-101213077D01*
X81469914Y-101238723D01*
X81469909Y-101238726D01*
X81332990Y-101317775D01*
X81332982Y-101317781D01*
X81221178Y-101429586D01*
X81024840Y-101625923D01*
X80963517Y-101659408D01*
X80896898Y-101655524D01*
X80844981Y-101637702D01*
X80774393Y-101625923D01*
X80616049Y-101599500D01*
X80383951Y-101599500D01*
X80345550Y-101605908D01*
X80155015Y-101637702D01*
X79935504Y-101713061D01*
X79935495Y-101713064D01*
X79731371Y-101823531D01*
X79731365Y-101823535D01*
X79548222Y-101966081D01*
X79548218Y-101966085D01*
X79539866Y-101975158D01*
X79479979Y-102011148D01*
X79410141Y-102009047D01*
X79352525Y-101969522D01*
X79332455Y-101934507D01*
X79303797Y-101857671D01*
X79303793Y-101857664D01*
X79217547Y-101742455D01*
X79217544Y-101742452D01*
X79102335Y-101656206D01*
X79102328Y-101656202D01*
X78967482Y-101605908D01*
X78967483Y-101605908D01*
X78907883Y-101599501D01*
X78907881Y-101599500D01*
X78907873Y-101599500D01*
X78907864Y-101599500D01*
X77012129Y-101599500D01*
X77012123Y-101599501D01*
X76952516Y-101605908D01*
X76817671Y-101656202D01*
X76817664Y-101656206D01*
X76702455Y-101742452D01*
X76702452Y-101742455D01*
X76616206Y-101857664D01*
X76616202Y-101857671D01*
X76565908Y-101992517D01*
X76559501Y-102052116D01*
X76559500Y-102052135D01*
X76559500Y-102117170D01*
X76539815Y-102184209D01*
X76487011Y-102229964D01*
X76417853Y-102239908D01*
X76354297Y-102210883D01*
X76329961Y-102182267D01*
X76267712Y-102081344D01*
X76143656Y-101957288D01*
X75994334Y-101865186D01*
X75827797Y-101810001D01*
X75827795Y-101810000D01*
X75725010Y-101799500D01*
X75099998Y-101799500D01*
X75099980Y-101799501D01*
X74997203Y-101810000D01*
X74997200Y-101810001D01*
X74830668Y-101865185D01*
X74830663Y-101865187D01*
X74681342Y-101957289D01*
X74587681Y-102050951D01*
X74526358Y-102084436D01*
X74456666Y-102079452D01*
X74412319Y-102050951D01*
X74318657Y-101957289D01*
X74318656Y-101957288D01*
X74169334Y-101865186D01*
X74002797Y-101810001D01*
X74002795Y-101810000D01*
X73900010Y-101799500D01*
X73274998Y-101799500D01*
X73274980Y-101799501D01*
X73172203Y-101810000D01*
X73172200Y-101810001D01*
X73005668Y-101865185D01*
X73005663Y-101865187D01*
X72956295Y-101895638D01*
X72862280Y-101953626D01*
X72794889Y-101972066D01*
X72728226Y-101951143D01*
X72692191Y-101914059D01*
X72680616Y-101895638D01*
X72553062Y-101768084D01*
X72400323Y-101672111D01*
X72230054Y-101612531D01*
X72230049Y-101612530D01*
X72050804Y-101592335D01*
X72050796Y-101592335D01*
X71871550Y-101612530D01*
X71871545Y-101612531D01*
X71701276Y-101672111D01*
X71548537Y-101768084D01*
X71420984Y-101895637D01*
X71325011Y-102048376D01*
X71265431Y-102218645D01*
X71265430Y-102218650D01*
X71245235Y-102397896D01*
X71245235Y-102397903D01*
X71265430Y-102577149D01*
X71265431Y-102577154D01*
X71325011Y-102747423D01*
X71405307Y-102875212D01*
X71420984Y-102900162D01*
X71548538Y-103027716D01*
X71701278Y-103123689D01*
X71871545Y-103183268D01*
X71958469Y-103193061D01*
X72022880Y-103220126D01*
X72032265Y-103228600D01*
X72168039Y-103364374D01*
X72168060Y-103364397D01*
X72210050Y-103406387D01*
X72243535Y-103467710D01*
X72238551Y-103537402D01*
X72196679Y-103593335D01*
X72131215Y-103617752D01*
X72081414Y-103611110D01*
X71991454Y-103579631D01*
X71991449Y-103579630D01*
X71812204Y-103559435D01*
X71812196Y-103559435D01*
X71632950Y-103579630D01*
X71632945Y-103579631D01*
X71462676Y-103639211D01*
X71309937Y-103735184D01*
X71182384Y-103862737D01*
X71086411Y-104015476D01*
X71026831Y-104185745D01*
X71026830Y-104185750D01*
X71006635Y-104364996D01*
X71006635Y-104365003D01*
X71026830Y-104544249D01*
X71026831Y-104544254D01*
X71069007Y-104664784D01*
X71072568Y-104734563D01*
X71037839Y-104795191D01*
X70975846Y-104827418D01*
X70906271Y-104821013D01*
X70888845Y-104812472D01*
X70859624Y-104795191D01*
X70847898Y-104788256D01*
X70847896Y-104788255D01*
X70847894Y-104788254D01*
X70690073Y-104742402D01*
X70690067Y-104742401D01*
X70653201Y-104739500D01*
X70653194Y-104739500D01*
X69935800Y-104739500D01*
X69868761Y-104719815D01*
X69823006Y-104667011D01*
X69811800Y-104615500D01*
X69811800Y-103927860D01*
X69811801Y-103927847D01*
X69811801Y-103759744D01*
X69807474Y-103743594D01*
X69770877Y-103607016D01*
X69755067Y-103579632D01*
X69691824Y-103470090D01*
X69691818Y-103470082D01*
X68961818Y-102740082D01*
X68928333Y-102678759D01*
X68925499Y-102652401D01*
X68925499Y-102039998D01*
X68925498Y-102039981D01*
X68914999Y-101937203D01*
X68914998Y-101937200D01*
X68891135Y-101865186D01*
X68859814Y-101770666D01*
X68767712Y-101621344D01*
X68643656Y-101497288D01*
X68643655Y-101497287D01*
X68621365Y-101483539D01*
X68574640Y-101431592D01*
X68563417Y-101362629D01*
X68591260Y-101298547D01*
X68649329Y-101259690D01*
X68686461Y-101254000D01*
X69907731Y-101254000D01*
X69907747Y-101254001D01*
X69915343Y-101254001D01*
X70073454Y-101254001D01*
X70073457Y-101254001D01*
X70226185Y-101213077D01*
X70282237Y-101180715D01*
X70363116Y-101134020D01*
X70474920Y-101022216D01*
X70474920Y-101022214D01*
X70485124Y-101012011D01*
X70485128Y-101012006D01*
X70955938Y-100541196D01*
X71017261Y-100507711D01*
X71086953Y-100512695D01*
X71123485Y-100536174D01*
X71124456Y-100535018D01*
X71128591Y-100538487D01*
X71128599Y-100538495D01*
X71205135Y-100592086D01*
X71322165Y-100674032D01*
X71322167Y-100674033D01*
X71322170Y-100674035D01*
X71536337Y-100773903D01*
X71536343Y-100773904D01*
X71536344Y-100773905D01*
X71591285Y-100788626D01*
X71764592Y-100835063D01*
X71935319Y-100850000D01*
X71999999Y-100855659D01*
X72000000Y-100855659D01*
X72000001Y-100855659D01*
X72064681Y-100850000D01*
X72235408Y-100835063D01*
X72463663Y-100773903D01*
X72677830Y-100674035D01*
X72871401Y-100538495D01*
X72993717Y-100416178D01*
X73055036Y-100382696D01*
X73124728Y-100387680D01*
X73180662Y-100429551D01*
X73197577Y-100460528D01*
X73246646Y-100592088D01*
X73246649Y-100592093D01*
X73332809Y-100707187D01*
X73332812Y-100707190D01*
X73447906Y-100793350D01*
X73447913Y-100793354D01*
X73582620Y-100843596D01*
X73582627Y-100843598D01*
X73642155Y-100849999D01*
X73642172Y-100850000D01*
X74290000Y-100850000D01*
X74290000Y-99933012D01*
X74347007Y-99965925D01*
X74474174Y-100000000D01*
X74605826Y-100000000D01*
X74732993Y-99965925D01*
X74790000Y-99933012D01*
X74790000Y-100850000D01*
X75437828Y-100850000D01*
X75437844Y-100849999D01*
X75497372Y-100843598D01*
X75497379Y-100843596D01*
X75632086Y-100793354D01*
X75632093Y-100793350D01*
X75747187Y-100707190D01*
X75747190Y-100707187D01*
X75833350Y-100592093D01*
X75833354Y-100592086D01*
X75883596Y-100457379D01*
X75883598Y-100457372D01*
X75889999Y-100397844D01*
X75890000Y-100397827D01*
X75890000Y-99750000D01*
X74973012Y-99750000D01*
X75005925Y-99692993D01*
X75040000Y-99565826D01*
X75040000Y-99434174D01*
X75005925Y-99307007D01*
X74973012Y-99250000D01*
X75890000Y-99250000D01*
X75890000Y-99177824D01*
X75909685Y-99110785D01*
X75962489Y-99065030D01*
X76031647Y-99055086D01*
X76054956Y-99060783D01*
X76128640Y-99086567D01*
X76128650Y-99086569D01*
X76307896Y-99106765D01*
X76307900Y-99106765D01*
X76307904Y-99106765D01*
X76487149Y-99086569D01*
X76487152Y-99086568D01*
X76487155Y-99086568D01*
X76487156Y-99086567D01*
X76487159Y-99086567D01*
X76495044Y-99083808D01*
X76564823Y-99080245D01*
X76625451Y-99114974D01*
X76657678Y-99176967D01*
X76660000Y-99200849D01*
X76660000Y-100017844D01*
X76666401Y-100077372D01*
X76666403Y-100077379D01*
X76716645Y-100212086D01*
X76716649Y-100212093D01*
X76802809Y-100327187D01*
X76802812Y-100327190D01*
X76917906Y-100413350D01*
X76917913Y-100413354D01*
X77052620Y-100463596D01*
X77052627Y-100463598D01*
X77112155Y-100469999D01*
X77112172Y-100470000D01*
X78160000Y-100470000D01*
X78660000Y-100470000D01*
X79707828Y-100470000D01*
X79707844Y-100469999D01*
X79767372Y-100463598D01*
X79767379Y-100463596D01*
X79902086Y-100413354D01*
X79902093Y-100413350D01*
X80017187Y-100327190D01*
X80017190Y-100327187D01*
X80103350Y-100212093D01*
X80103354Y-100212086D01*
X80153596Y-100077379D01*
X80153598Y-100077372D01*
X80159999Y-100017844D01*
X82160000Y-100017844D01*
X82166401Y-100077372D01*
X82166403Y-100077379D01*
X82216645Y-100212086D01*
X82216649Y-100212093D01*
X82302809Y-100327187D01*
X82302812Y-100327190D01*
X82417906Y-100413350D01*
X82417913Y-100413354D01*
X82552620Y-100463596D01*
X82552627Y-100463598D01*
X82612155Y-100469999D01*
X82612172Y-100470000D01*
X83660000Y-100470000D01*
X83660000Y-99220000D01*
X82160000Y-99220000D01*
X82160000Y-100017844D01*
X80159999Y-100017844D01*
X80160000Y-100017827D01*
X80160000Y-99220000D01*
X78660000Y-99220000D01*
X78660000Y-100470000D01*
X78160000Y-100470000D01*
X78160000Y-98720000D01*
X78660000Y-98720000D01*
X80160000Y-98720000D01*
X80160000Y-97922172D01*
X80159999Y-97922155D01*
X82160000Y-97922155D01*
X82160000Y-98720000D01*
X83660000Y-98720000D01*
X83660000Y-97470000D01*
X82612155Y-97470000D01*
X82552627Y-97476401D01*
X82552620Y-97476403D01*
X82417913Y-97526645D01*
X82417906Y-97526649D01*
X82302812Y-97612809D01*
X82302809Y-97612812D01*
X82216649Y-97727906D01*
X82216645Y-97727913D01*
X82166403Y-97862620D01*
X82166401Y-97862627D01*
X82160000Y-97922155D01*
X80159999Y-97922155D01*
X80153598Y-97862627D01*
X80153596Y-97862620D01*
X80103354Y-97727913D01*
X80103350Y-97727906D01*
X80017190Y-97612812D01*
X80017187Y-97612809D01*
X79902093Y-97526649D01*
X79902086Y-97526645D01*
X79767379Y-97476403D01*
X79767372Y-97476401D01*
X79707844Y-97470000D01*
X78660000Y-97470000D01*
X78660000Y-98720000D01*
X78160000Y-98720000D01*
X78160000Y-97470000D01*
X77112155Y-97470000D01*
X77052627Y-97476401D01*
X77052620Y-97476403D01*
X76917913Y-97526645D01*
X76917910Y-97526647D01*
X76831802Y-97591108D01*
X76766338Y-97615525D01*
X76698065Y-97600673D01*
X76691520Y-97596835D01*
X76657425Y-97575412D01*
X76487154Y-97515831D01*
X76487149Y-97515830D01*
X76307904Y-97495635D01*
X76307896Y-97495635D01*
X76128650Y-97515830D01*
X76128645Y-97515831D01*
X75958376Y-97575411D01*
X75805636Y-97671385D01*
X75802803Y-97673645D01*
X75800624Y-97674534D01*
X75799742Y-97675089D01*
X75799644Y-97674934D01*
X75738117Y-97700055D01*
X75725488Y-97700700D01*
X75678771Y-97700700D01*
X75611732Y-97681015D01*
X75565977Y-97628211D01*
X75556033Y-97559053D01*
X75585058Y-97495497D01*
X75612799Y-97471707D01*
X75680256Y-97429320D01*
X75680257Y-97429319D01*
X75680262Y-97429316D01*
X75807816Y-97301762D01*
X75903789Y-97149022D01*
X75963368Y-96978755D01*
X75963603Y-96976668D01*
X75983565Y-96799503D01*
X75983565Y-96799496D01*
X75963369Y-96620250D01*
X75963368Y-96620245D01*
X75953971Y-96593391D01*
X75910041Y-96467844D01*
X76660000Y-96467844D01*
X76666401Y-96527372D01*
X76666403Y-96527379D01*
X76716645Y-96662086D01*
X76716649Y-96662093D01*
X76802809Y-96777187D01*
X76802812Y-96777190D01*
X76917906Y-96863350D01*
X76917913Y-96863354D01*
X77052620Y-96913596D01*
X77052627Y-96913598D01*
X77112155Y-96919999D01*
X77112172Y-96920000D01*
X78160000Y-96920000D01*
X78160000Y-96420000D01*
X78660000Y-96420000D01*
X78660000Y-96920000D01*
X79707828Y-96920000D01*
X79707844Y-96919999D01*
X79767372Y-96913598D01*
X79767379Y-96913596D01*
X79902086Y-96863354D01*
X79902093Y-96863350D01*
X80017187Y-96777190D01*
X80017190Y-96777187D01*
X80086234Y-96684958D01*
X80142168Y-96643087D01*
X80211859Y-96638103D01*
X80273182Y-96671589D01*
X80306666Y-96732912D01*
X80309500Y-96759269D01*
X80309500Y-96838993D01*
X80309500Y-96838995D01*
X80309499Y-96838995D01*
X80336418Y-96974322D01*
X80336421Y-96974332D01*
X80389221Y-97101804D01*
X80389228Y-97101817D01*
X80465885Y-97216541D01*
X80465888Y-97216545D01*
X80563454Y-97314111D01*
X80563458Y-97314114D01*
X80678182Y-97390771D01*
X80678195Y-97390778D01*
X80788142Y-97436319D01*
X80805672Y-97443580D01*
X80805676Y-97443580D01*
X80805677Y-97443581D01*
X80941004Y-97470500D01*
X80941007Y-97470500D01*
X81078995Y-97470500D01*
X81187326Y-97448951D01*
X81214328Y-97443580D01*
X81341811Y-97390775D01*
X81456542Y-97314114D01*
X81554114Y-97216542D01*
X81630775Y-97101811D01*
X81631319Y-97100499D01*
X81654805Y-97043797D01*
X81683580Y-96974328D01*
X81695660Y-96913598D01*
X81710500Y-96838995D01*
X81710500Y-96701004D01*
X81683581Y-96565677D01*
X81683580Y-96565676D01*
X81683580Y-96565672D01*
X81681055Y-96559576D01*
X81630778Y-96438195D01*
X81630771Y-96438182D01*
X81554114Y-96323458D01*
X81554111Y-96323454D01*
X81456545Y-96225888D01*
X81456541Y-96225885D01*
X81341817Y-96149228D01*
X81341804Y-96149221D01*
X81214332Y-96096421D01*
X81214322Y-96096418D01*
X81078995Y-96069500D01*
X81078993Y-96069500D01*
X80941007Y-96069500D01*
X80941005Y-96069500D01*
X80805677Y-96096418D01*
X80805667Y-96096421D01*
X80678195Y-96149221D01*
X80678182Y-96149228D01*
X80563458Y-96225885D01*
X80563454Y-96225888D01*
X80465888Y-96323454D01*
X80465885Y-96323458D01*
X80387102Y-96441365D01*
X80333490Y-96486170D01*
X80264165Y-96494877D01*
X80201137Y-96464722D01*
X80195344Y-96455344D01*
X80160000Y-96420000D01*
X78660000Y-96420000D01*
X78160000Y-96420000D01*
X76660000Y-96420000D01*
X76660000Y-96467844D01*
X75910041Y-96467844D01*
X75903789Y-96449978D01*
X75896381Y-96438189D01*
X75864582Y-96387580D01*
X75807816Y-96297238D01*
X75793413Y-96282835D01*
X75759928Y-96221512D01*
X75764912Y-96151820D01*
X75781828Y-96120842D01*
X75803351Y-96092090D01*
X75853597Y-95957376D01*
X75853598Y-95957372D01*
X75859999Y-95897844D01*
X75860000Y-95897827D01*
X75860000Y-95250000D01*
X74943012Y-95250000D01*
X74975925Y-95192993D01*
X75010000Y-95065826D01*
X75010000Y-94934174D01*
X74975925Y-94807007D01*
X74943012Y-94750000D01*
X75860000Y-94750000D01*
X75860000Y-94102172D01*
X75859999Y-94102155D01*
X75853598Y-94042627D01*
X75853596Y-94042620D01*
X75803354Y-93907913D01*
X75803350Y-93907906D01*
X75717190Y-93792812D01*
X75717187Y-93792809D01*
X75602093Y-93706649D01*
X75602086Y-93706645D01*
X75467379Y-93656403D01*
X75467372Y-93656401D01*
X75407844Y-93650000D01*
X74760000Y-93650000D01*
X74760000Y-94566988D01*
X74702993Y-94534075D01*
X74575826Y-94500000D01*
X74444174Y-94500000D01*
X74317007Y-94534075D01*
X74260000Y-94566988D01*
X74260000Y-93650000D01*
X73612155Y-93650000D01*
X73552627Y-93656401D01*
X73552620Y-93656403D01*
X73417913Y-93706645D01*
X73417906Y-93706649D01*
X73302812Y-93792809D01*
X73302809Y-93792812D01*
X73216649Y-93907906D01*
X73216645Y-93907913D01*
X73167578Y-94039470D01*
X73125707Y-94095404D01*
X73060242Y-94119821D01*
X72991969Y-94104969D01*
X72963715Y-94083819D01*
X72919366Y-94039470D01*
X72841401Y-93961505D01*
X72841397Y-93961502D01*
X72841396Y-93961501D01*
X72647834Y-93825967D01*
X72647830Y-93825965D01*
X72618221Y-93812158D01*
X72433663Y-93726097D01*
X72433659Y-93726096D01*
X72433655Y-93726094D01*
X72205413Y-93664938D01*
X72205403Y-93664936D01*
X71970001Y-93644341D01*
X71969999Y-93644341D01*
X71734596Y-93664936D01*
X71734586Y-93664938D01*
X71506344Y-93726094D01*
X71506330Y-93726099D01*
X71321777Y-93812158D01*
X71252700Y-93822650D01*
X71188916Y-93794130D01*
X71181692Y-93787457D01*
X70271818Y-92877583D01*
X70238333Y-92816260D01*
X70235499Y-92789902D01*
X70235499Y-92699986D01*
X72275001Y-92699986D01*
X72285494Y-92802697D01*
X72340641Y-92969119D01*
X72340643Y-92969124D01*
X72432684Y-93118345D01*
X72556654Y-93242315D01*
X72705875Y-93334356D01*
X72705880Y-93334358D01*
X72872302Y-93389505D01*
X72872309Y-93389506D01*
X72975019Y-93399999D01*
X73249999Y-93399999D01*
X73250000Y-93399998D01*
X73250000Y-92650000D01*
X72275001Y-92650000D01*
X72275001Y-92699986D01*
X70235499Y-92699986D01*
X70235499Y-92224300D01*
X70255184Y-92157261D01*
X70307988Y-92111506D01*
X70359499Y-92100300D01*
X72173938Y-92100300D01*
X72240977Y-92119985D01*
X72261619Y-92136619D01*
X72275000Y-92150000D01*
X73376000Y-92150000D01*
X73443039Y-92169685D01*
X73488794Y-92222489D01*
X73500000Y-92274000D01*
X73500000Y-92400000D01*
X73626000Y-92400000D01*
X73693039Y-92419685D01*
X73738794Y-92472489D01*
X73750000Y-92524000D01*
X73750000Y-93399999D01*
X74024972Y-93399999D01*
X74024986Y-93399998D01*
X74127697Y-93389505D01*
X74294119Y-93334358D01*
X74294124Y-93334356D01*
X74443345Y-93242315D01*
X74567315Y-93118345D01*
X74659359Y-92969118D01*
X74665194Y-92951510D01*
X74704966Y-92894064D01*
X74769481Y-92867239D01*
X74821905Y-92872805D01*
X74872302Y-92889505D01*
X74872309Y-92889506D01*
X74975019Y-92899999D01*
X75249999Y-92899999D01*
X75250000Y-92899998D01*
X75250000Y-92024000D01*
X75269685Y-91956961D01*
X75322489Y-91911206D01*
X75374000Y-91900000D01*
X75626000Y-91900000D01*
X75693039Y-91919685D01*
G37*
%TD.AperFunction*%
%TA.AperFunction,Conductor*%
G36*
X58934519Y-95424085D02*
G01*
X58980274Y-95476889D01*
X58990218Y-95546047D01*
X58978480Y-95583672D01*
X58969886Y-95600930D01*
X58969883Y-95600936D01*
X58914097Y-95797007D01*
X58914096Y-95797010D01*
X58895287Y-95999999D01*
X58895287Y-96000000D01*
X58914096Y-96202989D01*
X58914097Y-96202992D01*
X58969883Y-96399063D01*
X58969886Y-96399069D01*
X59060751Y-96581551D01*
X59062533Y-96583911D01*
X59062534Y-96583912D01*
X59705145Y-95941300D01*
X59700000Y-95960504D01*
X59700000Y-96039496D01*
X59720444Y-96115796D01*
X59759940Y-96184205D01*
X59815795Y-96240060D01*
X59884204Y-96279556D01*
X59960504Y-96300000D01*
X60039496Y-96300000D01*
X60115796Y-96279556D01*
X60184205Y-96240060D01*
X60240060Y-96184205D01*
X60279556Y-96115796D01*
X60300000Y-96039496D01*
X60300000Y-95960504D01*
X60294854Y-95941301D01*
X60498166Y-96144613D01*
X60530259Y-96200199D01*
X60538720Y-96231777D01*
X60538726Y-96231790D01*
X60617775Y-96368709D01*
X60617778Y-96368713D01*
X60617780Y-96368716D01*
X60729584Y-96480520D01*
X60729586Y-96480521D01*
X60729590Y-96480524D01*
X60837499Y-96542825D01*
X60885715Y-96593391D01*
X60898172Y-96644625D01*
X60899099Y-96644576D01*
X60899146Y-96644571D01*
X60899146Y-96644573D01*
X60899324Y-96644564D01*
X60899501Y-96647877D01*
X60905908Y-96707483D01*
X60956202Y-96842328D01*
X60956206Y-96842335D01*
X61042452Y-96957544D01*
X61042455Y-96957547D01*
X61157664Y-97043793D01*
X61157671Y-97043797D01*
X61292517Y-97094091D01*
X61292516Y-97094091D01*
X61299444Y-97094835D01*
X61352127Y-97100500D01*
X62647872Y-97100499D01*
X62707483Y-97094091D01*
X62842331Y-97043796D01*
X62957546Y-96957546D01*
X63043796Y-96842331D01*
X63094091Y-96707483D01*
X63094091Y-96707481D01*
X63095874Y-96699938D01*
X63098146Y-96700474D01*
X63120431Y-96646687D01*
X63177827Y-96606843D01*
X63216976Y-96600501D01*
X63343054Y-96600501D01*
X63343057Y-96600501D01*
X63495785Y-96559577D01*
X63545904Y-96530639D01*
X63632716Y-96480520D01*
X63744520Y-96368716D01*
X63744520Y-96368714D01*
X63744725Y-96368510D01*
X63806048Y-96335024D01*
X63875740Y-96340008D01*
X63931673Y-96381879D01*
X63943407Y-96400919D01*
X64033349Y-96581549D01*
X64035133Y-96583911D01*
X64035134Y-96583912D01*
X64677745Y-95941300D01*
X64672600Y-95960504D01*
X64672600Y-96039496D01*
X64693044Y-96115796D01*
X64732540Y-96184205D01*
X64788395Y-96240060D01*
X64856804Y-96279556D01*
X64933104Y-96300000D01*
X65012096Y-96300000D01*
X65031298Y-96294854D01*
X64391912Y-96934240D01*
X64397352Y-96981134D01*
X64385524Y-97049995D01*
X64361860Y-97083104D01*
X64276120Y-97168845D01*
X64044282Y-97400682D01*
X63982961Y-97434166D01*
X63956603Y-97437000D01*
X59409487Y-97437000D01*
X59342448Y-97417315D01*
X59332174Y-97409947D01*
X59329462Y-97407784D01*
X59176723Y-97311811D01*
X59006454Y-97252231D01*
X59006449Y-97252230D01*
X58827204Y-97232035D01*
X58827196Y-97232035D01*
X58647950Y-97252230D01*
X58647945Y-97252231D01*
X58477676Y-97311811D01*
X58324937Y-97407784D01*
X58197384Y-97535337D01*
X58101411Y-97688076D01*
X58041831Y-97858345D01*
X58041830Y-97858350D01*
X58021635Y-98037596D01*
X58021635Y-98037603D01*
X58026718Y-98082717D01*
X58014664Y-98151538D01*
X57967314Y-98202918D01*
X57903498Y-98220600D01*
X57304212Y-98220600D01*
X57237173Y-98200915D01*
X57226897Y-98193545D01*
X57224063Y-98191285D01*
X57224062Y-98191284D01*
X57149353Y-98144341D01*
X57071323Y-98095311D01*
X56901054Y-98035731D01*
X56901049Y-98035730D01*
X56721804Y-98015535D01*
X56721796Y-98015535D01*
X56542550Y-98035730D01*
X56542545Y-98035731D01*
X56372276Y-98095311D01*
X56352758Y-98107575D01*
X56285521Y-98126573D01*
X56218686Y-98106203D01*
X56173474Y-98052934D01*
X56169083Y-98041583D01*
X56167144Y-98035731D01*
X56134814Y-97938166D01*
X56133164Y-97935492D01*
X56132594Y-97933407D01*
X56131760Y-97931618D01*
X56132065Y-97931475D01*
X56114727Y-97868100D01*
X56135652Y-97801437D01*
X56164393Y-97771134D01*
X56182546Y-97757546D01*
X56268796Y-97642331D01*
X56319091Y-97507483D01*
X56325500Y-97447873D01*
X56325500Y-96934240D01*
X59419311Y-96934240D01*
X59507585Y-96988897D01*
X59697678Y-97062539D01*
X59898072Y-97100000D01*
X60101928Y-97100000D01*
X60302322Y-97062539D01*
X60492412Y-96988899D01*
X60492416Y-96988897D01*
X60580686Y-96934241D01*
X60580686Y-96934240D01*
X60000001Y-96353553D01*
X60000000Y-96353553D01*
X59419311Y-96934240D01*
X56325500Y-96934240D01*
X56325499Y-95552128D01*
X56324373Y-95541653D01*
X56336779Y-95472895D01*
X56384390Y-95421758D01*
X56447663Y-95404400D01*
X58867480Y-95404400D01*
X58934519Y-95424085D01*
G37*
%TD.AperFunction*%
%TA.AperFunction,Conductor*%
G36*
X68353334Y-93598048D02*
G01*
X68397681Y-93626549D01*
X68491344Y-93720212D01*
X68640666Y-93812314D01*
X68807203Y-93867499D01*
X68909991Y-93878000D01*
X69522402Y-93877999D01*
X69589441Y-93897683D01*
X69610083Y-93914318D01*
X70181481Y-94485716D01*
X70214966Y-94547039D01*
X70217800Y-94573397D01*
X70217800Y-95079057D01*
X70258330Y-95230315D01*
X70258723Y-95231783D01*
X70258726Y-95231790D01*
X70337775Y-95368709D01*
X70337779Y-95368714D01*
X70337780Y-95368716D01*
X70449584Y-95480520D01*
X70449586Y-95480521D01*
X70449590Y-95480524D01*
X70586509Y-95559573D01*
X70586516Y-95559577D01*
X70707005Y-95591861D01*
X70766662Y-95628225D01*
X70787290Y-95659228D01*
X70795963Y-95677826D01*
X70795965Y-95677831D01*
X70879414Y-95797007D01*
X70920290Y-95855385D01*
X70931501Y-95871395D01*
X70931506Y-95871402D01*
X71047423Y-95987319D01*
X71080908Y-96048642D01*
X71075924Y-96118334D01*
X71034052Y-96174267D01*
X70968588Y-96198684D01*
X70959742Y-96199000D01*
X68384557Y-96199000D01*
X68226443Y-96199000D01*
X68226441Y-96199000D01*
X68218387Y-96200061D01*
X68218116Y-96198002D01*
X68159325Y-96196594D01*
X68101468Y-96157423D01*
X68073974Y-96093191D01*
X68073099Y-96078488D01*
X68073099Y-95352129D01*
X68073098Y-95352123D01*
X68073097Y-95352116D01*
X68066691Y-95292517D01*
X68050833Y-95250000D01*
X68016397Y-95157671D01*
X68016393Y-95157664D01*
X67930147Y-95042455D01*
X67930144Y-95042452D01*
X67814935Y-94956206D01*
X67814928Y-94956202D01*
X67680082Y-94905908D01*
X67680083Y-94905908D01*
X67620483Y-94899501D01*
X67620481Y-94899500D01*
X67620473Y-94899500D01*
X67620464Y-94899500D01*
X66324729Y-94899500D01*
X66324723Y-94899501D01*
X66265116Y-94905908D01*
X66130271Y-94956202D01*
X66130264Y-94956206D01*
X66015055Y-95042452D01*
X66015052Y-95042455D01*
X65928806Y-95157664D01*
X65928802Y-95157671D01*
X65878508Y-95292517D01*
X65875174Y-95323535D01*
X65872101Y-95352123D01*
X65871922Y-95355452D01*
X65870459Y-95355373D01*
X65852415Y-95416826D01*
X65810100Y-95457174D01*
X65702187Y-95519477D01*
X65702182Y-95519481D01*
X65590381Y-95631282D01*
X65590377Y-95631287D01*
X65511324Y-95768212D01*
X65511322Y-95768217D01*
X65502859Y-95799800D01*
X65470767Y-95855385D01*
X65267454Y-96058699D01*
X65272600Y-96039496D01*
X65272600Y-95960504D01*
X65252156Y-95884204D01*
X65212660Y-95815795D01*
X65156805Y-95759940D01*
X65088396Y-95720444D01*
X65012096Y-95700000D01*
X64933104Y-95700000D01*
X64913899Y-95705145D01*
X65553287Y-95065758D01*
X65465013Y-95011101D01*
X65465011Y-95011100D01*
X65380908Y-94978519D01*
X65325507Y-94935946D01*
X65301916Y-94870179D01*
X65317627Y-94802099D01*
X65338012Y-94775221D01*
X66442004Y-93671230D01*
X66503325Y-93637747D01*
X66573017Y-93642731D01*
X66617364Y-93671232D01*
X66666344Y-93720212D01*
X66815666Y-93812314D01*
X66982203Y-93867499D01*
X67084991Y-93878000D01*
X67710008Y-93877999D01*
X67710016Y-93877998D01*
X67710019Y-93877998D01*
X67770888Y-93871780D01*
X67812797Y-93867499D01*
X67979334Y-93812314D01*
X68128656Y-93720212D01*
X68222319Y-93626549D01*
X68283642Y-93593064D01*
X68353334Y-93598048D01*
G37*
%TD.AperFunction*%
%TA.AperFunction,Conductor*%
G36*
X49705457Y-88775177D02*
G01*
X49762643Y-88790501D01*
X49762644Y-88790501D01*
X49928354Y-88790501D01*
X49928370Y-88790500D01*
X53127992Y-88790500D01*
X53195031Y-88810185D01*
X53240786Y-88862989D01*
X53250730Y-88932147D01*
X53240374Y-88966905D01*
X53226569Y-88996507D01*
X53226567Y-88996513D01*
X53169364Y-89209999D01*
X53169364Y-89210000D01*
X54066988Y-89210000D01*
X54034075Y-89267007D01*
X54000000Y-89394174D01*
X54000000Y-89525826D01*
X54034075Y-89652993D01*
X54066988Y-89710000D01*
X53169364Y-89710000D01*
X53226567Y-89923486D01*
X53226570Y-89923492D01*
X53326399Y-90137578D01*
X53461894Y-90331082D01*
X53583946Y-90453134D01*
X53617431Y-90514457D01*
X53612447Y-90584149D01*
X53570575Y-90640082D01*
X53539598Y-90656997D01*
X53407671Y-90706202D01*
X53407664Y-90706206D01*
X53292455Y-90792452D01*
X53292452Y-90792455D01*
X53206206Y-90907664D01*
X53206202Y-90907671D01*
X53155908Y-91042517D01*
X53149501Y-91102116D01*
X53149500Y-91102135D01*
X53149500Y-92897870D01*
X53149501Y-92897881D01*
X53154077Y-92940452D01*
X53141669Y-93009211D01*
X53135782Y-93019674D01*
X53068608Y-93126582D01*
X53009033Y-93296837D01*
X53009030Y-93296850D01*
X52988835Y-93476096D01*
X52988835Y-93477700D01*
X52988541Y-93478698D01*
X52988055Y-93483019D01*
X52987298Y-93482933D01*
X52969150Y-93544739D01*
X52916346Y-93590494D01*
X52864835Y-93601700D01*
X51073997Y-93601700D01*
X51006958Y-93582015D01*
X50986316Y-93565381D01*
X50139290Y-92718355D01*
X50139288Y-92718352D01*
X50020417Y-92599481D01*
X50020416Y-92599480D01*
X49933604Y-92549360D01*
X49933604Y-92549359D01*
X49933600Y-92549358D01*
X49916112Y-92539260D01*
X49883486Y-92520423D01*
X49762994Y-92488137D01*
X49703334Y-92451771D01*
X49682708Y-92420768D01*
X49674038Y-92402176D01*
X49674034Y-92402169D01*
X49538494Y-92208597D01*
X49371402Y-92041506D01*
X49371401Y-92041505D01*
X49185405Y-91911269D01*
X49141781Y-91856692D01*
X49134588Y-91787193D01*
X49166110Y-91724839D01*
X49185405Y-91708119D01*
X49371082Y-91578105D01*
X49538105Y-91411082D01*
X49673600Y-91217578D01*
X49773429Y-91003492D01*
X49773432Y-91003486D01*
X49830636Y-90790000D01*
X48933012Y-90790000D01*
X48965925Y-90732993D01*
X49000000Y-90605826D01*
X49000000Y-90474174D01*
X48965925Y-90347007D01*
X48933012Y-90290000D01*
X49830636Y-90290000D01*
X49830635Y-90289999D01*
X49773432Y-90076513D01*
X49773429Y-90076507D01*
X49673600Y-89862422D01*
X49673599Y-89862420D01*
X49538113Y-89668926D01*
X49538108Y-89668920D01*
X49371078Y-89501890D01*
X49185405Y-89371879D01*
X49141780Y-89317302D01*
X49134588Y-89247804D01*
X49166110Y-89185449D01*
X49185406Y-89168730D01*
X49294562Y-89092298D01*
X49371401Y-89038495D01*
X49538495Y-88871401D01*
X49571802Y-88823833D01*
X49626377Y-88780208D01*
X49695875Y-88773013D01*
X49705457Y-88775177D01*
G37*
%TD.AperFunction*%
%TA.AperFunction,Conductor*%
G36*
X82682540Y-85810185D02*
G01*
X82728295Y-85862989D01*
X82739501Y-85914500D01*
X82739501Y-86137876D01*
X82745908Y-86197483D01*
X82796202Y-86332328D01*
X82796206Y-86332335D01*
X82882452Y-86447544D01*
X82882455Y-86447547D01*
X82997664Y-86533793D01*
X82997673Y-86533798D01*
X83077904Y-86563722D01*
X83133838Y-86605593D01*
X83158256Y-86671057D01*
X83143405Y-86739330D01*
X83125802Y-86763886D01*
X83031019Y-86866849D01*
X82904075Y-87061151D01*
X82810842Y-87273699D01*
X82753866Y-87498691D01*
X82753864Y-87498702D01*
X82734700Y-87729993D01*
X82734700Y-87730006D01*
X82753864Y-87961297D01*
X82753866Y-87961308D01*
X82810842Y-88186300D01*
X82904076Y-88398850D01*
X82955904Y-88478178D01*
X82976092Y-88545068D01*
X82956913Y-88612253D01*
X82904454Y-88658404D01*
X82852096Y-88670000D01*
X82612155Y-88670000D01*
X82552627Y-88676401D01*
X82552620Y-88676403D01*
X82417913Y-88726645D01*
X82417906Y-88726649D01*
X82302812Y-88812809D01*
X82302809Y-88812812D01*
X82216649Y-88927906D01*
X82216645Y-88927913D01*
X82166403Y-89062620D01*
X82166401Y-89062627D01*
X82160000Y-89122155D01*
X82160000Y-89920000D01*
X83786000Y-89920000D01*
X83853039Y-89939685D01*
X83898794Y-89992489D01*
X83910000Y-90044000D01*
X83910000Y-90170000D01*
X84036000Y-90170000D01*
X84103039Y-90189685D01*
X84148794Y-90242489D01*
X84160000Y-90294000D01*
X84160000Y-91693152D01*
X84165636Y-91703474D01*
X84160652Y-91773166D01*
X84132151Y-91817513D01*
X82949484Y-93000181D01*
X82888161Y-93033666D01*
X82861803Y-93036500D01*
X81896912Y-93036500D01*
X81829873Y-93016815D01*
X81819597Y-93009445D01*
X81816763Y-93007185D01*
X81816762Y-93007184D01*
X81750621Y-92965624D01*
X81664018Y-92911208D01*
X81661615Y-92910051D01*
X81660330Y-92908890D01*
X81658126Y-92907506D01*
X81658368Y-92907119D01*
X81609755Y-92863229D01*
X81591442Y-92795802D01*
X81612315Y-92729439D01*
X81630770Y-92701819D01*
X81630771Y-92701816D01*
X81630775Y-92701811D01*
X81683580Y-92574328D01*
X81703837Y-92472489D01*
X81710500Y-92438995D01*
X81710500Y-92301004D01*
X81683581Y-92165677D01*
X81683580Y-92165676D01*
X81683580Y-92165672D01*
X81680096Y-92157261D01*
X81630778Y-92038195D01*
X81630771Y-92038182D01*
X81554114Y-91923458D01*
X81554111Y-91923454D01*
X81456545Y-91825888D01*
X81456541Y-91825885D01*
X81341817Y-91749228D01*
X81341804Y-91749221D01*
X81214332Y-91696421D01*
X81214322Y-91696418D01*
X81078995Y-91669500D01*
X81078993Y-91669500D01*
X80941007Y-91669500D01*
X80941005Y-91669500D01*
X80805677Y-91696418D01*
X80805667Y-91696421D01*
X80678195Y-91749221D01*
X80678182Y-91749228D01*
X80563458Y-91825885D01*
X80563454Y-91825888D01*
X80465888Y-91923454D01*
X80465885Y-91923458D01*
X80389228Y-92038182D01*
X80389221Y-92038195D01*
X80336421Y-92165667D01*
X80336419Y-92165676D01*
X80313768Y-92279544D01*
X80281382Y-92341454D01*
X80220666Y-92376028D01*
X80160060Y-92375126D01*
X80139061Y-92369499D01*
X80139057Y-92369499D01*
X80068228Y-92369499D01*
X80001189Y-92349814D01*
X79993917Y-92344765D01*
X79902335Y-92276206D01*
X79902328Y-92276202D01*
X79767482Y-92225908D01*
X79767483Y-92225908D01*
X79707883Y-92219501D01*
X79707881Y-92219500D01*
X79707873Y-92219500D01*
X79707865Y-92219500D01*
X77857821Y-92219500D01*
X77790782Y-92199815D01*
X77745027Y-92147011D01*
X77735083Y-92077853D01*
X77748389Y-92041623D01*
X77746669Y-92040795D01*
X77749686Y-92034529D01*
X77749687Y-92034523D01*
X77749689Y-92034522D01*
X77809268Y-91864255D01*
X77809269Y-91864250D01*
X77818749Y-91780116D01*
X77845816Y-91715702D01*
X77903411Y-91676147D01*
X77941969Y-91670000D01*
X78160000Y-91670000D01*
X78160000Y-89562600D01*
X78179685Y-89495561D01*
X78232489Y-89449806D01*
X78284000Y-89438600D01*
X78536000Y-89438600D01*
X78603039Y-89458285D01*
X78648794Y-89511089D01*
X78660000Y-89562600D01*
X78660000Y-91670000D01*
X79707828Y-91670000D01*
X79707844Y-91669999D01*
X79767372Y-91663598D01*
X79767379Y-91663596D01*
X79902086Y-91613354D01*
X79902093Y-91613350D01*
X80017187Y-91527190D01*
X80017190Y-91527187D01*
X80103350Y-91412093D01*
X80103354Y-91412086D01*
X80153596Y-91277379D01*
X80153598Y-91277372D01*
X80159999Y-91217844D01*
X82160000Y-91217844D01*
X82166401Y-91277372D01*
X82166403Y-91277379D01*
X82216645Y-91412086D01*
X82216649Y-91412093D01*
X82302809Y-91527187D01*
X82302812Y-91527190D01*
X82417906Y-91613350D01*
X82417913Y-91613354D01*
X82552620Y-91663596D01*
X82552627Y-91663598D01*
X82612155Y-91669999D01*
X82612172Y-91670000D01*
X83660000Y-91670000D01*
X83660000Y-90420000D01*
X82160000Y-90420000D01*
X82160000Y-91217844D01*
X80159999Y-91217844D01*
X80160000Y-91217827D01*
X80160000Y-90308812D01*
X80179685Y-90241773D01*
X80232489Y-90196018D01*
X80301647Y-90186074D01*
X80314095Y-90189116D01*
X80314163Y-90188820D01*
X80320948Y-90190369D01*
X80500196Y-90210565D01*
X80500200Y-90210565D01*
X80500204Y-90210565D01*
X80679449Y-90190369D01*
X80679452Y-90190368D01*
X80679455Y-90190368D01*
X80849722Y-90130789D01*
X81002462Y-90034816D01*
X81130016Y-89907262D01*
X81225989Y-89754522D01*
X81285568Y-89584255D01*
X81290249Y-89542712D01*
X81305765Y-89405003D01*
X81305765Y-89404996D01*
X81285569Y-89225750D01*
X81285568Y-89225745D01*
X81267474Y-89174035D01*
X81225989Y-89055478D01*
X81201771Y-89016936D01*
X81146719Y-88929321D01*
X81130016Y-88902738D01*
X81002462Y-88775184D01*
X80925213Y-88726645D01*
X80849721Y-88679210D01*
X80679449Y-88619630D01*
X80592531Y-88609837D01*
X80528117Y-88582770D01*
X80518734Y-88574298D01*
X80302017Y-88357581D01*
X80302009Y-88357575D01*
X80197236Y-88297085D01*
X80197233Y-88297084D01*
X80165086Y-88278523D01*
X80165087Y-88278523D01*
X80103993Y-88262153D01*
X80012357Y-88237599D01*
X79854243Y-88237599D01*
X79846647Y-88237599D01*
X79846631Y-88237600D01*
X79723625Y-88237600D01*
X79656586Y-88217915D01*
X79610831Y-88165111D01*
X79600887Y-88095953D01*
X79620523Y-88044709D01*
X79633340Y-88025526D01*
X79633347Y-88025513D01*
X79710609Y-87838983D01*
X79710612Y-87838974D01*
X79720353Y-87790000D01*
X78780330Y-87790000D01*
X78800075Y-87770255D01*
X78849444Y-87684745D01*
X78875000Y-87589370D01*
X78875000Y-87490630D01*
X78849444Y-87395255D01*
X78800075Y-87309745D01*
X78785830Y-87295500D01*
X78826004Y-87295500D01*
X78826004Y-87295499D01*
X78839473Y-87292820D01*
X78841674Y-87292383D01*
X78865866Y-87290000D01*
X79720353Y-87290000D01*
X79710612Y-87241025D01*
X79710609Y-87241016D01*
X79633347Y-87054486D01*
X79633343Y-87054479D01*
X79579795Y-86974340D01*
X79558917Y-86907662D01*
X79577401Y-86840282D01*
X79579733Y-86836652D01*
X79633786Y-86755756D01*
X79711091Y-86569127D01*
X79750500Y-86371003D01*
X79750500Y-86168997D01*
X79711091Y-85970873D01*
X79707396Y-85961954D01*
X79699927Y-85892488D01*
X79731200Y-85830007D01*
X79791288Y-85794354D01*
X79813002Y-85791625D01*
X79812982Y-85791459D01*
X79812990Y-85791458D01*
X79815666Y-85791291D01*
X79821957Y-85790501D01*
X79828354Y-85790501D01*
X79828370Y-85790500D01*
X82615501Y-85790500D01*
X82682540Y-85810185D01*
G37*
%TD.AperFunction*%
%TA.AperFunction,Conductor*%
G36*
X56600842Y-88810185D02*
G01*
X56621484Y-88826819D01*
X57549384Y-89754719D01*
X57582869Y-89816042D01*
X57577885Y-89885734D01*
X57536013Y-89941667D01*
X57470549Y-89966084D01*
X57461703Y-89966400D01*
X56252141Y-89966400D01*
X56185102Y-89946715D01*
X56164460Y-89930082D01*
X56120112Y-89885734D01*
X56058862Y-89824484D01*
X55947520Y-89754523D01*
X55906123Y-89728511D01*
X55735854Y-89668931D01*
X55735849Y-89668930D01*
X55556604Y-89648735D01*
X55556596Y-89648735D01*
X55377350Y-89668930D01*
X55377337Y-89668933D01*
X55279865Y-89703041D01*
X55238910Y-89710000D01*
X54933012Y-89710000D01*
X54965925Y-89652993D01*
X55000000Y-89525826D01*
X55000000Y-89394174D01*
X54965925Y-89267007D01*
X54933012Y-89210000D01*
X55830636Y-89210000D01*
X55830635Y-89209999D01*
X55773432Y-88996513D01*
X55773430Y-88996507D01*
X55759626Y-88966905D01*
X55749134Y-88897828D01*
X55777653Y-88834044D01*
X55836130Y-88795804D01*
X55872008Y-88790500D01*
X56533803Y-88790500D01*
X56600842Y-88810185D01*
G37*
%TD.AperFunction*%
%TA.AperFunction,Conductor*%
G36*
X77325153Y-86890185D02*
G01*
X77370908Y-86942989D01*
X77380852Y-87012147D01*
X77368837Y-87048788D01*
X77368987Y-87048851D01*
X77368169Y-87050824D01*
X77367470Y-87052958D01*
X77366652Y-87054487D01*
X77289390Y-87241016D01*
X77289387Y-87241025D01*
X77279647Y-87290000D01*
X78134134Y-87290000D01*
X78158326Y-87292383D01*
X78161123Y-87292939D01*
X78173995Y-87295499D01*
X78173996Y-87295500D01*
X78173997Y-87295500D01*
X78214170Y-87295500D01*
X78199925Y-87309745D01*
X78150556Y-87395255D01*
X78125000Y-87490630D01*
X78125000Y-87589370D01*
X78150556Y-87684745D01*
X78199925Y-87770255D01*
X78219670Y-87790000D01*
X77279647Y-87790000D01*
X77289387Y-87838974D01*
X77289390Y-87838983D01*
X77366652Y-88025513D01*
X77366659Y-88025526D01*
X77379477Y-88044709D01*
X77400355Y-88111387D01*
X77381870Y-88178767D01*
X77329892Y-88225457D01*
X77276375Y-88237600D01*
X75160869Y-88237600D01*
X75160853Y-88237599D01*
X75153257Y-88237599D01*
X74995143Y-88237599D01*
X74918779Y-88258061D01*
X74842412Y-88278523D01*
X74810267Y-88297084D01*
X74810259Y-88297088D01*
X74808208Y-88298272D01*
X74740307Y-88314741D01*
X74674282Y-88291886D01*
X74631094Y-88236962D01*
X74624456Y-88167408D01*
X74656476Y-88105307D01*
X74658533Y-88103201D01*
X75172235Y-87589500D01*
X75854916Y-86906819D01*
X75916239Y-86873334D01*
X75942597Y-86870500D01*
X77258114Y-86870500D01*
X77325153Y-86890185D01*
G37*
%TD.AperFunction*%
%TA.AperFunction,Conductor*%
G36*
X78750000Y-88113600D02*
G01*
X78730315Y-88180639D01*
X78677511Y-88226394D01*
X78626000Y-88237600D01*
X78374000Y-88237600D01*
X78306961Y-88217915D01*
X78261206Y-88165111D01*
X78250000Y-88113600D01*
X78250000Y-87820330D01*
X78269745Y-87840075D01*
X78355255Y-87889444D01*
X78450630Y-87915000D01*
X78549370Y-87915000D01*
X78644745Y-87889444D01*
X78730255Y-87840075D01*
X78750000Y-87820330D01*
X78750000Y-88113600D01*
G37*
%TD.AperFunction*%
%TA.AperFunction,Conductor*%
G36*
X58166542Y-83839385D02*
G01*
X58187184Y-83856019D01*
X58374639Y-84043474D01*
X58374649Y-84043485D01*
X58378979Y-84047815D01*
X58378980Y-84047816D01*
X58490784Y-84159620D01*
X58559483Y-84199283D01*
X58627715Y-84238677D01*
X58780443Y-84279601D01*
X58780446Y-84279601D01*
X58946153Y-84279601D01*
X58946169Y-84279600D01*
X59272870Y-84279600D01*
X59339909Y-84299285D01*
X59385664Y-84352089D01*
X59395608Y-84421247D01*
X59378409Y-84468696D01*
X59340189Y-84530659D01*
X59340185Y-84530668D01*
X59316117Y-84603300D01*
X59285001Y-84697203D01*
X59285001Y-84697204D01*
X59285000Y-84697204D01*
X59274500Y-84799983D01*
X59274500Y-85400001D01*
X59274501Y-85400019D01*
X59285000Y-85502796D01*
X59285001Y-85502799D01*
X59340185Y-85669331D01*
X59340187Y-85669336D01*
X59365458Y-85710306D01*
X59432288Y-85818656D01*
X59556344Y-85942712D01*
X59559628Y-85944737D01*
X59559653Y-85944753D01*
X59561445Y-85946746D01*
X59562011Y-85947193D01*
X59561934Y-85947289D01*
X59606379Y-85996699D01*
X59617603Y-86065661D01*
X59589761Y-86129744D01*
X59559665Y-86155826D01*
X59556660Y-86157679D01*
X59556655Y-86157683D01*
X59432684Y-86281654D01*
X59340643Y-86430875D01*
X59340641Y-86430880D01*
X59285494Y-86597302D01*
X59285493Y-86597309D01*
X59275000Y-86700013D01*
X59275000Y-86750000D01*
X61724999Y-86750000D01*
X61724999Y-86700028D01*
X61724998Y-86700013D01*
X61714505Y-86597302D01*
X61659358Y-86430880D01*
X61659356Y-86430875D01*
X61567315Y-86281654D01*
X61443344Y-86157683D01*
X61443341Y-86157681D01*
X61440339Y-86155829D01*
X61438713Y-86154021D01*
X61437677Y-86153202D01*
X61437817Y-86153024D01*
X61393617Y-86103880D01*
X61382397Y-86034917D01*
X61410243Y-85970836D01*
X61440344Y-85944754D01*
X61443656Y-85942712D01*
X61567712Y-85818656D01*
X61659814Y-85669334D01*
X61714999Y-85502797D01*
X61725500Y-85400009D01*
X61725499Y-84960658D01*
X61745183Y-84893620D01*
X61797987Y-84847865D01*
X61867146Y-84837921D01*
X61890452Y-84843617D01*
X61907745Y-84849668D01*
X61907748Y-84849668D01*
X61907750Y-84849669D01*
X62086996Y-84869865D01*
X62087000Y-84869865D01*
X62087004Y-84869865D01*
X62266249Y-84849669D01*
X62266252Y-84849668D01*
X62266255Y-84849668D01*
X62436522Y-84790089D01*
X62589262Y-84694116D01*
X62644559Y-84638819D01*
X62705882Y-84605334D01*
X62732240Y-84602500D01*
X66986803Y-84602500D01*
X67053842Y-84622185D01*
X67099597Y-84674989D01*
X67109541Y-84744147D01*
X67080516Y-84807703D01*
X67074485Y-84814179D01*
X65823003Y-86065661D01*
X64631286Y-87257378D01*
X64631281Y-87257381D01*
X64631282Y-87257382D01*
X64612972Y-87275691D01*
X64551648Y-87309174D01*
X64509678Y-87309244D01*
X64509531Y-87310689D01*
X64400010Y-87299500D01*
X63774998Y-87299500D01*
X63774980Y-87299501D01*
X63672203Y-87310000D01*
X63672200Y-87310001D01*
X63539106Y-87354105D01*
X63500102Y-87360399D01*
X63461747Y-87360399D01*
X63461731Y-87360400D01*
X61849000Y-87360400D01*
X61781961Y-87340715D01*
X61736206Y-87287911D01*
X61728781Y-87253781D01*
X61725000Y-87250000D01*
X60010042Y-87250000D01*
X59956241Y-87237720D01*
X59950821Y-87235110D01*
X59780562Y-87175533D01*
X59780549Y-87175530D01*
X59601304Y-87155335D01*
X59601296Y-87155335D01*
X59422050Y-87175530D01*
X59422045Y-87175531D01*
X59251776Y-87235111D01*
X59099037Y-87331084D01*
X58971484Y-87458637D01*
X58944192Y-87502073D01*
X58891857Y-87548364D01*
X58822803Y-87559012D01*
X58758955Y-87530637D01*
X58751517Y-87523782D01*
X56420890Y-85193155D01*
X56420888Y-85193152D01*
X56302017Y-85074281D01*
X56302009Y-85074275D01*
X56213164Y-85022981D01*
X56213163Y-85022981D01*
X56192843Y-85011249D01*
X56165085Y-84995223D01*
X56012357Y-84954299D01*
X55905858Y-84954299D01*
X55838819Y-84934614D01*
X55793064Y-84881810D01*
X55783120Y-84812652D01*
X55786083Y-84798206D01*
X55788258Y-84790088D01*
X55835063Y-84615408D01*
X55855659Y-84380000D01*
X55835063Y-84144592D01*
X55789834Y-83975793D01*
X55791497Y-83905943D01*
X55830660Y-83848081D01*
X55894888Y-83820577D01*
X55909609Y-83819700D01*
X58099503Y-83819700D01*
X58166542Y-83839385D01*
G37*
%TD.AperFunction*%
%TA.AperFunction,Conductor*%
G36*
X80046575Y-80549854D02*
G01*
X80067643Y-80555500D01*
X80225757Y-80555500D01*
X82615501Y-80555500D01*
X82682540Y-80575185D01*
X82728295Y-80627989D01*
X82739501Y-80679500D01*
X82739501Y-80902876D01*
X82745908Y-80962483D01*
X82796202Y-81097328D01*
X82796206Y-81097335D01*
X82882452Y-81212544D01*
X82882455Y-81212547D01*
X82997664Y-81298793D01*
X82997673Y-81298798D01*
X83077904Y-81328722D01*
X83133838Y-81370593D01*
X83158256Y-81436057D01*
X83143405Y-81504330D01*
X83125802Y-81528886D01*
X83031019Y-81631849D01*
X82904075Y-81826151D01*
X82810842Y-82038699D01*
X82753866Y-82263691D01*
X82753864Y-82263702D01*
X82734700Y-82494993D01*
X82734700Y-82495006D01*
X82753864Y-82726297D01*
X82753866Y-82726308D01*
X82810842Y-82951300D01*
X82906136Y-83168546D01*
X82903894Y-83169529D01*
X82916361Y-83227929D01*
X82891688Y-83293297D01*
X82835592Y-83334950D01*
X82792712Y-83342600D01*
X76559270Y-83342600D01*
X76559254Y-83342599D01*
X76551658Y-83342599D01*
X76393543Y-83342599D01*
X76317179Y-83363061D01*
X76240814Y-83383523D01*
X76240809Y-83383526D01*
X76103890Y-83462575D01*
X76103882Y-83462581D01*
X74620435Y-84946028D01*
X74559112Y-84979513D01*
X74489420Y-84974529D01*
X74433487Y-84932657D01*
X74415048Y-84897351D01*
X74398650Y-84847865D01*
X74359814Y-84730666D01*
X74359810Y-84730660D01*
X74359809Y-84730657D01*
X74335400Y-84691084D01*
X74319250Y-84664901D01*
X74300810Y-84597511D01*
X74321732Y-84530847D01*
X74337103Y-84512130D01*
X77220094Y-81629140D01*
X77281415Y-81595657D01*
X77351107Y-81600641D01*
X77407040Y-81642513D01*
X77431457Y-81707977D01*
X77429390Y-81741014D01*
X77419646Y-81789999D01*
X77419646Y-81790000D01*
X78274134Y-81790000D01*
X78298326Y-81792383D01*
X78301123Y-81792939D01*
X78313995Y-81795499D01*
X78313996Y-81795500D01*
X78313997Y-81795500D01*
X78354170Y-81795500D01*
X78339925Y-81809745D01*
X78290556Y-81895255D01*
X78265000Y-81990630D01*
X78265000Y-82089370D01*
X78290556Y-82184745D01*
X78339925Y-82270255D01*
X78359670Y-82290000D01*
X77419647Y-82290000D01*
X77429387Y-82338974D01*
X77429390Y-82338983D01*
X77506652Y-82525513D01*
X77506659Y-82525526D01*
X77618829Y-82693399D01*
X77618832Y-82693403D01*
X77761596Y-82836167D01*
X77761600Y-82836170D01*
X77929473Y-82948340D01*
X77929486Y-82948347D01*
X78116016Y-83025609D01*
X78116025Y-83025612D01*
X78314041Y-83064999D01*
X78314045Y-83065000D01*
X78390000Y-83065000D01*
X78390000Y-82320330D01*
X78409745Y-82340075D01*
X78495255Y-82389444D01*
X78590630Y-82415000D01*
X78689370Y-82415000D01*
X78784745Y-82389444D01*
X78870255Y-82340075D01*
X78890000Y-82320330D01*
X78890000Y-83065000D01*
X78965955Y-83065000D01*
X78965958Y-83064999D01*
X79163974Y-83025612D01*
X79163983Y-83025609D01*
X79350513Y-82948347D01*
X79350526Y-82948340D01*
X79518399Y-82836170D01*
X79518403Y-82836167D01*
X79661167Y-82693403D01*
X79661170Y-82693399D01*
X79773340Y-82525526D01*
X79773347Y-82525513D01*
X79850609Y-82338983D01*
X79850612Y-82338974D01*
X79860353Y-82290000D01*
X78920330Y-82290000D01*
X78940075Y-82270255D01*
X78989444Y-82184745D01*
X79015000Y-82089370D01*
X79015000Y-81990630D01*
X78989444Y-81895255D01*
X78940075Y-81809745D01*
X78925830Y-81795500D01*
X78966004Y-81795500D01*
X78966004Y-81795499D01*
X78979473Y-81792820D01*
X78981674Y-81792383D01*
X79005866Y-81790000D01*
X79860353Y-81790000D01*
X79850612Y-81741025D01*
X79850608Y-81741014D01*
X79773347Y-81554486D01*
X79773343Y-81554479D01*
X79719795Y-81474340D01*
X79698917Y-81407662D01*
X79717401Y-81340282D01*
X79719733Y-81336652D01*
X79773786Y-81255756D01*
X79851091Y-81069127D01*
X79890500Y-80871003D01*
X79890500Y-80669634D01*
X79910185Y-80602595D01*
X79962989Y-80556840D01*
X80032147Y-80546896D01*
X80046575Y-80549854D01*
G37*
%TD.AperFunction*%
%TA.AperFunction,Conductor*%
G36*
X66184472Y-78141842D02*
G01*
X66293137Y-78179866D01*
X66293141Y-78179867D01*
X66293142Y-78179867D01*
X66293145Y-78179868D01*
X66361784Y-78187601D01*
X66426195Y-78214666D01*
X66465751Y-78272261D01*
X66471899Y-78310821D01*
X66471899Y-78446559D01*
X66472246Y-78447852D01*
X66472219Y-78448984D01*
X66472960Y-78454612D01*
X66472082Y-78454727D01*
X66470583Y-78517702D01*
X66431419Y-78575564D01*
X66381696Y-78596855D01*
X66008553Y-78969999D01*
X66008553Y-78970000D01*
X66444095Y-79405542D01*
X66477580Y-79466865D01*
X66472596Y-79536557D01*
X66444096Y-79580904D01*
X66425710Y-79599289D01*
X66411645Y-79585224D01*
X66374891Y-79570000D01*
X66335109Y-79570000D01*
X66298355Y-79585224D01*
X66270224Y-79613355D01*
X66255000Y-79650109D01*
X66255000Y-79689891D01*
X66270224Y-79726645D01*
X66298355Y-79754776D01*
X66335109Y-79770000D01*
X66374891Y-79770000D01*
X66411645Y-79754776D01*
X66425710Y-79740710D01*
X66444095Y-79759095D01*
X66477580Y-79820418D01*
X66472596Y-79890110D01*
X66444095Y-79934457D01*
X66185330Y-80193223D01*
X66008553Y-80370000D01*
X66181776Y-80543223D01*
X66531777Y-80893223D01*
X67071660Y-81433107D01*
X67071661Y-81433107D01*
X67080333Y-81419307D01*
X67139878Y-81249138D01*
X67160062Y-81070002D01*
X67160062Y-81069997D01*
X67139878Y-80890861D01*
X67139876Y-80890853D01*
X67082614Y-80727208D01*
X67079052Y-80657429D01*
X67113780Y-80596802D01*
X67175774Y-80564574D01*
X67245349Y-80570979D01*
X67287336Y-80598572D01*
X67532419Y-80843655D01*
X67888484Y-81199720D01*
X67888486Y-81199721D01*
X67888490Y-81199724D01*
X67985533Y-81255751D01*
X68025416Y-81278777D01*
X68025420Y-81278778D01*
X68088533Y-81295690D01*
X68148193Y-81332055D01*
X68178721Y-81394902D01*
X68170426Y-81464278D01*
X68144119Y-81503145D01*
X66864084Y-82783181D01*
X66802761Y-82816666D01*
X66776403Y-82819500D01*
X65693578Y-82819500D01*
X65656238Y-82808535D01*
X65637816Y-82817640D01*
X65616422Y-82819500D01*
X64293578Y-82819500D01*
X64256238Y-82808535D01*
X64237816Y-82817640D01*
X64216422Y-82819500D01*
X63330098Y-82819500D01*
X63263059Y-82799815D01*
X63242417Y-82783181D01*
X62945896Y-82486660D01*
X63891891Y-82486660D01*
X63905697Y-82495335D01*
X63905701Y-82495337D01*
X64075858Y-82554877D01*
X64075861Y-82554878D01*
X64230306Y-82572280D01*
X64251431Y-82581157D01*
X64258643Y-82576523D01*
X64279694Y-82572280D01*
X64434138Y-82554878D01*
X64604307Y-82495333D01*
X64618107Y-82486661D01*
X64618107Y-82486660D01*
X65291891Y-82486660D01*
X65305697Y-82495335D01*
X65305701Y-82495337D01*
X65475858Y-82554877D01*
X65475861Y-82554878D01*
X65630306Y-82572280D01*
X65651431Y-82581157D01*
X65658643Y-82576523D01*
X65679694Y-82572280D01*
X65834138Y-82554878D01*
X66004307Y-82495333D01*
X66018107Y-82486661D01*
X66018107Y-82486660D01*
X65655001Y-82123553D01*
X65655000Y-82123553D01*
X65291891Y-82486660D01*
X64618107Y-82486660D01*
X64255001Y-82123553D01*
X64255000Y-82123553D01*
X63891891Y-82486660D01*
X62945896Y-82486660D01*
X62806819Y-82347583D01*
X62773334Y-82286260D01*
X62770500Y-82259902D01*
X62770500Y-81786660D01*
X63191891Y-81786660D01*
X63205697Y-81795335D01*
X63205701Y-81795337D01*
X63375859Y-81854878D01*
X63376644Y-81855057D01*
X63377099Y-81855311D01*
X63382430Y-81857177D01*
X63382103Y-81858110D01*
X63437623Y-81889166D01*
X63466952Y-81942875D01*
X63467823Y-81942571D01*
X63469672Y-81947855D01*
X63469940Y-81948346D01*
X63470120Y-81949137D01*
X63529662Y-82119298D01*
X63529667Y-82119308D01*
X63538338Y-82133108D01*
X63901446Y-81770001D01*
X63901446Y-81769999D01*
X63881556Y-81750109D01*
X64155000Y-81750109D01*
X64155000Y-81789891D01*
X64170224Y-81826645D01*
X64198355Y-81854776D01*
X64235109Y-81870000D01*
X64274891Y-81870000D01*
X64311645Y-81854776D01*
X64339776Y-81826645D01*
X64355000Y-81789891D01*
X64355000Y-81769999D01*
X64608553Y-81769999D01*
X64608553Y-81770000D01*
X64955000Y-82116446D01*
X64955001Y-82116446D01*
X65288946Y-81782499D01*
X65288946Y-81782498D01*
X65256557Y-81750109D01*
X65555000Y-81750109D01*
X65555000Y-81789891D01*
X65570224Y-81826645D01*
X65598355Y-81854776D01*
X65635109Y-81870000D01*
X65674891Y-81870000D01*
X65711645Y-81854776D01*
X65739776Y-81826645D01*
X65755000Y-81789891D01*
X65755000Y-81770000D01*
X66008553Y-81770000D01*
X66371660Y-82133107D01*
X66371661Y-82133107D01*
X66380333Y-82119307D01*
X66439877Y-81949141D01*
X66440056Y-81948358D01*
X66440310Y-81947902D01*
X66442177Y-81942569D01*
X66443111Y-81942895D01*
X66474164Y-81887379D01*
X66527874Y-81858050D01*
X66527569Y-81857177D01*
X66532871Y-81855321D01*
X66533358Y-81855056D01*
X66534141Y-81854877D01*
X66704307Y-81795333D01*
X66718107Y-81786661D01*
X66718107Y-81786660D01*
X66355000Y-81423553D01*
X66008553Y-81770000D01*
X65755000Y-81770000D01*
X65755000Y-81750109D01*
X65739776Y-81713355D01*
X65711645Y-81685224D01*
X65674891Y-81670000D01*
X65635109Y-81670000D01*
X65598355Y-81685224D01*
X65570224Y-81713355D01*
X65555000Y-81750109D01*
X65256557Y-81750109D01*
X64942499Y-81436053D01*
X64942498Y-81436053D01*
X64608553Y-81769999D01*
X64355000Y-81769999D01*
X64355000Y-81750109D01*
X64339776Y-81713355D01*
X64311645Y-81685224D01*
X64274891Y-81670000D01*
X64235109Y-81670000D01*
X64198355Y-81685224D01*
X64170224Y-81713355D01*
X64155000Y-81750109D01*
X63881556Y-81750109D01*
X63724670Y-81593223D01*
X63555001Y-81423553D01*
X63555000Y-81423553D01*
X63191891Y-81786660D01*
X62770500Y-81786660D01*
X62770500Y-81552309D01*
X62790185Y-81485270D01*
X62806819Y-81464628D01*
X63201446Y-81070001D01*
X63201446Y-81069999D01*
X63181556Y-81050109D01*
X63455000Y-81050109D01*
X63455000Y-81089891D01*
X63470224Y-81126645D01*
X63498355Y-81154776D01*
X63535109Y-81170000D01*
X63574891Y-81170000D01*
X63611645Y-81154776D01*
X63639776Y-81126645D01*
X63655000Y-81089891D01*
X63655000Y-81070000D01*
X63908553Y-81070000D01*
X64081776Y-81243223D01*
X64242500Y-81403946D01*
X64242501Y-81403946D01*
X64576446Y-81070001D01*
X64576446Y-81069999D01*
X64556556Y-81050109D01*
X64830000Y-81050109D01*
X64830000Y-81089891D01*
X64845224Y-81126645D01*
X64873355Y-81154776D01*
X64910109Y-81170000D01*
X64949891Y-81170000D01*
X64986645Y-81154776D01*
X65014776Y-81126645D01*
X65030000Y-81089891D01*
X65030000Y-81070000D01*
X65308553Y-81070000D01*
X65655000Y-81416446D01*
X65655001Y-81416446D01*
X65828223Y-81243223D01*
X66001446Y-81070000D01*
X66001446Y-81069999D01*
X65981556Y-81050109D01*
X66255000Y-81050109D01*
X66255000Y-81089891D01*
X66270224Y-81126645D01*
X66298355Y-81154776D01*
X66335109Y-81170000D01*
X66374891Y-81170000D01*
X66411645Y-81154776D01*
X66439776Y-81126645D01*
X66455000Y-81089891D01*
X66455000Y-81050109D01*
X66439776Y-81013355D01*
X66411645Y-80985224D01*
X66374891Y-80970000D01*
X66335109Y-80970000D01*
X66298355Y-80985224D01*
X66270224Y-81013355D01*
X66255000Y-81050109D01*
X65981556Y-81050109D01*
X65655000Y-80723553D01*
X65308553Y-81070000D01*
X65030000Y-81070000D01*
X65030000Y-81050109D01*
X65014776Y-81013355D01*
X64986645Y-80985224D01*
X64949891Y-80970000D01*
X64910109Y-80970000D01*
X64873355Y-80985224D01*
X64845224Y-81013355D01*
X64830000Y-81050109D01*
X64556556Y-81050109D01*
X64242501Y-80736053D01*
X64242500Y-80736053D01*
X63908553Y-81070000D01*
X63655000Y-81070000D01*
X63655000Y-81050109D01*
X63639776Y-81013355D01*
X63611645Y-80985224D01*
X63574891Y-80970000D01*
X63535109Y-80970000D01*
X63498355Y-80985224D01*
X63470224Y-81013355D01*
X63455000Y-81050109D01*
X63181556Y-81050109D01*
X62806819Y-80675371D01*
X62773334Y-80614048D01*
X62770500Y-80587690D01*
X62770500Y-80370000D01*
X63208553Y-80370000D01*
X63555000Y-80716446D01*
X63555001Y-80716446D01*
X63728223Y-80543223D01*
X63901446Y-80370000D01*
X63901446Y-80369999D01*
X63881556Y-80350109D01*
X64155000Y-80350109D01*
X64155000Y-80389891D01*
X64170224Y-80426645D01*
X64198355Y-80454776D01*
X64235109Y-80470000D01*
X64274891Y-80470000D01*
X64311645Y-80454776D01*
X64339776Y-80426645D01*
X64355000Y-80389891D01*
X64355000Y-80369999D01*
X64608553Y-80369999D01*
X64608553Y-80370001D01*
X64942498Y-80703946D01*
X64942499Y-80703946D01*
X65276446Y-80370000D01*
X65256555Y-80350109D01*
X65555000Y-80350109D01*
X65555000Y-80389891D01*
X65570224Y-80426645D01*
X65598355Y-80454776D01*
X65635109Y-80470000D01*
X65674891Y-80470000D01*
X65711645Y-80454776D01*
X65739776Y-80426645D01*
X65755000Y-80389891D01*
X65755000Y-80350109D01*
X65739776Y-80313355D01*
X65711645Y-80285224D01*
X65674891Y-80270000D01*
X65635109Y-80270000D01*
X65598355Y-80285224D01*
X65570224Y-80313355D01*
X65555000Y-80350109D01*
X65256555Y-80350109D01*
X64942499Y-80036053D01*
X64942498Y-80036053D01*
X64608553Y-80369999D01*
X64355000Y-80369999D01*
X64355000Y-80350109D01*
X64339776Y-80313355D01*
X64311645Y-80285224D01*
X64274891Y-80270000D01*
X64235109Y-80270000D01*
X64198355Y-80285224D01*
X64170224Y-80313355D01*
X64155000Y-80350109D01*
X63881556Y-80350109D01*
X63555000Y-80023553D01*
X63208553Y-80370000D01*
X62770500Y-80370000D01*
X62770500Y-80152308D01*
X62790185Y-80085269D01*
X62806819Y-80064627D01*
X63221337Y-79650109D01*
X63455000Y-79650109D01*
X63455000Y-79689891D01*
X63470224Y-79726645D01*
X63498355Y-79754776D01*
X63535109Y-79770000D01*
X63574891Y-79770000D01*
X63611645Y-79754776D01*
X63639776Y-79726645D01*
X63655000Y-79689891D01*
X63655000Y-79670000D01*
X63908553Y-79670000D01*
X64066350Y-79827797D01*
X64242500Y-80003946D01*
X64242501Y-80003946D01*
X64576446Y-79670001D01*
X64576446Y-79669999D01*
X64556556Y-79650109D01*
X64830000Y-79650109D01*
X64830000Y-79689891D01*
X64845224Y-79726645D01*
X64873355Y-79754776D01*
X64910109Y-79770000D01*
X64949891Y-79770000D01*
X64986645Y-79754776D01*
X65014776Y-79726645D01*
X65030000Y-79689891D01*
X65030000Y-79670000D01*
X65308553Y-79670000D01*
X65654999Y-80016446D01*
X65843650Y-79827797D01*
X66001446Y-79670000D01*
X66001446Y-79669999D01*
X65655000Y-79323553D01*
X65308553Y-79670000D01*
X65030000Y-79670000D01*
X65030000Y-79650109D01*
X65014776Y-79613355D01*
X64986645Y-79585224D01*
X64949891Y-79570000D01*
X64910109Y-79570000D01*
X64873355Y-79585224D01*
X64845224Y-79613355D01*
X64830000Y-79650109D01*
X64556556Y-79650109D01*
X64242501Y-79336053D01*
X64242500Y-79336053D01*
X63908553Y-79670000D01*
X63655000Y-79670000D01*
X63655000Y-79650109D01*
X63639776Y-79613355D01*
X63611645Y-79585224D01*
X63574891Y-79570000D01*
X63535109Y-79570000D01*
X63498355Y-79585224D01*
X63470224Y-79613355D01*
X63455000Y-79650109D01*
X63221337Y-79650109D01*
X63378223Y-79493223D01*
X63737651Y-79133796D01*
X63990542Y-78880904D01*
X64051865Y-78847419D01*
X64121556Y-78852403D01*
X64165904Y-78880904D01*
X64184289Y-78899289D01*
X64170224Y-78913355D01*
X64155000Y-78950109D01*
X64155000Y-78989891D01*
X64170224Y-79026645D01*
X64198355Y-79054776D01*
X64235109Y-79070000D01*
X64274891Y-79070000D01*
X64311645Y-79054776D01*
X64339776Y-79026645D01*
X64355000Y-78989891D01*
X64355000Y-78950109D01*
X64339776Y-78913355D01*
X64325709Y-78899288D01*
X64344094Y-78880904D01*
X64405417Y-78847419D01*
X64475109Y-78852403D01*
X64519457Y-78880904D01*
X64942498Y-79303946D01*
X64942499Y-79303946D01*
X65296338Y-78950109D01*
X65555000Y-78950109D01*
X65555000Y-78989891D01*
X65570224Y-79026645D01*
X65598355Y-79054776D01*
X65635109Y-79070000D01*
X65674891Y-79070000D01*
X65711645Y-79054776D01*
X65739776Y-79026645D01*
X65755000Y-78989891D01*
X65755000Y-78950109D01*
X65739776Y-78913355D01*
X65711645Y-78885224D01*
X65674891Y-78870000D01*
X65635109Y-78870000D01*
X65598355Y-78885224D01*
X65570224Y-78913355D01*
X65555000Y-78950109D01*
X65296338Y-78950109D01*
X65362015Y-78884432D01*
X65417083Y-78854362D01*
X65478224Y-78793223D01*
X66024887Y-78246559D01*
X66032350Y-78203948D01*
X66079698Y-78152567D01*
X66147307Y-78134941D01*
X66184472Y-78141842D01*
G37*
%TD.AperFunction*%
%TA.AperFunction,Conductor*%
G36*
X63443039Y-72831985D02*
G01*
X63488794Y-72884789D01*
X63500000Y-72936300D01*
X63500000Y-73176000D01*
X63480315Y-73243039D01*
X63427511Y-73288794D01*
X63376000Y-73300000D01*
X62275001Y-73300000D01*
X62275001Y-73349986D01*
X62285494Y-73452697D01*
X62340641Y-73619119D01*
X62340643Y-73619124D01*
X62432684Y-73768345D01*
X62556655Y-73892316D01*
X62556659Y-73892319D01*
X62559656Y-73894168D01*
X62561279Y-73895972D01*
X62562323Y-73896798D01*
X62562181Y-73896976D01*
X62606381Y-73946116D01*
X62617602Y-74015079D01*
X62589759Y-74079161D01*
X62559661Y-74105241D01*
X62556349Y-74107283D01*
X62556343Y-74107288D01*
X62432289Y-74231342D01*
X62395741Y-74290597D01*
X62343793Y-74337321D01*
X62290202Y-74349500D01*
X61709798Y-74349500D01*
X61642759Y-74329815D01*
X61604259Y-74290597D01*
X61591915Y-74270584D01*
X61567712Y-74231344D01*
X61443656Y-74107288D01*
X61440342Y-74105243D01*
X61438546Y-74103248D01*
X61437989Y-74102807D01*
X61438064Y-74102711D01*
X61393618Y-74053297D01*
X61382397Y-73984334D01*
X61410240Y-73920252D01*
X61440348Y-73894165D01*
X61443342Y-73892318D01*
X61567315Y-73768345D01*
X61659356Y-73619124D01*
X61659358Y-73619119D01*
X61714505Y-73452697D01*
X61714506Y-73452690D01*
X61724999Y-73349986D01*
X61725000Y-73349973D01*
X61725000Y-73300000D01*
X59275001Y-73300000D01*
X59275001Y-73349986D01*
X59285494Y-73452697D01*
X59340641Y-73619119D01*
X59340643Y-73619124D01*
X59432684Y-73768345D01*
X59556655Y-73892316D01*
X59556659Y-73892319D01*
X59559656Y-73894168D01*
X59561279Y-73895972D01*
X59562323Y-73896798D01*
X59562181Y-73896976D01*
X59606381Y-73946116D01*
X59617602Y-74015079D01*
X59589759Y-74079161D01*
X59559661Y-74105241D01*
X59556349Y-74107283D01*
X59556343Y-74107288D01*
X59432289Y-74231342D01*
X59340187Y-74380663D01*
X59340186Y-74380666D01*
X59285001Y-74547203D01*
X59285001Y-74547204D01*
X59285000Y-74547204D01*
X59274500Y-74649983D01*
X59274500Y-75250001D01*
X59274502Y-75250026D01*
X59276827Y-75272791D01*
X59264055Y-75341484D01*
X59241151Y-75373069D01*
X59135285Y-75478936D01*
X59135284Y-75478937D01*
X59039311Y-75631676D01*
X58979731Y-75801945D01*
X58979730Y-75801950D01*
X58959535Y-75981196D01*
X58959535Y-75981203D01*
X58979730Y-76160449D01*
X58979731Y-76160454D01*
X59039311Y-76330723D01*
X59135284Y-76483462D01*
X59267762Y-76615940D01*
X59265983Y-76617718D01*
X59299438Y-76665370D01*
X59305348Y-76717745D01*
X59299500Y-76774981D01*
X59299500Y-77400001D01*
X59299501Y-77400019D01*
X59310000Y-77502796D01*
X59310001Y-77502799D01*
X59365185Y-77669331D01*
X59365187Y-77669336D01*
X59457289Y-77818657D01*
X59550951Y-77912319D01*
X59584436Y-77973642D01*
X59579452Y-78043334D01*
X59550951Y-78087681D01*
X59457291Y-78181340D01*
X59453095Y-78186647D01*
X59396071Y-78227021D01*
X59326271Y-78230156D01*
X59314880Y-78226774D01*
X59298751Y-78221130D01*
X59119504Y-78200935D01*
X59119496Y-78200935D01*
X58940250Y-78221130D01*
X58940245Y-78221131D01*
X58769976Y-78280711D01*
X58617237Y-78376684D01*
X58489684Y-78504237D01*
X58393711Y-78656976D01*
X58334131Y-78827245D01*
X58334130Y-78827250D01*
X58313935Y-79006496D01*
X58313935Y-79006503D01*
X58334130Y-79185749D01*
X58334131Y-79185754D01*
X58393711Y-79356023D01*
X58463358Y-79466865D01*
X58489684Y-79508762D01*
X58617238Y-79636316D01*
X58675176Y-79672721D01*
X58760995Y-79726645D01*
X58769978Y-79732289D01*
X58940245Y-79791868D01*
X58940250Y-79791869D01*
X59119496Y-79812065D01*
X59119500Y-79812065D01*
X59119502Y-79812065D01*
X59171776Y-79806174D01*
X59215698Y-79801226D01*
X59284520Y-79813280D01*
X59335899Y-79860629D01*
X59353524Y-79928239D01*
X59341970Y-79976838D01*
X59340188Y-79980658D01*
X59285000Y-80147204D01*
X59274500Y-80249983D01*
X59274500Y-80850001D01*
X59274501Y-80850019D01*
X59285000Y-80952796D01*
X59285001Y-80952799D01*
X59332894Y-81097328D01*
X59340186Y-81119334D01*
X59432288Y-81268656D01*
X59556344Y-81392712D01*
X59559628Y-81394737D01*
X59559653Y-81394753D01*
X59561445Y-81396746D01*
X59562011Y-81397193D01*
X59561934Y-81397289D01*
X59606379Y-81446699D01*
X59617603Y-81515661D01*
X59589761Y-81579744D01*
X59559665Y-81605826D01*
X59556660Y-81607679D01*
X59556655Y-81607683D01*
X59432684Y-81731654D01*
X59340643Y-81880875D01*
X59340641Y-81880880D01*
X59285494Y-82047302D01*
X59285493Y-82047309D01*
X59278853Y-82112302D01*
X59252456Y-82176993D01*
X59195275Y-82217144D01*
X59125464Y-82220006D01*
X59067814Y-82187379D01*
X57208790Y-80328355D01*
X57208788Y-80328352D01*
X57089917Y-80209481D01*
X57089916Y-80209480D01*
X56982049Y-80147203D01*
X56982047Y-80147202D01*
X56952985Y-80130423D01*
X56952984Y-80130422D01*
X56952983Y-80130422D01*
X56897081Y-80115443D01*
X56800257Y-80089499D01*
X56642143Y-80089499D01*
X56634547Y-80089499D01*
X56634531Y-80089500D01*
X55816603Y-80089500D01*
X55749564Y-80069815D01*
X55703809Y-80017011D01*
X55693865Y-79947853D01*
X55704220Y-79913098D01*
X55773903Y-79763663D01*
X55835063Y-79535408D01*
X55855659Y-79300000D01*
X55835063Y-79064592D01*
X55777034Y-78848021D01*
X55773905Y-78836344D01*
X55773904Y-78836343D01*
X55773903Y-78836337D01*
X55674035Y-78622171D01*
X55658011Y-78599285D01*
X55538494Y-78428597D01*
X55371402Y-78261506D01*
X55371401Y-78261505D01*
X55185405Y-78131269D01*
X55141781Y-78076692D01*
X55134588Y-78007193D01*
X55166110Y-77944839D01*
X55185405Y-77928119D01*
X55371082Y-77798105D01*
X55538105Y-77631082D01*
X55673600Y-77437578D01*
X55773429Y-77223492D01*
X55773432Y-77223486D01*
X55830636Y-77010000D01*
X54933012Y-77010000D01*
X54965925Y-76952993D01*
X55000000Y-76825826D01*
X55000000Y-76694174D01*
X54965925Y-76567007D01*
X54933012Y-76510000D01*
X55830636Y-76510000D01*
X55830635Y-76509999D01*
X55773432Y-76296513D01*
X55773429Y-76296507D01*
X55673600Y-76082422D01*
X55673599Y-76082420D01*
X55538113Y-75888926D01*
X55538108Y-75888920D01*
X55371078Y-75721890D01*
X55185405Y-75591879D01*
X55141780Y-75537302D01*
X55134588Y-75467804D01*
X55166110Y-75405449D01*
X55185406Y-75388730D01*
X55205687Y-75374529D01*
X55371401Y-75258495D01*
X55538495Y-75091401D01*
X55674035Y-74897830D01*
X55773903Y-74683663D01*
X55835063Y-74455408D01*
X55855659Y-74220000D01*
X55835063Y-73984592D01*
X55788626Y-73811285D01*
X55773905Y-73756344D01*
X55773904Y-73756343D01*
X55773903Y-73756337D01*
X55674035Y-73542171D01*
X55544822Y-73357634D01*
X55538494Y-73348597D01*
X55371402Y-73181506D01*
X55371395Y-73181501D01*
X55177830Y-73045964D01*
X55173888Y-73043689D01*
X55125670Y-72993124D01*
X55112445Y-72924518D01*
X55138411Y-72859652D01*
X55195323Y-72819121D01*
X55235884Y-72812300D01*
X63376000Y-72812300D01*
X63443039Y-72831985D01*
G37*
%TD.AperFunction*%
%TA.AperFunction,Conductor*%
G36*
X53076130Y-74313427D02*
G01*
X53133993Y-74352589D01*
X53161498Y-74416817D01*
X53161903Y-74420731D01*
X53164936Y-74455403D01*
X53164938Y-74455413D01*
X53226094Y-74683655D01*
X53226096Y-74683659D01*
X53226097Y-74683663D01*
X53269706Y-74777182D01*
X53325965Y-74897830D01*
X53325967Y-74897834D01*
X53412915Y-75022007D01*
X53450150Y-75075185D01*
X53461501Y-75091395D01*
X53461506Y-75091402D01*
X53628597Y-75258493D01*
X53628603Y-75258498D01*
X53716403Y-75319976D01*
X53792227Y-75373069D01*
X53814594Y-75388730D01*
X53858219Y-75443307D01*
X53865413Y-75512805D01*
X53833890Y-75575160D01*
X53814595Y-75591880D01*
X53628922Y-75721890D01*
X53628920Y-75721891D01*
X53461891Y-75888920D01*
X53461886Y-75888926D01*
X53326400Y-76082420D01*
X53326399Y-76082422D01*
X53226570Y-76296507D01*
X53226567Y-76296513D01*
X53169364Y-76509999D01*
X53169364Y-76510000D01*
X54066988Y-76510000D01*
X54034075Y-76567007D01*
X54000000Y-76694174D01*
X54000000Y-76825826D01*
X54034075Y-76952993D01*
X54066988Y-77010000D01*
X53169364Y-77010000D01*
X53226567Y-77223486D01*
X53226570Y-77223492D01*
X53326399Y-77437578D01*
X53461894Y-77631082D01*
X53628917Y-77798105D01*
X53814595Y-77928119D01*
X53858219Y-77982696D01*
X53865412Y-78052195D01*
X53833890Y-78114549D01*
X53814595Y-78131269D01*
X53628594Y-78261508D01*
X53461505Y-78428597D01*
X53325965Y-78622169D01*
X53325964Y-78622171D01*
X53226098Y-78836335D01*
X53226094Y-78836344D01*
X53164938Y-79064586D01*
X53164936Y-79064596D01*
X53144341Y-79299999D01*
X53144341Y-79300000D01*
X53164936Y-79535403D01*
X53164938Y-79535413D01*
X53226094Y-79763655D01*
X53226096Y-79763659D01*
X53226097Y-79763663D01*
X53325965Y-79977830D01*
X53414574Y-80104376D01*
X53436901Y-80170583D01*
X53419891Y-80238350D01*
X53368943Y-80286163D01*
X53312999Y-80299500D01*
X49962241Y-80299500D01*
X49895202Y-80279815D01*
X49849447Y-80227011D01*
X49838713Y-80186309D01*
X49835738Y-80152308D01*
X49835063Y-80144592D01*
X49773903Y-79916337D01*
X49674035Y-79702171D01*
X49665436Y-79689891D01*
X49538496Y-79508600D01*
X49496761Y-79466865D01*
X49416567Y-79386671D01*
X49383084Y-79325351D01*
X49388068Y-79255659D01*
X49429939Y-79199725D01*
X49460915Y-79182810D01*
X49592331Y-79133796D01*
X49707546Y-79047546D01*
X49793796Y-78932331D01*
X49844091Y-78797483D01*
X49850500Y-78737873D01*
X49850499Y-76942128D01*
X49844091Y-76882517D01*
X49803986Y-76774991D01*
X49793797Y-76747671D01*
X49793793Y-76747664D01*
X49722400Y-76652297D01*
X49707546Y-76632454D01*
X49661536Y-76598011D01*
X49619667Y-76542079D01*
X49614683Y-76472387D01*
X49648166Y-76411067D01*
X51678763Y-74380473D01*
X51740086Y-74346988D01*
X51766444Y-74344154D01*
X52719677Y-74344154D01*
X52719693Y-74344155D01*
X52727289Y-74344155D01*
X52885399Y-74344155D01*
X52885403Y-74344155D01*
X53006285Y-74311764D01*
X53076130Y-74313427D01*
G37*
%TD.AperFunction*%
%TA.AperFunction,Conductor*%
G36*
X79916579Y-75015023D02*
G01*
X80067643Y-75055501D01*
X80067646Y-75055501D01*
X80233353Y-75055501D01*
X80233369Y-75055500D01*
X82615501Y-75055500D01*
X82682540Y-75075185D01*
X82728295Y-75127989D01*
X82739501Y-75179500D01*
X82739501Y-75402876D01*
X82745908Y-75462483D01*
X82796202Y-75597328D01*
X82796206Y-75597335D01*
X82882452Y-75712544D01*
X82882455Y-75712547D01*
X82997664Y-75798793D01*
X82997673Y-75798798D01*
X83077904Y-75828722D01*
X83133838Y-75870593D01*
X83158256Y-75936057D01*
X83143405Y-76004330D01*
X83125802Y-76028886D01*
X83031019Y-76131849D01*
X82904075Y-76326151D01*
X82810842Y-76538699D01*
X82753866Y-76763691D01*
X82753864Y-76763702D01*
X82734700Y-76994993D01*
X82734700Y-76994995D01*
X82734700Y-76995000D01*
X82735943Y-77010000D01*
X82744980Y-77119061D01*
X82730898Y-77187497D01*
X82682053Y-77237456D01*
X82621403Y-77253300D01*
X79636271Y-77253300D01*
X79569232Y-77233615D01*
X79523477Y-77180811D01*
X79513533Y-77111653D01*
X79533169Y-77060409D01*
X79643340Y-76895526D01*
X79643347Y-76895513D01*
X79720609Y-76708983D01*
X79720612Y-76708974D01*
X79730353Y-76660000D01*
X78790330Y-76660000D01*
X78810075Y-76640255D01*
X78859444Y-76554745D01*
X78885000Y-76459370D01*
X78885000Y-76360630D01*
X78859444Y-76265255D01*
X78810075Y-76179745D01*
X78795830Y-76165500D01*
X78836004Y-76165500D01*
X78836004Y-76165499D01*
X78849473Y-76162820D01*
X78851674Y-76162383D01*
X78875866Y-76160000D01*
X79730353Y-76160000D01*
X79720612Y-76111025D01*
X79720609Y-76111016D01*
X79643347Y-75924486D01*
X79643343Y-75924479D01*
X79589795Y-75844340D01*
X79568917Y-75777662D01*
X79587401Y-75710282D01*
X79589733Y-75706652D01*
X79643786Y-75625756D01*
X79721091Y-75439127D01*
X79760500Y-75241003D01*
X79760500Y-75134801D01*
X79780185Y-75067762D01*
X79832989Y-75022007D01*
X79902147Y-75012063D01*
X79916579Y-75015023D01*
G37*
%TD.AperFunction*%
%TD*%
M02*
