%TF.GenerationSoftware,KiCad,Pcbnew,8.0.8*%
%TF.CreationDate,2025-11-13T12:32:41+01:00*%
%TF.ProjectId,Smartwatch,536d6172-7477-4617-9463-682e6b696361,rev?*%
%TF.SameCoordinates,Original*%
%TF.FileFunction,Legend,Top*%
%TF.FilePolarity,Positive*%
%FSLAX46Y46*%
G04 Gerber Fmt 4.6, Leading zero omitted, Abs format (unit mm)*
G04 Created by KiCad (PCBNEW 8.0.8) date 2025-11-13 12:32:41*
%MOMM*%
%LPD*%
G01*
G04 APERTURE LIST*
%ADD10C,0.150000*%
%ADD11C,0.254000*%
%ADD12C,0.120000*%
%ADD13C,0.100000*%
G04 APERTURE END LIST*
D10*
X56349819Y-78466904D02*
X57159342Y-78466904D01*
X57159342Y-78466904D02*
X57254580Y-78419285D01*
X57254580Y-78419285D02*
X57302200Y-78371666D01*
X57302200Y-78371666D02*
X57349819Y-78276428D01*
X57349819Y-78276428D02*
X57349819Y-78085952D01*
X57349819Y-78085952D02*
X57302200Y-77990714D01*
X57302200Y-77990714D02*
X57254580Y-77943095D01*
X57254580Y-77943095D02*
X57159342Y-77895476D01*
X57159342Y-77895476D02*
X56349819Y-77895476D01*
X56445057Y-77466904D02*
X56397438Y-77419285D01*
X56397438Y-77419285D02*
X56349819Y-77324047D01*
X56349819Y-77324047D02*
X56349819Y-77085952D01*
X56349819Y-77085952D02*
X56397438Y-76990714D01*
X56397438Y-76990714D02*
X56445057Y-76943095D01*
X56445057Y-76943095D02*
X56540295Y-76895476D01*
X56540295Y-76895476D02*
X56635533Y-76895476D01*
X56635533Y-76895476D02*
X56778390Y-76943095D01*
X56778390Y-76943095D02*
X57349819Y-77514523D01*
X57349819Y-77514523D02*
X57349819Y-76895476D01*
X83491905Y-100494819D02*
X83491905Y-99494819D01*
X83491905Y-99494819D02*
X83730000Y-99494819D01*
X83730000Y-99494819D02*
X83872857Y-99542438D01*
X83872857Y-99542438D02*
X83968095Y-99637676D01*
X83968095Y-99637676D02*
X84015714Y-99732914D01*
X84015714Y-99732914D02*
X84063333Y-99923390D01*
X84063333Y-99923390D02*
X84063333Y-100066247D01*
X84063333Y-100066247D02*
X84015714Y-100256723D01*
X84015714Y-100256723D02*
X83968095Y-100351961D01*
X83968095Y-100351961D02*
X83872857Y-100447200D01*
X83872857Y-100447200D02*
X83730000Y-100494819D01*
X83730000Y-100494819D02*
X83491905Y-100494819D01*
X85015714Y-100494819D02*
X84444286Y-100494819D01*
X84730000Y-100494819D02*
X84730000Y-99494819D01*
X84730000Y-99494819D02*
X84634762Y-99637676D01*
X84634762Y-99637676D02*
X84539524Y-99732914D01*
X84539524Y-99732914D02*
X84444286Y-99780533D01*
X82954819Y-85238094D02*
X81954819Y-85238094D01*
X81954819Y-85238094D02*
X81954819Y-84999999D01*
X81954819Y-84999999D02*
X82002438Y-84857142D01*
X82002438Y-84857142D02*
X82097676Y-84761904D01*
X82097676Y-84761904D02*
X82192914Y-84714285D01*
X82192914Y-84714285D02*
X82383390Y-84666666D01*
X82383390Y-84666666D02*
X82526247Y-84666666D01*
X82526247Y-84666666D02*
X82716723Y-84714285D01*
X82716723Y-84714285D02*
X82811961Y-84761904D01*
X82811961Y-84761904D02*
X82907200Y-84857142D01*
X82907200Y-84857142D02*
X82954819Y-84999999D01*
X82954819Y-84999999D02*
X82954819Y-85238094D01*
X82288152Y-83809523D02*
X82954819Y-83809523D01*
X81907200Y-84047618D02*
X82621485Y-84285713D01*
X82621485Y-84285713D02*
X82621485Y-83666666D01*
X59238095Y-97054819D02*
X59238095Y-97864342D01*
X59238095Y-97864342D02*
X59285714Y-97959580D01*
X59285714Y-97959580D02*
X59333333Y-98007200D01*
X59333333Y-98007200D02*
X59428571Y-98054819D01*
X59428571Y-98054819D02*
X59619047Y-98054819D01*
X59619047Y-98054819D02*
X59714285Y-98007200D01*
X59714285Y-98007200D02*
X59761904Y-97959580D01*
X59761904Y-97959580D02*
X59809523Y-97864342D01*
X59809523Y-97864342D02*
X59809523Y-97054819D01*
X60714285Y-97388152D02*
X60714285Y-98054819D01*
X60476190Y-97007200D02*
X60238095Y-97721485D01*
X60238095Y-97721485D02*
X60857142Y-97721485D01*
X48166666Y-74964819D02*
X48166666Y-75679104D01*
X48166666Y-75679104D02*
X48119047Y-75821961D01*
X48119047Y-75821961D02*
X48023809Y-75917200D01*
X48023809Y-75917200D02*
X47880952Y-75964819D01*
X47880952Y-75964819D02*
X47785714Y-75964819D01*
X48595238Y-75060057D02*
X48642857Y-75012438D01*
X48642857Y-75012438D02*
X48738095Y-74964819D01*
X48738095Y-74964819D02*
X48976190Y-74964819D01*
X48976190Y-74964819D02*
X49071428Y-75012438D01*
X49071428Y-75012438D02*
X49119047Y-75060057D01*
X49119047Y-75060057D02*
X49166666Y-75155295D01*
X49166666Y-75155295D02*
X49166666Y-75250533D01*
X49166666Y-75250533D02*
X49119047Y-75393390D01*
X49119047Y-75393390D02*
X48547619Y-75964819D01*
X48547619Y-75964819D02*
X49166666Y-75964819D01*
X80550057Y-81095238D02*
X80502438Y-81190476D01*
X80502438Y-81190476D02*
X80407200Y-81285714D01*
X80407200Y-81285714D02*
X80264342Y-81428571D01*
X80264342Y-81428571D02*
X80216723Y-81523809D01*
X80216723Y-81523809D02*
X80216723Y-81619047D01*
X80454819Y-81571428D02*
X80407200Y-81666666D01*
X80407200Y-81666666D02*
X80311961Y-81761904D01*
X80311961Y-81761904D02*
X80121485Y-81809523D01*
X80121485Y-81809523D02*
X79788152Y-81809523D01*
X79788152Y-81809523D02*
X79597676Y-81761904D01*
X79597676Y-81761904D02*
X79502438Y-81666666D01*
X79502438Y-81666666D02*
X79454819Y-81571428D01*
X79454819Y-81571428D02*
X79454819Y-81380952D01*
X79454819Y-81380952D02*
X79502438Y-81285714D01*
X79502438Y-81285714D02*
X79597676Y-81190476D01*
X79597676Y-81190476D02*
X79788152Y-81142857D01*
X79788152Y-81142857D02*
X80121485Y-81142857D01*
X80121485Y-81142857D02*
X80311961Y-81190476D01*
X80311961Y-81190476D02*
X80407200Y-81285714D01*
X80407200Y-81285714D02*
X80454819Y-81380952D01*
X80454819Y-81380952D02*
X80454819Y-81571428D01*
X79454819Y-80285714D02*
X79454819Y-80476190D01*
X79454819Y-80476190D02*
X79502438Y-80571428D01*
X79502438Y-80571428D02*
X79550057Y-80619047D01*
X79550057Y-80619047D02*
X79692914Y-80714285D01*
X79692914Y-80714285D02*
X79883390Y-80761904D01*
X79883390Y-80761904D02*
X80264342Y-80761904D01*
X80264342Y-80761904D02*
X80359580Y-80714285D01*
X80359580Y-80714285D02*
X80407200Y-80666666D01*
X80407200Y-80666666D02*
X80454819Y-80571428D01*
X80454819Y-80571428D02*
X80454819Y-80380952D01*
X80454819Y-80380952D02*
X80407200Y-80285714D01*
X80407200Y-80285714D02*
X80359580Y-80238095D01*
X80359580Y-80238095D02*
X80264342Y-80190476D01*
X80264342Y-80190476D02*
X80026247Y-80190476D01*
X80026247Y-80190476D02*
X79931009Y-80238095D01*
X79931009Y-80238095D02*
X79883390Y-80285714D01*
X79883390Y-80285714D02*
X79835771Y-80380952D01*
X79835771Y-80380952D02*
X79835771Y-80571428D01*
X79835771Y-80571428D02*
X79883390Y-80666666D01*
X79883390Y-80666666D02*
X79931009Y-80714285D01*
X79931009Y-80714285D02*
X80026247Y-80761904D01*
X82954819Y-73738094D02*
X81954819Y-73738094D01*
X81954819Y-73738094D02*
X81954819Y-73499999D01*
X81954819Y-73499999D02*
X82002438Y-73357142D01*
X82002438Y-73357142D02*
X82097676Y-73261904D01*
X82097676Y-73261904D02*
X82192914Y-73214285D01*
X82192914Y-73214285D02*
X82383390Y-73166666D01*
X82383390Y-73166666D02*
X82526247Y-73166666D01*
X82526247Y-73166666D02*
X82716723Y-73214285D01*
X82716723Y-73214285D02*
X82811961Y-73261904D01*
X82811961Y-73261904D02*
X82907200Y-73357142D01*
X82907200Y-73357142D02*
X82954819Y-73499999D01*
X82954819Y-73499999D02*
X82954819Y-73738094D01*
X81954819Y-72309523D02*
X81954819Y-72499999D01*
X81954819Y-72499999D02*
X82002438Y-72595237D01*
X82002438Y-72595237D02*
X82050057Y-72642856D01*
X82050057Y-72642856D02*
X82192914Y-72738094D01*
X82192914Y-72738094D02*
X82383390Y-72785713D01*
X82383390Y-72785713D02*
X82764342Y-72785713D01*
X82764342Y-72785713D02*
X82859580Y-72738094D01*
X82859580Y-72738094D02*
X82907200Y-72690475D01*
X82907200Y-72690475D02*
X82954819Y-72595237D01*
X82954819Y-72595237D02*
X82954819Y-72404761D01*
X82954819Y-72404761D02*
X82907200Y-72309523D01*
X82907200Y-72309523D02*
X82859580Y-72261904D01*
X82859580Y-72261904D02*
X82764342Y-72214285D01*
X82764342Y-72214285D02*
X82526247Y-72214285D01*
X82526247Y-72214285D02*
X82431009Y-72261904D01*
X82431009Y-72261904D02*
X82383390Y-72309523D01*
X82383390Y-72309523D02*
X82335771Y-72404761D01*
X82335771Y-72404761D02*
X82335771Y-72595237D01*
X82335771Y-72595237D02*
X82383390Y-72690475D01*
X82383390Y-72690475D02*
X82431009Y-72738094D01*
X82431009Y-72738094D02*
X82526247Y-72785713D01*
X78491905Y-100494819D02*
X78491905Y-99494819D01*
X78491905Y-99494819D02*
X78730000Y-99494819D01*
X78730000Y-99494819D02*
X78872857Y-99542438D01*
X78872857Y-99542438D02*
X78968095Y-99637676D01*
X78968095Y-99637676D02*
X79015714Y-99732914D01*
X79015714Y-99732914D02*
X79063333Y-99923390D01*
X79063333Y-99923390D02*
X79063333Y-100066247D01*
X79063333Y-100066247D02*
X79015714Y-100256723D01*
X79015714Y-100256723D02*
X78968095Y-100351961D01*
X78968095Y-100351961D02*
X78872857Y-100447200D01*
X78872857Y-100447200D02*
X78730000Y-100494819D01*
X78730000Y-100494819D02*
X78491905Y-100494819D01*
X79444286Y-99590057D02*
X79491905Y-99542438D01*
X79491905Y-99542438D02*
X79587143Y-99494819D01*
X79587143Y-99494819D02*
X79825238Y-99494819D01*
X79825238Y-99494819D02*
X79920476Y-99542438D01*
X79920476Y-99542438D02*
X79968095Y-99590057D01*
X79968095Y-99590057D02*
X80015714Y-99685295D01*
X80015714Y-99685295D02*
X80015714Y-99780533D01*
X80015714Y-99780533D02*
X79968095Y-99923390D01*
X79968095Y-99923390D02*
X79396667Y-100494819D01*
X79396667Y-100494819D02*
X80015714Y-100494819D01*
D11*
X79720237Y-111574318D02*
X79720237Y-110304318D01*
X81050714Y-111453365D02*
X80990238Y-111513842D01*
X80990238Y-111513842D02*
X80808809Y-111574318D01*
X80808809Y-111574318D02*
X80687857Y-111574318D01*
X80687857Y-111574318D02*
X80506428Y-111513842D01*
X80506428Y-111513842D02*
X80385476Y-111392889D01*
X80385476Y-111392889D02*
X80324999Y-111271937D01*
X80324999Y-111271937D02*
X80264523Y-111030032D01*
X80264523Y-111030032D02*
X80264523Y-110848603D01*
X80264523Y-110848603D02*
X80324999Y-110606699D01*
X80324999Y-110606699D02*
X80385476Y-110485746D01*
X80385476Y-110485746D02*
X80506428Y-110364794D01*
X80506428Y-110364794D02*
X80687857Y-110304318D01*
X80687857Y-110304318D02*
X80808809Y-110304318D01*
X80808809Y-110304318D02*
X80990238Y-110364794D01*
X80990238Y-110364794D02*
X81050714Y-110425270D01*
X82260238Y-111574318D02*
X81534523Y-111574318D01*
X81897380Y-111574318D02*
X81897380Y-110304318D01*
X81897380Y-110304318D02*
X81776428Y-110485746D01*
X81776428Y-110485746D02*
X81655476Y-110606699D01*
X81655476Y-110606699D02*
X81534523Y-110667175D01*
D10*
X80650594Y-94104819D02*
X80317261Y-93628628D01*
X80079166Y-94104819D02*
X80079166Y-93104819D01*
X80079166Y-93104819D02*
X80460118Y-93104819D01*
X80460118Y-93104819D02*
X80555356Y-93152438D01*
X80555356Y-93152438D02*
X80602975Y-93200057D01*
X80602975Y-93200057D02*
X80650594Y-93295295D01*
X80650594Y-93295295D02*
X80650594Y-93438152D01*
X80650594Y-93438152D02*
X80602975Y-93533390D01*
X80602975Y-93533390D02*
X80555356Y-93581009D01*
X80555356Y-93581009D02*
X80460118Y-93628628D01*
X80460118Y-93628628D02*
X80079166Y-93628628D01*
X80841071Y-94200057D02*
X81602975Y-94200057D01*
X81841071Y-93438152D02*
X81841071Y-94438152D01*
X81841071Y-93485771D02*
X81936309Y-93438152D01*
X81936309Y-93438152D02*
X82126785Y-93438152D01*
X82126785Y-93438152D02*
X82222023Y-93485771D01*
X82222023Y-93485771D02*
X82269642Y-93533390D01*
X82269642Y-93533390D02*
X82317261Y-93628628D01*
X82317261Y-93628628D02*
X82317261Y-93914342D01*
X82317261Y-93914342D02*
X82269642Y-94009580D01*
X82269642Y-94009580D02*
X82222023Y-94057200D01*
X82222023Y-94057200D02*
X82126785Y-94104819D01*
X82126785Y-94104819D02*
X81936309Y-94104819D01*
X81936309Y-94104819D02*
X81841071Y-94057200D01*
X83174404Y-93438152D02*
X83174404Y-94104819D01*
X82745833Y-93438152D02*
X82745833Y-93961961D01*
X82745833Y-93961961D02*
X82793452Y-94057200D01*
X82793452Y-94057200D02*
X82888690Y-94104819D01*
X82888690Y-94104819D02*
X83031547Y-94104819D01*
X83031547Y-94104819D02*
X83126785Y-94057200D01*
X83126785Y-94057200D02*
X83174404Y-94009580D01*
X83793452Y-94104819D02*
X83698214Y-94057200D01*
X83698214Y-94057200D02*
X83650595Y-93961961D01*
X83650595Y-93961961D02*
X83650595Y-93104819D01*
X84317262Y-94104819D02*
X84222024Y-94057200D01*
X84222024Y-94057200D02*
X84174405Y-93961961D01*
X84174405Y-93961961D02*
X84174405Y-93104819D01*
X84460120Y-94200057D02*
X85222024Y-94200057D01*
X85888691Y-93438152D02*
X85888691Y-94104819D01*
X85460120Y-93438152D02*
X85460120Y-93961961D01*
X85460120Y-93961961D02*
X85507739Y-94057200D01*
X85507739Y-94057200D02*
X85602977Y-94104819D01*
X85602977Y-94104819D02*
X85745834Y-94104819D01*
X85745834Y-94104819D02*
X85841072Y-94057200D01*
X85841072Y-94057200D02*
X85888691Y-94009580D01*
X86364882Y-93438152D02*
X86364882Y-94438152D01*
X86364882Y-93485771D02*
X86460120Y-93438152D01*
X86460120Y-93438152D02*
X86650596Y-93438152D01*
X86650596Y-93438152D02*
X86745834Y-93485771D01*
X86745834Y-93485771D02*
X86793453Y-93533390D01*
X86793453Y-93533390D02*
X86841072Y-93628628D01*
X86841072Y-93628628D02*
X86841072Y-93914342D01*
X86841072Y-93914342D02*
X86793453Y-94009580D01*
X86793453Y-94009580D02*
X86745834Y-94057200D01*
X86745834Y-94057200D02*
X86650596Y-94104819D01*
X86650596Y-94104819D02*
X86460120Y-94104819D01*
X86460120Y-94104819D02*
X86364882Y-94057200D01*
X87793453Y-94104819D02*
X87222025Y-94104819D01*
X87507739Y-94104819D02*
X87507739Y-93104819D01*
X87507739Y-93104819D02*
X87412501Y-93247676D01*
X87412501Y-93247676D02*
X87317263Y-93342914D01*
X87317263Y-93342914D02*
X87222025Y-93390533D01*
X80550057Y-75595238D02*
X80502438Y-75690476D01*
X80502438Y-75690476D02*
X80407200Y-75785714D01*
X80407200Y-75785714D02*
X80264342Y-75928571D01*
X80264342Y-75928571D02*
X80216723Y-76023809D01*
X80216723Y-76023809D02*
X80216723Y-76119047D01*
X80454819Y-76071428D02*
X80407200Y-76166666D01*
X80407200Y-76166666D02*
X80311961Y-76261904D01*
X80311961Y-76261904D02*
X80121485Y-76309523D01*
X80121485Y-76309523D02*
X79788152Y-76309523D01*
X79788152Y-76309523D02*
X79597676Y-76261904D01*
X79597676Y-76261904D02*
X79502438Y-76166666D01*
X79502438Y-76166666D02*
X79454819Y-76071428D01*
X79454819Y-76071428D02*
X79454819Y-75880952D01*
X79454819Y-75880952D02*
X79502438Y-75785714D01*
X79502438Y-75785714D02*
X79597676Y-75690476D01*
X79597676Y-75690476D02*
X79788152Y-75642857D01*
X79788152Y-75642857D02*
X80121485Y-75642857D01*
X80121485Y-75642857D02*
X80311961Y-75690476D01*
X80311961Y-75690476D02*
X80407200Y-75785714D01*
X80407200Y-75785714D02*
X80454819Y-75880952D01*
X80454819Y-75880952D02*
X80454819Y-76071428D01*
X79454819Y-75309523D02*
X79454819Y-74642857D01*
X79454819Y-74642857D02*
X80454819Y-75071428D01*
X78404761Y-91650057D02*
X78309523Y-91602438D01*
X78309523Y-91602438D02*
X78214285Y-91507200D01*
X78214285Y-91507200D02*
X78071428Y-91364342D01*
X78071428Y-91364342D02*
X77976190Y-91316723D01*
X77976190Y-91316723D02*
X77880952Y-91316723D01*
X77928571Y-91554819D02*
X77833333Y-91507200D01*
X77833333Y-91507200D02*
X77738095Y-91411961D01*
X77738095Y-91411961D02*
X77690476Y-91221485D01*
X77690476Y-91221485D02*
X77690476Y-90888152D01*
X77690476Y-90888152D02*
X77738095Y-90697676D01*
X77738095Y-90697676D02*
X77833333Y-90602438D01*
X77833333Y-90602438D02*
X77928571Y-90554819D01*
X77928571Y-90554819D02*
X78119047Y-90554819D01*
X78119047Y-90554819D02*
X78214285Y-90602438D01*
X78214285Y-90602438D02*
X78309523Y-90697676D01*
X78309523Y-90697676D02*
X78357142Y-90888152D01*
X78357142Y-90888152D02*
X78357142Y-91221485D01*
X78357142Y-91221485D02*
X78309523Y-91411961D01*
X78309523Y-91411961D02*
X78214285Y-91507200D01*
X78214285Y-91507200D02*
X78119047Y-91554819D01*
X78119047Y-91554819D02*
X77928571Y-91554819D01*
X79261904Y-90554819D02*
X78785714Y-90554819D01*
X78785714Y-90554819D02*
X78738095Y-91031009D01*
X78738095Y-91031009D02*
X78785714Y-90983390D01*
X78785714Y-90983390D02*
X78880952Y-90935771D01*
X78880952Y-90935771D02*
X79119047Y-90935771D01*
X79119047Y-90935771D02*
X79214285Y-90983390D01*
X79214285Y-90983390D02*
X79261904Y-91031009D01*
X79261904Y-91031009D02*
X79309523Y-91126247D01*
X79309523Y-91126247D02*
X79309523Y-91364342D01*
X79309523Y-91364342D02*
X79261904Y-91459580D01*
X79261904Y-91459580D02*
X79214285Y-91507200D01*
X79214285Y-91507200D02*
X79119047Y-91554819D01*
X79119047Y-91554819D02*
X78880952Y-91554819D01*
X78880952Y-91554819D02*
X78785714Y-91507200D01*
X78785714Y-91507200D02*
X78738095Y-91459580D01*
X71809521Y-96954819D02*
X71476188Y-96478628D01*
X71238093Y-96954819D02*
X71238093Y-95954819D01*
X71238093Y-95954819D02*
X71619045Y-95954819D01*
X71619045Y-95954819D02*
X71714283Y-96002438D01*
X71714283Y-96002438D02*
X71761902Y-96050057D01*
X71761902Y-96050057D02*
X71809521Y-96145295D01*
X71809521Y-96145295D02*
X71809521Y-96288152D01*
X71809521Y-96288152D02*
X71761902Y-96383390D01*
X71761902Y-96383390D02*
X71714283Y-96431009D01*
X71714283Y-96431009D02*
X71619045Y-96478628D01*
X71619045Y-96478628D02*
X71238093Y-96478628D01*
X71999998Y-97050057D02*
X72761902Y-97050057D01*
X72999998Y-96288152D02*
X72999998Y-97288152D01*
X72999998Y-96335771D02*
X73095236Y-96288152D01*
X73095236Y-96288152D02*
X73285712Y-96288152D01*
X73285712Y-96288152D02*
X73380950Y-96335771D01*
X73380950Y-96335771D02*
X73428569Y-96383390D01*
X73428569Y-96383390D02*
X73476188Y-96478628D01*
X73476188Y-96478628D02*
X73476188Y-96764342D01*
X73476188Y-96764342D02*
X73428569Y-96859580D01*
X73428569Y-96859580D02*
X73380950Y-96907200D01*
X73380950Y-96907200D02*
X73285712Y-96954819D01*
X73285712Y-96954819D02*
X73095236Y-96954819D01*
X73095236Y-96954819D02*
X72999998Y-96907200D01*
X74333331Y-96288152D02*
X74333331Y-96954819D01*
X73904760Y-96288152D02*
X73904760Y-96811961D01*
X73904760Y-96811961D02*
X73952379Y-96907200D01*
X73952379Y-96907200D02*
X74047617Y-96954819D01*
X74047617Y-96954819D02*
X74190474Y-96954819D01*
X74190474Y-96954819D02*
X74285712Y-96907200D01*
X74285712Y-96907200D02*
X74333331Y-96859580D01*
X74952379Y-96954819D02*
X74857141Y-96907200D01*
X74857141Y-96907200D02*
X74809522Y-96811961D01*
X74809522Y-96811961D02*
X74809522Y-95954819D01*
X75476189Y-96954819D02*
X75380951Y-96907200D01*
X75380951Y-96907200D02*
X75333332Y-96811961D01*
X75333332Y-96811961D02*
X75333332Y-95954819D01*
X75619047Y-97050057D02*
X76380951Y-97050057D01*
X77047618Y-96288152D02*
X77047618Y-96954819D01*
X76619047Y-96288152D02*
X76619047Y-96811961D01*
X76619047Y-96811961D02*
X76666666Y-96907200D01*
X76666666Y-96907200D02*
X76761904Y-96954819D01*
X76761904Y-96954819D02*
X76904761Y-96954819D01*
X76904761Y-96954819D02*
X76999999Y-96907200D01*
X76999999Y-96907200D02*
X77047618Y-96859580D01*
X77523809Y-96288152D02*
X77523809Y-97288152D01*
X77523809Y-96335771D02*
X77619047Y-96288152D01*
X77619047Y-96288152D02*
X77809523Y-96288152D01*
X77809523Y-96288152D02*
X77904761Y-96335771D01*
X77904761Y-96335771D02*
X77952380Y-96383390D01*
X77952380Y-96383390D02*
X77999999Y-96478628D01*
X77999999Y-96478628D02*
X77999999Y-96764342D01*
X77999999Y-96764342D02*
X77952380Y-96859580D01*
X77952380Y-96859580D02*
X77904761Y-96907200D01*
X77904761Y-96907200D02*
X77809523Y-96954819D01*
X77809523Y-96954819D02*
X77619047Y-96954819D01*
X77619047Y-96954819D02*
X77523809Y-96907200D01*
X78714285Y-97335771D02*
X78666666Y-97288152D01*
X78666666Y-97288152D02*
X78571428Y-97145295D01*
X78571428Y-97145295D02*
X78523809Y-97050057D01*
X78523809Y-97050057D02*
X78476190Y-96907200D01*
X78476190Y-96907200D02*
X78428571Y-96669104D01*
X78428571Y-96669104D02*
X78428571Y-96478628D01*
X78428571Y-96478628D02*
X78476190Y-96240533D01*
X78476190Y-96240533D02*
X78523809Y-96097676D01*
X78523809Y-96097676D02*
X78571428Y-96002438D01*
X78571428Y-96002438D02*
X78666666Y-95859580D01*
X78666666Y-95859580D02*
X78714285Y-95811961D01*
X79285714Y-95954819D02*
X79476190Y-95954819D01*
X79476190Y-95954819D02*
X79571428Y-96002438D01*
X79571428Y-96002438D02*
X79666666Y-96097676D01*
X79666666Y-96097676D02*
X79714285Y-96288152D01*
X79714285Y-96288152D02*
X79714285Y-96621485D01*
X79714285Y-96621485D02*
X79666666Y-96811961D01*
X79666666Y-96811961D02*
X79571428Y-96907200D01*
X79571428Y-96907200D02*
X79476190Y-96954819D01*
X79476190Y-96954819D02*
X79285714Y-96954819D01*
X79285714Y-96954819D02*
X79190476Y-96907200D01*
X79190476Y-96907200D02*
X79095238Y-96811961D01*
X79095238Y-96811961D02*
X79047619Y-96621485D01*
X79047619Y-96621485D02*
X79047619Y-96288152D01*
X79047619Y-96288152D02*
X79095238Y-96097676D01*
X79095238Y-96097676D02*
X79190476Y-96002438D01*
X79190476Y-96002438D02*
X79285714Y-95954819D01*
X80476190Y-96431009D02*
X80142857Y-96431009D01*
X80142857Y-96954819D02*
X80142857Y-95954819D01*
X80142857Y-95954819D02*
X80619047Y-95954819D01*
X81333333Y-96431009D02*
X81000000Y-96431009D01*
X81000000Y-96954819D02*
X81000000Y-95954819D01*
X81000000Y-95954819D02*
X81476190Y-95954819D01*
X82285714Y-96954819D02*
X82285714Y-96431009D01*
X82285714Y-96431009D02*
X82238095Y-96335771D01*
X82238095Y-96335771D02*
X82142857Y-96288152D01*
X82142857Y-96288152D02*
X81952381Y-96288152D01*
X81952381Y-96288152D02*
X81857143Y-96335771D01*
X82285714Y-96907200D02*
X82190476Y-96954819D01*
X82190476Y-96954819D02*
X81952381Y-96954819D01*
X81952381Y-96954819D02*
X81857143Y-96907200D01*
X81857143Y-96907200D02*
X81809524Y-96811961D01*
X81809524Y-96811961D02*
X81809524Y-96716723D01*
X81809524Y-96716723D02*
X81857143Y-96621485D01*
X81857143Y-96621485D02*
X81952381Y-96573866D01*
X81952381Y-96573866D02*
X82190476Y-96573866D01*
X82190476Y-96573866D02*
X82285714Y-96526247D01*
X82904762Y-96954819D02*
X82809524Y-96907200D01*
X82809524Y-96907200D02*
X82761905Y-96811961D01*
X82761905Y-96811961D02*
X82761905Y-95954819D01*
X83714286Y-96954819D02*
X83714286Y-96431009D01*
X83714286Y-96431009D02*
X83666667Y-96335771D01*
X83666667Y-96335771D02*
X83571429Y-96288152D01*
X83571429Y-96288152D02*
X83380953Y-96288152D01*
X83380953Y-96288152D02*
X83285715Y-96335771D01*
X83714286Y-96907200D02*
X83619048Y-96954819D01*
X83619048Y-96954819D02*
X83380953Y-96954819D01*
X83380953Y-96954819D02*
X83285715Y-96907200D01*
X83285715Y-96907200D02*
X83238096Y-96811961D01*
X83238096Y-96811961D02*
X83238096Y-96716723D01*
X83238096Y-96716723D02*
X83285715Y-96621485D01*
X83285715Y-96621485D02*
X83380953Y-96573866D01*
X83380953Y-96573866D02*
X83619048Y-96573866D01*
X83619048Y-96573866D02*
X83714286Y-96526247D01*
X84190477Y-96954819D02*
X84190477Y-96288152D01*
X84190477Y-96478628D02*
X84238096Y-96383390D01*
X84238096Y-96383390D02*
X84285715Y-96335771D01*
X84285715Y-96335771D02*
X84380953Y-96288152D01*
X84380953Y-96288152D02*
X84476191Y-96288152D01*
X84809525Y-96954819D02*
X84809525Y-96288152D01*
X84809525Y-96478628D02*
X84857144Y-96383390D01*
X84857144Y-96383390D02*
X84904763Y-96335771D01*
X84904763Y-96335771D02*
X85000001Y-96288152D01*
X85000001Y-96288152D02*
X85095239Y-96288152D01*
X85857144Y-96954819D02*
X85857144Y-96431009D01*
X85857144Y-96431009D02*
X85809525Y-96335771D01*
X85809525Y-96335771D02*
X85714287Y-96288152D01*
X85714287Y-96288152D02*
X85523811Y-96288152D01*
X85523811Y-96288152D02*
X85428573Y-96335771D01*
X85857144Y-96907200D02*
X85761906Y-96954819D01*
X85761906Y-96954819D02*
X85523811Y-96954819D01*
X85523811Y-96954819D02*
X85428573Y-96907200D01*
X85428573Y-96907200D02*
X85380954Y-96811961D01*
X85380954Y-96811961D02*
X85380954Y-96716723D01*
X85380954Y-96716723D02*
X85428573Y-96621485D01*
X85428573Y-96621485D02*
X85523811Y-96573866D01*
X85523811Y-96573866D02*
X85761906Y-96573866D01*
X85761906Y-96573866D02*
X85857144Y-96526247D01*
X86333335Y-96288152D02*
X86333335Y-96954819D01*
X86333335Y-96383390D02*
X86380954Y-96335771D01*
X86380954Y-96335771D02*
X86476192Y-96288152D01*
X86476192Y-96288152D02*
X86619049Y-96288152D01*
X86619049Y-96288152D02*
X86714287Y-96335771D01*
X86714287Y-96335771D02*
X86761906Y-96431009D01*
X86761906Y-96431009D02*
X86761906Y-96954819D01*
X87666668Y-96907200D02*
X87571430Y-96954819D01*
X87571430Y-96954819D02*
X87380954Y-96954819D01*
X87380954Y-96954819D02*
X87285716Y-96907200D01*
X87285716Y-96907200D02*
X87238097Y-96859580D01*
X87238097Y-96859580D02*
X87190478Y-96764342D01*
X87190478Y-96764342D02*
X87190478Y-96478628D01*
X87190478Y-96478628D02*
X87238097Y-96383390D01*
X87238097Y-96383390D02*
X87285716Y-96335771D01*
X87285716Y-96335771D02*
X87380954Y-96288152D01*
X87380954Y-96288152D02*
X87571430Y-96288152D01*
X87571430Y-96288152D02*
X87666668Y-96335771D01*
X88523811Y-96954819D02*
X88523811Y-96431009D01*
X88523811Y-96431009D02*
X88476192Y-96335771D01*
X88476192Y-96335771D02*
X88380954Y-96288152D01*
X88380954Y-96288152D02*
X88190478Y-96288152D01*
X88190478Y-96288152D02*
X88095240Y-96335771D01*
X88523811Y-96907200D02*
X88428573Y-96954819D01*
X88428573Y-96954819D02*
X88190478Y-96954819D01*
X88190478Y-96954819D02*
X88095240Y-96907200D01*
X88095240Y-96907200D02*
X88047621Y-96811961D01*
X88047621Y-96811961D02*
X88047621Y-96716723D01*
X88047621Y-96716723D02*
X88095240Y-96621485D01*
X88095240Y-96621485D02*
X88190478Y-96573866D01*
X88190478Y-96573866D02*
X88428573Y-96573866D01*
X88428573Y-96573866D02*
X88523811Y-96526247D01*
X89000002Y-96954819D02*
X89000002Y-96288152D01*
X89000002Y-96478628D02*
X89047621Y-96383390D01*
X89047621Y-96383390D02*
X89095240Y-96335771D01*
X89095240Y-96335771D02*
X89190478Y-96288152D01*
X89190478Y-96288152D02*
X89285716Y-96288152D01*
X89523812Y-97335771D02*
X89571431Y-97288152D01*
X89571431Y-97288152D02*
X89666669Y-97145295D01*
X89666669Y-97145295D02*
X89714288Y-97050057D01*
X89714288Y-97050057D02*
X89761907Y-96907200D01*
X89761907Y-96907200D02*
X89809526Y-96669104D01*
X89809526Y-96669104D02*
X89809526Y-96478628D01*
X89809526Y-96478628D02*
X89761907Y-96240533D01*
X89761907Y-96240533D02*
X89714288Y-96097676D01*
X89714288Y-96097676D02*
X89666669Y-96002438D01*
X89666669Y-96002438D02*
X89571431Y-95859580D01*
X89571431Y-95859580D02*
X89523812Y-95811961D01*
X90809526Y-96954819D02*
X90238098Y-96954819D01*
X90523812Y-96954819D02*
X90523812Y-95954819D01*
X90523812Y-95954819D02*
X90428574Y-96097676D01*
X90428574Y-96097676D02*
X90333336Y-96192914D01*
X90333336Y-96192914D02*
X90238098Y-96240533D01*
X83967261Y-93650057D02*
X83872023Y-93602438D01*
X83872023Y-93602438D02*
X83776785Y-93507200D01*
X83776785Y-93507200D02*
X83633928Y-93364342D01*
X83633928Y-93364342D02*
X83538690Y-93316723D01*
X83538690Y-93316723D02*
X83443452Y-93316723D01*
X83491071Y-93554819D02*
X83395833Y-93507200D01*
X83395833Y-93507200D02*
X83300595Y-93411961D01*
X83300595Y-93411961D02*
X83252976Y-93221485D01*
X83252976Y-93221485D02*
X83252976Y-92888152D01*
X83252976Y-92888152D02*
X83300595Y-92697676D01*
X83300595Y-92697676D02*
X83395833Y-92602438D01*
X83395833Y-92602438D02*
X83491071Y-92554819D01*
X83491071Y-92554819D02*
X83681547Y-92554819D01*
X83681547Y-92554819D02*
X83776785Y-92602438D01*
X83776785Y-92602438D02*
X83872023Y-92697676D01*
X83872023Y-92697676D02*
X83919642Y-92888152D01*
X83919642Y-92888152D02*
X83919642Y-93221485D01*
X83919642Y-93221485D02*
X83872023Y-93411961D01*
X83872023Y-93411961D02*
X83776785Y-93507200D01*
X83776785Y-93507200D02*
X83681547Y-93554819D01*
X83681547Y-93554819D02*
X83491071Y-93554819D01*
X84491071Y-92983390D02*
X84395833Y-92935771D01*
X84395833Y-92935771D02*
X84348214Y-92888152D01*
X84348214Y-92888152D02*
X84300595Y-92792914D01*
X84300595Y-92792914D02*
X84300595Y-92745295D01*
X84300595Y-92745295D02*
X84348214Y-92650057D01*
X84348214Y-92650057D02*
X84395833Y-92602438D01*
X84395833Y-92602438D02*
X84491071Y-92554819D01*
X84491071Y-92554819D02*
X84681547Y-92554819D01*
X84681547Y-92554819D02*
X84776785Y-92602438D01*
X84776785Y-92602438D02*
X84824404Y-92650057D01*
X84824404Y-92650057D02*
X84872023Y-92745295D01*
X84872023Y-92745295D02*
X84872023Y-92792914D01*
X84872023Y-92792914D02*
X84824404Y-92888152D01*
X84824404Y-92888152D02*
X84776785Y-92935771D01*
X84776785Y-92935771D02*
X84681547Y-92983390D01*
X84681547Y-92983390D02*
X84491071Y-92983390D01*
X84491071Y-92983390D02*
X84395833Y-93031009D01*
X84395833Y-93031009D02*
X84348214Y-93078628D01*
X84348214Y-93078628D02*
X84300595Y-93173866D01*
X84300595Y-93173866D02*
X84300595Y-93364342D01*
X84300595Y-93364342D02*
X84348214Y-93459580D01*
X84348214Y-93459580D02*
X84395833Y-93507200D01*
X84395833Y-93507200D02*
X84491071Y-93554819D01*
X84491071Y-93554819D02*
X84681547Y-93554819D01*
X84681547Y-93554819D02*
X84776785Y-93507200D01*
X84776785Y-93507200D02*
X84824404Y-93459580D01*
X84824404Y-93459580D02*
X84872023Y-93364342D01*
X84872023Y-93364342D02*
X84872023Y-93173866D01*
X84872023Y-93173866D02*
X84824404Y-93078628D01*
X84824404Y-93078628D02*
X84776785Y-93031009D01*
X84776785Y-93031009D02*
X84681547Y-92983390D01*
X66329047Y-99581009D02*
X66471904Y-99628628D01*
X66471904Y-99628628D02*
X66519523Y-99676247D01*
X66519523Y-99676247D02*
X66567142Y-99771485D01*
X66567142Y-99771485D02*
X66567142Y-99914342D01*
X66567142Y-99914342D02*
X66519523Y-100009580D01*
X66519523Y-100009580D02*
X66471904Y-100057200D01*
X66471904Y-100057200D02*
X66376666Y-100104819D01*
X66376666Y-100104819D02*
X65995714Y-100104819D01*
X65995714Y-100104819D02*
X65995714Y-99104819D01*
X65995714Y-99104819D02*
X66329047Y-99104819D01*
X66329047Y-99104819D02*
X66424285Y-99152438D01*
X66424285Y-99152438D02*
X66471904Y-99200057D01*
X66471904Y-99200057D02*
X66519523Y-99295295D01*
X66519523Y-99295295D02*
X66519523Y-99390533D01*
X66519523Y-99390533D02*
X66471904Y-99485771D01*
X66471904Y-99485771D02*
X66424285Y-99533390D01*
X66424285Y-99533390D02*
X66329047Y-99581009D01*
X66329047Y-99581009D02*
X65995714Y-99581009D01*
X66900476Y-99104819D02*
X67567142Y-99104819D01*
X67567142Y-99104819D02*
X66900476Y-100104819D01*
X66900476Y-100104819D02*
X67567142Y-100104819D01*
X68471904Y-100104819D02*
X67900476Y-100104819D01*
X68186190Y-100104819D02*
X68186190Y-99104819D01*
X68186190Y-99104819D02*
X68090952Y-99247676D01*
X68090952Y-99247676D02*
X67995714Y-99342914D01*
X67995714Y-99342914D02*
X67900476Y-99390533D01*
X63009048Y-106073866D02*
X63770953Y-106073866D01*
X63390000Y-106454819D02*
X63390000Y-105692914D01*
X80550057Y-86595238D02*
X80502438Y-86690476D01*
X80502438Y-86690476D02*
X80407200Y-86785714D01*
X80407200Y-86785714D02*
X80264342Y-86928571D01*
X80264342Y-86928571D02*
X80216723Y-87023809D01*
X80216723Y-87023809D02*
X80216723Y-87119047D01*
X80454819Y-87071428D02*
X80407200Y-87166666D01*
X80407200Y-87166666D02*
X80311961Y-87261904D01*
X80311961Y-87261904D02*
X80121485Y-87309523D01*
X80121485Y-87309523D02*
X79788152Y-87309523D01*
X79788152Y-87309523D02*
X79597676Y-87261904D01*
X79597676Y-87261904D02*
X79502438Y-87166666D01*
X79502438Y-87166666D02*
X79454819Y-87071428D01*
X79454819Y-87071428D02*
X79454819Y-86880952D01*
X79454819Y-86880952D02*
X79502438Y-86785714D01*
X79502438Y-86785714D02*
X79597676Y-86690476D01*
X79597676Y-86690476D02*
X79788152Y-86642857D01*
X79788152Y-86642857D02*
X80121485Y-86642857D01*
X80121485Y-86642857D02*
X80311961Y-86690476D01*
X80311961Y-86690476D02*
X80407200Y-86785714D01*
X80407200Y-86785714D02*
X80454819Y-86880952D01*
X80454819Y-86880952D02*
X80454819Y-87071428D01*
X80454819Y-85690476D02*
X80454819Y-86261904D01*
X80454819Y-85976190D02*
X79454819Y-85976190D01*
X79454819Y-85976190D02*
X79597676Y-86071428D01*
X79597676Y-86071428D02*
X79692914Y-86166666D01*
X79692914Y-86166666D02*
X79740533Y-86261904D01*
X82584819Y-79538094D02*
X81584819Y-79538094D01*
X81584819Y-79538094D02*
X81584819Y-79299999D01*
X81584819Y-79299999D02*
X81632438Y-79157142D01*
X81632438Y-79157142D02*
X81727676Y-79061904D01*
X81727676Y-79061904D02*
X81822914Y-79014285D01*
X81822914Y-79014285D02*
X82013390Y-78966666D01*
X82013390Y-78966666D02*
X82156247Y-78966666D01*
X82156247Y-78966666D02*
X82346723Y-79014285D01*
X82346723Y-79014285D02*
X82441961Y-79061904D01*
X82441961Y-79061904D02*
X82537200Y-79157142D01*
X82537200Y-79157142D02*
X82584819Y-79299999D01*
X82584819Y-79299999D02*
X82584819Y-79538094D01*
X81584819Y-78061904D02*
X81584819Y-78538094D01*
X81584819Y-78538094D02*
X82061009Y-78585713D01*
X82061009Y-78585713D02*
X82013390Y-78538094D01*
X82013390Y-78538094D02*
X81965771Y-78442856D01*
X81965771Y-78442856D02*
X81965771Y-78204761D01*
X81965771Y-78204761D02*
X82013390Y-78109523D01*
X82013390Y-78109523D02*
X82061009Y-78061904D01*
X82061009Y-78061904D02*
X82156247Y-78014285D01*
X82156247Y-78014285D02*
X82394342Y-78014285D01*
X82394342Y-78014285D02*
X82489580Y-78061904D01*
X82489580Y-78061904D02*
X82537200Y-78109523D01*
X82537200Y-78109523D02*
X82584819Y-78204761D01*
X82584819Y-78204761D02*
X82584819Y-78442856D01*
X82584819Y-78442856D02*
X82537200Y-78538094D01*
X82537200Y-78538094D02*
X82489580Y-78585713D01*
D12*
%TO.C,U2*%
X57335000Y-65040000D02*
X57335000Y-71200000D01*
X57335000Y-65040000D02*
X75575000Y-65040000D01*
X57335000Y-90000000D02*
X57335000Y-90780000D01*
X57335000Y-90780000D02*
X58335000Y-90780000D01*
X75575000Y-65040000D02*
X75575000Y-71455000D01*
X75575000Y-90000000D02*
X75575000Y-90780000D01*
X75575000Y-90780000D02*
X74575000Y-90780000D01*
X57330000Y-71925000D02*
X56830000Y-71925000D01*
X57330000Y-71425000D01*
X57330000Y-71925000D01*
G36*
X57330000Y-71925000D02*
G01*
X56830000Y-71925000D01*
X57330000Y-71425000D01*
X57330000Y-71925000D01*
G37*
%TO.C,D1*%
X82670000Y-101764000D02*
X82670000Y-101920000D01*
X82670000Y-104080000D02*
X82670000Y-104236000D01*
X82670000Y-101764484D02*
G75*
G02*
X85902335Y-101921392I1560000J-1235516D01*
G01*
X83189039Y-101920000D02*
G75*
G02*
X85271130Y-101920163I1040961J-1080000D01*
G01*
X85271130Y-104079837D02*
G75*
G02*
X83189039Y-104080000I-1041130J1079837D01*
G01*
X85902335Y-104078608D02*
G75*
G02*
X82670000Y-104235516I-1672335J1078608D01*
G01*
%TO.C,D4*%
X83060000Y-84900000D02*
X82904000Y-84900000D01*
X85376000Y-84900000D02*
X85220000Y-84900000D01*
X83060163Y-87501130D02*
G75*
G02*
X83060000Y-85419039I1079837J1041130D01*
G01*
X83061392Y-88132335D02*
G75*
G02*
X82904484Y-84900000I1078608J1672335D01*
G01*
X85220000Y-85419039D02*
G75*
G02*
X85219837Y-87501130I-1080000J-1040961D01*
G01*
X85375516Y-84900000D02*
G75*
G02*
X85218608Y-88132335I-1235516J-1560000D01*
G01*
%TO.C,U4*%
X60000000Y-98440000D02*
X59200000Y-98440000D01*
X60000000Y-98440000D02*
X60800000Y-98440000D01*
X60000000Y-101560000D02*
X59200000Y-101560000D01*
X60000000Y-101560000D02*
X60800000Y-101560000D01*
X58700000Y-98490000D02*
X58460000Y-98160000D01*
X58940000Y-98160000D01*
X58700000Y-98490000D01*
G36*
X58700000Y-98490000D02*
G01*
X58460000Y-98160000D01*
X58940000Y-98160000D01*
X58700000Y-98490000D01*
G37*
%TO.C,J2*%
X47170000Y-76510000D02*
X48500000Y-76510000D01*
X47170000Y-77840000D02*
X47170000Y-76510000D01*
X47170000Y-79110000D02*
X47170000Y-94410000D01*
X47170000Y-79110000D02*
X49830000Y-79110000D01*
X47170000Y-94410000D02*
X49830000Y-94410000D01*
X49830000Y-79110000D02*
X49830000Y-94410000D01*
%TO.C,Joystick1*%
X46895000Y-96610000D02*
X46895000Y-106840000D01*
X57095000Y-96610000D02*
X46895000Y-96610000D01*
X57095000Y-96610000D02*
X57095000Y-106840000D01*
X57095000Y-106840000D02*
X46895000Y-106840000D01*
X57335000Y-95340000D02*
X55952000Y-95340000D01*
X57335000Y-95340000D02*
X57335000Y-96724000D01*
%TO.C,Q6*%
X76790000Y-78970000D02*
X76790000Y-82570000D01*
X76801522Y-78931522D02*
G75*
G02*
X81240001Y-80770000I1838478J-1838478D01*
G01*
X81240000Y-80770000D02*
G75*
G02*
X76801522Y-82608478I-2600000J0D01*
G01*
%TO.C,D6*%
X83060000Y-74165000D02*
X82904000Y-74165000D01*
X85376000Y-74165000D02*
X85220000Y-74165000D01*
X83060163Y-76766130D02*
G75*
G02*
X83060000Y-74684039I1079837J1041130D01*
G01*
X83061392Y-77397335D02*
G75*
G02*
X82904484Y-74165000I1078608J1672335D01*
G01*
X85220000Y-74684039D02*
G75*
G02*
X85219837Y-76766130I-1080000J-1040961D01*
G01*
X85375516Y-74165000D02*
G75*
G02*
X85218608Y-77397335I-1235516J-1560000D01*
G01*
%TO.C,D2*%
X77670000Y-101764000D02*
X77670000Y-101920000D01*
X77670000Y-104080000D02*
X77670000Y-104236000D01*
X77670000Y-101764484D02*
G75*
G02*
X80902335Y-101921392I1560000J-1235516D01*
G01*
X78189039Y-101920000D02*
G75*
G02*
X80271130Y-101920163I1040961J-1080000D01*
G01*
X80271130Y-104079837D02*
G75*
G02*
X78189039Y-104080000I-1041130J1079837D01*
G01*
X80902335Y-104078608D02*
G75*
G02*
X77670000Y-104235516I-1672335J1078608D01*
G01*
D13*
%TO.C,IC1*%
X75860000Y-111000000D02*
X75860000Y-111000000D01*
X86060000Y-111000000D02*
X86060000Y-111000000D01*
X75860000Y-111000000D02*
G75*
G02*
X86060000Y-111000000I5100000J0D01*
G01*
X86060000Y-111000000D02*
G75*
G02*
X75860000Y-111000000I-5100000J0D01*
G01*
D12*
%TO.C,R_pull_up1*%
X84139564Y-91265000D02*
X83685436Y-91265000D01*
X84139564Y-92735000D02*
X83685436Y-92735000D01*
%TO.C,Q7*%
X81110000Y-75140000D02*
G75*
G02*
X76671522Y-76978478I-2600000J0D01*
G01*
X76671522Y-73301522D02*
G75*
G02*
X81110001Y-75140000I1838478J-1838478D01*
G01*
X76660000Y-73340000D02*
X76660000Y-76940000D01*
%TO.C,Q5*%
X78500000Y-91940000D02*
X77850000Y-91940000D01*
X78500000Y-91940000D02*
X79150000Y-91940000D01*
X78500000Y-95060000D02*
X77850000Y-95060000D01*
X78500000Y-95060000D02*
X79150000Y-95060000D01*
X77337500Y-91990000D02*
X77097500Y-91660000D01*
X77577500Y-91660000D01*
X77337500Y-91990000D01*
G36*
X77337500Y-91990000D02*
G01*
X77097500Y-91660000D01*
X77577500Y-91660000D01*
X77337500Y-91990000D01*
G37*
%TO.C,R_pull_up(OFFalarrancar)1*%
X78272936Y-95765000D02*
X78727064Y-95765000D01*
X78272936Y-97235000D02*
X78727064Y-97235000D01*
%TO.C,Q8*%
X84062500Y-93940000D02*
X83412500Y-93940000D01*
X84062500Y-93940000D02*
X84712500Y-93940000D01*
X84062500Y-97060000D02*
X83412500Y-97060000D01*
X84062500Y-97060000D02*
X84712500Y-97060000D01*
X82900000Y-93990000D02*
X82660000Y-93660000D01*
X83140000Y-93660000D01*
X82900000Y-93990000D01*
G36*
X82900000Y-93990000D02*
G01*
X82660000Y-93660000D01*
X83140000Y-93660000D01*
X82900000Y-93990000D01*
G37*
%TO.C,BZ1*%
X74800000Y-108540000D02*
G75*
G02*
X59600000Y-108540000I-7600000J0D01*
G01*
X59600000Y-108540000D02*
G75*
G02*
X74800000Y-108540000I7600000J0D01*
G01*
%TO.C,Q1*%
X81100000Y-86270000D02*
G75*
G02*
X76661522Y-88108478I-2600000J0D01*
G01*
X76661522Y-84431522D02*
G75*
G02*
X81100001Y-86270000I1838478J-1838478D01*
G01*
X76650000Y-84470000D02*
X76650000Y-88070000D01*
%TO.C,D5*%
X83060000Y-79665000D02*
X82904000Y-79665000D01*
X85376000Y-79665000D02*
X85220000Y-79665000D01*
X83060163Y-82266130D02*
G75*
G02*
X83060000Y-80184039I1079837J1041130D01*
G01*
X83061392Y-82897335D02*
G75*
G02*
X82904484Y-79665000I1078608J1672335D01*
G01*
X85220000Y-80184039D02*
G75*
G02*
X85219837Y-82266130I-1080000J-1040961D01*
G01*
X85375516Y-79665000D02*
G75*
G02*
X85218608Y-82897335I-1235516J-1560000D01*
G01*
%TO.C,J11*%
X47140000Y-108940000D02*
X58860000Y-108940000D01*
X47140000Y-112750000D02*
X47140000Y-108940000D01*
X47140000Y-112750000D02*
X47140000Y-116560000D01*
X47140000Y-116560000D02*
X58860000Y-116560000D01*
X47750000Y-111250000D02*
X47750000Y-111750000D01*
X47750000Y-111750000D02*
X53250000Y-111750000D01*
X47750000Y-113750000D02*
X47750000Y-114250000D01*
X47750000Y-114250000D02*
X53250000Y-114250000D01*
X53250000Y-111250000D02*
X47750000Y-111250000D01*
X53250000Y-111750000D02*
X53250000Y-111250000D01*
X53250000Y-113750000D02*
X47750000Y-113750000D01*
X53250000Y-114250000D02*
X53250000Y-113750000D01*
X54360000Y-110360000D02*
X54360000Y-112750000D01*
X54360000Y-115140000D02*
X54360000Y-112750000D01*
X57950000Y-111500000D02*
X58550000Y-111200000D01*
X58550000Y-111200000D02*
X58550000Y-111800000D01*
X58550000Y-111800000D02*
X57950000Y-111500000D01*
X58860000Y-108940000D02*
X58860000Y-110360000D01*
X58860000Y-110360000D02*
X54360000Y-110360000D01*
X58860000Y-115140000D02*
X54360000Y-115140000D01*
X58860000Y-116560000D02*
X58860000Y-115140000D01*
%TD*%
M02*
